<svg xmlns="http://www.w3.org/2000/svg" xmlns:xlink="http://www.w3.org/1999/xlink" viewBox="0 0 158.85 203.22">
  <defs>
    <linearGradient id="lineargradient" x1="112.33" y1="47.34" x2="136.21" y2="23.46" gradientUnits="userSpaceOnUse">
      <stop offset="0" stop-color="#fff"/>
      <stop offset="0.1" stop-color="#fafafa" stop-opacity="0.99"/>
      <stop offset="0.23" stop-color="#ececec" stop-opacity="0.97"/>
      <stop offset="0.38" stop-color="#d5d4d4" stop-opacity="0.92"/>
      <stop offset="0.53" stop-color="#b4b3b3" stop-opacity="0.86"/>
      <stop offset="0.69" stop-color="#8a8888" stop-opacity="0.79"/>
      <stop offset="0.85" stop-color="#585555" stop-opacity="0.7"/>
      <stop offset="1" stop-color="#231f20" stop-opacity="0.6"/>
    </linearGradient>
  </defs>

  <path fill="#231f20" fill-rule="evenodd" d="M0 0L112.81 0 112.81 47.71 158.84 47.71 158.84 203.22 0 203.22 0 0 0 0z"/>

  <path fill="url(#lineargradient)" d="M112.76 0L158.83 47.77 112.76 47.77 112.76 0 112.76 0z"/>

  <path fill="#00ac69" d="M0 111.6H158.85V203.16H0z"/>

  <path fill="#fff" d="M78.1 78.26H76.26v6.32h-3v-15H78a17.16 17.16 0 0 1 2.36.16 3.85 3.85 0 0 1 3.42 4C83.75 76.57 81.66 78.26 78.1 78.26zm1.85-6a3.16 3.16 0 0 0-2.14-.5H76.26v4.32h1.37c1.94 0 3-.81 3-2.25A2.05 2.05 0 0 0 80 72.3zM86 84.58v-15h3V82.15H95.5v2.43zM108.37 84.58l-1.73-4.41h-6l-1.71 4.41h-3l6.22-15h3.17l6.28 15zm-4.75-12.1L101.48 78h4.32zM113.38 84.58v-15h3.06v15zM129.5 84.58l-6.94-9.92v9.92h-2.79v-15h2.86l7 10.06V69.57h2.79v15zM73.22 111.58v-15h3v12.58h6.5v2.43zM95.63 111.58l-1.73-4.41h-6l-1.71 4.41h-3l6.21-15H92.6l6.27 15zm-4.75-12.1L88.75 105h4.32zM110.37 111.58l-6.93-9.92v9.92h-2.79v-15h2.86l7 10.06V96.57h2.79v15zM124.23 111.92c-4.91 0-8.33-3.13-8.33-7.65s3.74-8 9-8a11 11 0 0 1 4.55.86l-.75 2.18a9 9 0 0 0-3.53-.65c-3.65 0-6 2.2-6 5.53a5.12 5.12 0 0 0 5.46 5.34 5.71 5.71 0 0 0 2-.32v-4.84h3v6.44A11.89 11.89 0 0 1 124.23 111.92zM144.66 108.41c-.83 2.14-3.19 3.47-6.17 3.47a7 7 0 0 1-4.68-1.49c-1.21-1.06-1.57-2.25-1.57-5.22v-8.6h3v8.6a7.09 7.09 0 0 0 .2 2.23 2.91 2.91 0 0 0 3.08 2 4.31 4.31 0 0 0 2.64-.79c.87-.65 1.17-1.51 1.17-3.51V96.57h2.76v8.55A9.1 9.1 0 0 1 144.66 108.41zM159.26 111.58l-1.73-4.41h-6l-1.71 4.41h-3l6.21-15h3.17l6.28 15zm-4.75-12.1L152.38 105h4.32zM171 111.92c-4.91 0-8.33-3.13-8.33-7.65s3.74-8 9-8a11 11 0 0 1 4.54.86l-.74 2.18a9 9 0 0 0-3.53-.65c-3.65 0-6.06 2.2-6.06 5.53a5.13 5.13 0 0 0 5.47 5.34 5.62 5.62 0 0 0 2-.32v-4.84h3v6.44A11.82 11.82 0 0 1 171 111.92zM179.1 111.58v-15h9.48v2.3h-6.44v3.82h6.08v2.23h-6.08v4.23H189v2.43zM83.33 138.56a10.7 10.7 0 0 1-2.73.36c-4.75 0-8.08-3.15-8.08-7.67s3.67-8 8.76-8a12 12 0 0 1 4.48.86L85 126.27c-.36-.11-.65-.2-.83-.24a10.73 10.73 0 0 0-2.63-.34c-3.51 0-5.88 2.16-5.88 5.38a5 5 0 0 0 5.18 5.29 7.91 7.91 0 0 0 1.91-.23 8.31 8.31 0 0 0 2.3-.9l1.06 2.12A9.43 9.43 0 0 1 83.33 138.56zM94.41 138.9c-4.25 0-7.33-3.22-7.33-7.68a7.61 7.61 0 0 1 7.72-8 7.24 7.24 0 0 1 7.36 7.61A7.71 7.71 0 0 1 94.41 138.9zm4.55-8c0-3-1.94-5.13-4.41-5.13s-4.3 2.14-4.3 5.11 1.82 5.36 4.37 5.36S99 134.17 99 131.2zM119 138.58l-1.32-10.26L114 138.58h-2.56l-3.72-10.26-1.21 10.26H103.7l2.1-15H109l3.92 10.76 3.73-10.76h3.13l2.18 15zM138.31 138.58L137 128.32l-3.62 10.26H130.8l-3.72-10.26-1.21 10.26h-2.82l2.1-15h3.17l3.92 10.76L136 123.57h3.13l2.18 15zM143.51 138.58v-15h3.06v15zM153.25 138.88a16.21 16.21 0 0 1-4.19-.54l.48-2.34a16.68 16.68 0 0 0 3.39.33c2.25 0 3.67-.78 3.67-2.07 0-.9-.63-1.39-2.72-2.18a9.5 9.5 0 0 1-3.29-1.73 3.76 3.76 0 0 1-1.17-2.73c0-2.63 2.43-4.36 6.17-4.36a12 12 0 0 1 3.51.45l-.43 2.23a12.24 12.24 0 0 0-2.76-.27c-2 0-3.38.67-3.38 1.73 0 .74.7 1.28 2.52 1.93a11.76 11.76 0 0 1 3.6 1.89 3.86 3.86 0 0 1 1.15 2.8C159.8 136.92 157.17 138.88 153.25 138.88zM165.65 138.88a16.21 16.21 0 0 1-4.19-.54l.47-2.34a16.83 16.83 0 0 0 3.4.33c2.25 0 3.67-.78 3.67-2.07 0-.9-.63-1.39-2.72-2.18a9.3 9.3 0 0 1-3.29-1.73 3.76 3.76 0 0 1-1.17-2.73c0-2.63 2.43-4.36 6.17-4.36a12 12 0 0 1 3.51.45l-.43 2.23a12.32 12.32 0 0 0-2.77-.27c-2 0-3.37.67-3.37 1.73 0 .74.69 1.28 2.52 1.93a11.76 11.76 0 0 1 3.6 1.89 3.9 3.9 0 0 1 1.15 2.8C172.2 136.92 169.56 138.88 165.65 138.88zM174.69 138.58v-15h3.06v15zM187.72 138.9c-4.25 0-7.34-3.22-7.34-7.68a7.61 7.61 0 0 1 7.72-8 7.23 7.23 0 0 1 7.36 7.61A7.71 7.71 0 0 1 187.72 138.9zm4.55-8c0-3-1.94-5.13-4.41-5.13s-4.3 2.14-4.3 5.11 1.82 5.36 4.36 5.36 4.35-2.1 4.35-5.07zM207.84 138.58l-6.94-9.92v9.92h-2.79v-15H201l7 10.06V123.57h2.79v15zM84.84 177.61a12.27 12.27 0 0 1-2.91.36c-5.58 0-9.43-3.57-9.43-8.72s4.26-9.11 10.17-9.11a14.27 14.27 0 0 1 2.5.23 12.58 12.58 0 0 1 2.75.77l-1 3.08L86 164a13.55 13.55 0 0 0-2.81-.33c-3.64 0-6.12 2.17-6.12 5.36a5.06 5.06 0 0 0 5.2 5.22 8.49 8.49 0 0 0 1.92-.23 9.33 9.33 0 0 0 2.7-1l1.58 3.09A12.79 12.79 0 0 1 84.84 177.61zM90.45 177.58v-17h4.49v13.56h7.37v3.44zM104.37 177.58v-17h11.81v3.26h-7.34v3.44h6.93v3.16h-6.93v3.7h7.8v3.44zM132.19 177.58l-1.58-4.15h-6.68l-1.53 4.15H118l7.06-17h4.69l7.19 17zm-5-13l-2.12 5.76h4.34zM148.21 177.58l-2.91-5.94a1.82 1.82 0 0 0-1.76-1h-.38v7h-4.44v-17h6.35a19.52 19.52 0 0 1 2.42.13c2.5.3 4.18 2 4.18 4.23a4.47 4.47 0 0 1-4 4.26 2.84 2.84 0 0 1 2.21 1.58l3.5 6.8zM146.37 164a3.38 3.38 0 0 0-2-.38h-1.25v4.06h1.07c1.83 0 2.9-.79 2.9-2.15A1.76 1.76 0 0 0 146.37 164zM73.26 204.58v-17H85.07v3.26H77.73v3.44h6.93v3.16H77.73v3.7h7.8v3.44zM99.5 204.58l-6.88-9.46v9.46H88.51v-17h4.11l7 9.71v-9.71h4.11v17zM121.07 204.18a15.82 15.82 0 0 1-4.89.76c-5.81 0-9.77-3.49-9.77-8.64 0-5.36 4.29-9.08 10.51-9.08a14.76 14.76 0 0 1 2.62.23 15 15 0 0 1 2.81.76l-1 3.12a7.74 7.74 0 0 0-1-.31 13.53 13.53 0 0 0-3-.38c-3.74 0-6.24 2.24-6.24 5.61 0 3.13 2.24 5.27 5.53 5.27a4.46 4.46 0 0 0 1.51-.2v-4.95h4.28v7.32C121.79 203.92 121.35 204.07 121.07 204.18zM125.26 204.58v-17h4.49v13.56h7.36v3.44zM139.18 204.58v-17h4.51v17zM151.32 204.89a20.26 20.26 0 0 1-5-.66l.66-3.39.51.07a21.89 21.89 0 0 0 3.27.33c2.42 0 3.79-.61 3.79-1.68 0-.76-.56-1.17-2.39-1.76a10.75 10.75 0 0 1-3.57-1.58 4.69 4.69 0 0 1-1.84-3.7c0-3.26 2.93-5.33 7.58-5.33a16.55 16.55 0 0 1 4.15.54l-.56 3.19a15.83 15.83 0 0 0-3-.26c-2.34 0-3.69.51-3.69 1.43a.94.94 0 0 0 .2.56c.36.41.79.64 2.35 1.15a12.5 12.5 0 0 1 3.74 1.71 4.54 4.54 0 0 1 1.71 3.59C159.22 202.65 156.14 204.89 151.32 204.89zM172.92 204.58v-7.37h-6.71v7.37h-4.44v-17h4.44V194h6.71v-6.45h4.41v17zM77.47 231.89a20.33 20.33 0 0 1-5-.66l.66-3.39.51.07a22 22 0 0 0 3.27.33c2.42 0 3.8-.61 3.8-1.68 0-.76-.56-1.17-2.4-1.76a10.75 10.75 0 0 1-3.57-1.58 4.68 4.68 0 0 1-1.83-3.7c0-3.26 2.93-5.33 7.57-5.33a16.55 16.55 0 0 1 4.15.54L84 217.92a15.8 15.8 0 0 0-3-.26c-2.35 0-3.7.51-3.7 1.43a1 1 0 0 0 .2.56c.36.41.79.64 2.35 1.15a12.59 12.59 0 0 1 3.75 1.71 4.57 4.57 0 0 1 1.71 3.59C85.38 229.65 82.29 231.89 77.47 231.89zM96 217.82v13.76H91.57V217.82H86.4v-3.24h14.68v3.24zM113.47 231.58l-1.58-4.15h-6.68l-1.53 4.15H99.27l7.06-17H111l7.19 17zm-5-13l-2.11 5.76h4.33zM131 231.58l-6.88-9.46v9.46H120v-17h4.11l7 9.71v-9.71h4.11v17zM151.8 229.75a8.92 8.92 0 0 1-3.65 1.5 26.59 26.59 0 0 1-5.38.33h-4.1v-17h5.38a37.54 37.54 0 0 1 4.61.25c4 .54 6.61 3.72 6.61 8A8.27 8.27 0 0 1 151.8 229.75zM149 219.06a4.44 4.44 0 0 0-1.69-.91 9.12 9.12 0 0 0-3.13-.28H143.1v10.35h.67a8.25 8.25 0 0 0 3.26-.41 5.06 5.06 0 0 0 3.57-5A4.64 4.64 0 0 0 149 219.06zM169.77 231.58l-1.58-4.15h-6.68L160 231.58h-4.41l7.07-17h4.69l7.19 17zm-5-13l-2.11 5.76H167zM185.79 231.58l-2.91-5.94a1.82 1.82 0 0 0-1.76-1h-.38v7H176.3v-17h6.35a19.7 19.7 0 0 1 2.43.13c2.49.3 4.18 2 4.18 4.23a4.48 4.48 0 0 1-4 4.26 3.47 3.47 0 0 1 1.22.45 3.6 3.6 0 0 1 1 1.13l3.49 6.8zM184 218a3.38 3.38 0 0 0-2-.38h-1.25v4.06h1.07c1.84 0 2.91-.79 2.91-2.15A1.77 1.77 0 0 0 184 218zM205.86 229.75a8.92 8.92 0 0 1-3.65 1.5 26.65 26.65 0 0 1-5.38.33h-4.1v-17h5.38a37.66 37.66 0 0 1 4.61.25c3.95.54 6.61 3.72 6.61 8A8.27 8.27 0 0 1 205.86 229.75zm-2.81-10.69a4.33 4.33 0 0 0-1.68-.91 9.19 9.19 0 0 0-3.14-.28h-1.07v10.35h.67a8.25 8.25 0 0 0 3.26-.41 5.06 5.06 0 0 0 3.57-5A4.65 4.65 0 0 0 203.05 219.06z" transform="translate(-60.87 -39.96)"/>
</svg>
