<svg xmlns="http://www.w3.org/2000/svg" xmlns:xlink="http://www.w3.org/1999/xlink" version="1.1" x="0px" y="0px" viewBox="1 0 20 20" enable-background="new 1 0 20 20" width="20px" xml:space="preserve"><g><path fill="#41863F" d="M11.5 6c0-0.5-0.4-0.8-0.8-0.8c-0.5 0-0.8 0.4-0.8 0.8v5.2H15c0.5 0 0.8-0.4 0.8-0.8c0-0.5-0.4-0.8-0.8-0.8 h-3.5L11.5 6L11.5 6z"/><path fill="#41863F" d="M17.7 4.4l1.8 1.8L21 4.6c0 0-1.4-2.7-4.6-4.6l-1.5 1.5l1.8 1.8l-0.4 0.4c-1.6-1.4-3.8-2.2-6-2.2 C5.2 1.4 1 5.5 1 10.7c0 5.1 4.1 9.3 9.3 9.3c5.1 0 9.3-4.1 9.3-9.3c0-2.4-0.8-4.4-2.2-6L17.7 4.4z M10.4 17.3 c-3.5 0-6.5-2.9-6.5-6.5s2.9-6.5 6.5-6.5s6.5 2.9 6.5 6.5C16.8 14.4 13.9 17.3 10.4 17.3L10.4 17.3z"/></g></svg>
