<?xml version="1.0" standalone="no"?>
<!DOCTYPE svg PUBLIC "-//W3C//DTD SVG 1.1//EN" "http://www.w3.org/Graphics/SVG/1.1/DTD/svg11.dtd" >
<svg>
<metadata>
Created by FontForge 20090914 at Tue Oct 16 12:03:15 2012
 By www-data
Copyright (c) 2009 by Jos Buivenga. All rights reserved.
</metadata>
<defs>
<font id="MuseoSlab-300" horiz-adv-x="565" >
  <font-face 
    font-family="Museo Slab 300"
    font-weight="300"
    font-stretch="normal"
    units-per-em="1000"
    panose-1="2 0 0 0 0 0 0 0 0 0"
    ascent="750"
    descent="-250"
    x-height="503"
    cap-height="703"
    bbox="-123 -217 1088 891"
    underline-thickness="50"
    underline-position="-50"
    unicode-range="U+0020-U+FB04"
  />
<missing-glyph horiz-adv-x="510" 
d="M5 0v700h500v-700h-500zM255 395l170 255h-340zM285 350l170 -255v510zM55 95l170 255l-170 255v-510zM85 50h340l-170 255z" />
    <glyph glyph-name="f_f" unicode="ff" horiz-adv-x="684" 
d="M46 0l-0.00390625 56h85v391h-90v56h90v26c0 37.333 5.83301 68.833 17.5 94.5s27 44.167 46 55.5s36.333 19 52 23s31.834 6 48.501 6l41 -3v-59c-8.66699 2 -20 3 -34 3c-10.667 0 -21 -1.33301 -31 -4s-21 -7.66699 -33 -15s-21.5 -19.5 -28.5 -36.5
s-10.5 -38.167 -10.5 -63.5v-27h262v26c0 37.333 5.83301 68.833 17.5 94.5s26.834 44.167 45.501 55.5s35.834 19 51.501 23s31.834 6 48.501 6l41 -3v-59c-8.66699 2 -20 3 -34 3c-10.667 0 -21 -1.33301 -31 -4s-20.833 -7.66699 -32.5 -15s-21 -19.5 -28 -36.5
s-10.5 -38.167 -10.5 -63.5v-27h127v-56h-127v-391h99v-56h-252v56h85v391h-262v-391h100v-56h-253z" />
    <glyph glyph-name="fi" unicode="fi" horiz-adv-x="642" 
d="M46 0l-0.000976562 56h85v391h-90v56h90v26c0 37.333 5.83301 68.833 17.5 94.5s27 44.167 46 55.5s36.333 19 52 23s31.834 6 48.501 6l41 -3v-59c-8.66699 2 -20 3 -34 3c-10.667 0 -21 -1.33301 -31 -4s-21 -7.66699 -33 -15s-21.5 -19.5 -28.5 -36.5
s-10.5 -38.167 -10.5 -63.5v-27h330v-447h85v-56h-238v56h85v391h-262v-391h100v-56h-253zM455.999 618v85h77v-85h-77z" />
    <glyph glyph-name="fl" unicode="fl" horiz-adv-x="621" 
d="M46 0l0.000976562 56h85v391h-90v56h90v17c0 37.333 6.33301 69.5 19 96.5s29.834 47.333 51.501 61s44.167 23.667 67.5 30s48.333 9.5 75 9.5c28.667 0 56.5 -1.83301 83.5 -5.5s47.167 -7.5 60.5 -11.5l19 -6v-563c0 -24 4.16699 -42.5 12.5 -55.5
s24.5 -19.5 48.5 -19.5l24 2v-58c-12.667 -2 -25.334 -3 -38.001 -3c-76.667 0 -115 43 -115 129v522c-19.333 8 -51.333 12 -96 12c-40.667 0 -74.834 -10.667 -102.501 -32s-41.5 -57 -41.5 -107v-18h128v-56h-128v-391h100v-56h-253z" />
    <glyph glyph-name="f_f_i" unicode="ffi" horiz-adv-x="971" 
d="M46 0l-0.00390625 56h85v391h-90v56h90v26c0 37.333 5.83301 68.833 17.5 94.5s27 44.167 46 55.5s36.333 19 52 23s31.834 6 48.501 6l41 -3v-59c-8.66699 2 -20 3 -34 3c-10.667 0 -21 -1.33301 -31 -4s-21 -7.66699 -33 -15s-21.5 -19.5 -28.5 -36.5
s-10.5 -38.167 -10.5 -63.5v-27h262v26c0 37.333 5.83301 68.833 17.5 94.5s26.834 44.167 45.501 55.5s35.834 19 51.501 23s31.834 6 48.501 6l41 -3v-59c-8.66699 2 -20 3 -34 3c-10.667 0 -21 -1.33301 -31 -4s-20.833 -7.66699 -32.5 -15s-21 -19.5 -28 -36.5
s-10.5 -38.167 -10.5 -63.5v-27h329v-447h85v-56h-238v56h85v391h-261v-391h99v-56h-252v56h85v391h-262v-391h100v-56h-253zM784.996 618v85h77v-85h-77z" />
    <glyph glyph-name="f_f_l" unicode="ffl" horiz-adv-x="950" 
d="M46 0l0.00195312 56h85v391h-90v56h90v26c0 37.333 5.83301 68.833 17.5 94.5s27 44.167 46 55.5s36.5 19 52.5 23s32.667 6 50 6l39 -3v-59c-9.33301 2 -20.333 3 -33 3c-11.333 0 -22 -1.33301 -32 -4s-20.833 -7.66699 -32.5 -15s-21.167 -19.5 -28.5 -36.5
s-11 -38.167 -11 -63.5v-27h262v17c0 37.333 6.33301 69.5 19 96.5s29.667 47.333 51 61s43.666 23.667 66.999 30s48.333 9.5 75 9.5c28.667 0 56.5 -1.83301 83.5 -5.5s46.833 -7.5 59.5 -11.5l20 -6v-563c0 -24 4.16699 -42.5 12.5 -55.5s24.5 -19.5 48.5 -19.5l24 2v-58
c-12.667 -2 -25.334 -3 -38.001 -3c-76.667 0 -115 43 -115 129v522c-19.333 8 -51.333 12 -96 12c-40.667 0 -74.667 -10.667 -102 -32s-41 -57 -41 -107v-18h127v-56h-127v-391h99v-56h-252v56h85v391h-262v-391h100v-56h-253z" />
    <glyph glyph-name="f_j" unicode="fj" horiz-adv-x="609" 
d="M46 0v56h85v391h-90v56h90v26c0 37.333 5.83301 68.833 17.5 94.5s27 44.167 46 55.5s36.333 19 52 23s31.834 6 48.501 6l41 -3v-59c-8.66699 2 -20 3 -34 3c-10.667 0 -21 -1.33301 -31 -4s-21 -7.66699 -33 -15s-21.5 -19.5 -28.5 -36.5s-10.5 -38.167 -10.5 -63.5
v-27h323v-521c0 -32 -4.33301 -59.833 -13 -83.5s-19.334 -42 -32.001 -55s-27.667 -23.333 -45 -31s-32.5 -12.667 -45.5 -15s-26.5 -3.5 -40.5 -3.5l-29 3v58c6 -1.33301 13.333 -2 22 -2c12 0 23.667 1.5 35 4.5s23.5 8.5 36.5 16.5s23.5 21.333 31.5 40s12 41.667 12 69
v464h-255v-391h100v-56h-253zM451 618v85h74v-85h-74z" />
    <glyph glyph-name=".notdef" horiz-adv-x="510" 
d="M5 0v700h500v-700h-500zM255 395l170 255h-340zM285 350l170 -255v510zM55 95l170 255l-170 255v-510zM85 50h340l-170 255z" />
    <glyph glyph-name="space" unicode=" " horiz-adv-x="250" 
 />
    <glyph glyph-name="exclam" unicode="!" horiz-adv-x="234" 
d="M85 184l-3 519h70l-3 -519h-64zM78 0v79h79v-79h-79z" />
    <glyph glyph-name="quotedbl" unicode="&#x22;" horiz-adv-x="318" 
d="M190 512v201h59v-201h-59zM69 512v201h59v-201h-59z" />
    <glyph glyph-name="numbersign" unicode="#" horiz-adv-x="724" 
d="M154 0l35 195h-142l9 56h142l35 196h-142l10 56h141l35 200h61l-35 -200h173l35 200h61l-35 -200h141l-10 -56h-140l-35 -196h140l-10 -56h-139l-35 -195h-61l34 195h-172l-35 -195h-61zM259 251h173l35 196h-173z" />
    <glyph glyph-name="dollar" unicode="$" horiz-adv-x="529" 
d="M46 93l41.0049 51.001l8.5 -8.5c3.66699 -3.66699 11.834 -9.83398 24.501 -18.501s25.667 -16.334 39 -23.001s30.166 -12.834 50.499 -18.501s40.833 -8.5 61.5 -8.5c40 0 73.5 11.167 100.5 33.5s40.5 51.833 40.5 88.5c0 28.667 -12.167 53 -36.5 73
s-53.833 36.667 -88.5 50s-69.334 27.5 -104.001 42.5s-64.167 36.5 -88.5 64.5s-36.5 62 -36.5 102c0 45.333 16.833 84.333 50.5 117s78.167 52.334 133.5 59.001v110h56v-108c32 -2 62 -8.5 90 -19.5s48 -21.5 60 -31.5l17 -16l-33 -55
c-4.66699 4.66699 -11.334 10.167 -20.001 16.5s-26.5 15 -53.5 26s-53.833 16.5 -80.5 16.5c-44.667 0 -80.667 -10.833 -108 -32.5s-41 -48.5 -41 -80.5c0 -26 8.66699 -48.667 26 -68s39.166 -34.333 65.499 -45l85 -35.5c30.333 -13 58.666 -26 84.999 -39
s48.166 -31.833 65.499 -56.5s26 -53.667 26 -87c0 -49.333 -16.667 -91.5 -50 -126.5s-78 -55.167 -134 -60.5v-108h-56v108c-37.333 2.66699 -72.333 11.334 -105 26.001s-56 28.667 -70 42z" />
    <glyph glyph-name="percent" unicode="%" horiz-adv-x="714" 
d="M188 437c-38.667 0 -71.6689 13.5 -99.002 40.5s-41 59.833 -41 98.5c0 38 13.667 70.667 41 98s60.333 41 99 41s71.834 -13.667 99.501 -41s41.5 -60 41.5 -98c0 -38.667 -13.667 -71.5 -41 -98.5s-60.666 -40.5 -99.999 -40.5zM53.998 0l536 703h71l-535 -703h-72z
M187.998 493c22.667 0 42 8 58 24s24 35.667 24 59c0 22.667 -8 42.167 -24 58.5s-35.333 24.5 -58 24.5s-41.667 -8.16699 -57 -24.5s-23 -35.833 -23 -58.5c0 -23.333 7.66699 -43 23 -59s34.333 -24 57 -24zM385.998 126c0 38.667 13.667 71.667 41 99s60.333 41 99 41
s71.834 -13.667 99.501 -41s41.5 -60.333 41.5 -99c0 -38 -13.833 -70.5 -41.5 -97.5s-60.834 -40.5 -99.501 -40.5s-71.667 13.5 -99 40.5s-41 59.5 -41 97.5zM445.998 127c0 -23.333 7.66699 -43 23 -59s34.333 -24 57 -24s42 8 58 24s24 35.667 24 59
c0 22.667 -8 42.167 -24 58.5s-35.333 24.5 -58 24.5s-41.667 -8.16699 -57 -24.5s-23 -35.833 -23 -58.5z" />
    <glyph glyph-name="ampersand" unicode="&#x26;" horiz-adv-x="665" 
d="M55 194c0 42 11.499 80.334 34.499 115.001s54.833 58 95.5 70v2c-2.66699 0.666992 -6.33398 2 -11.001 4s-12.667 7 -24 15s-21.333 17.333 -30 28s-16.667 25.667 -24 45s-11 40.666 -11 63.999c0 54 20 97.167 60 129.5s93.333 48.5 160 48.5
c10.667 0 22.834 -0.833008 36.501 -2.5s24.5 -3.16699 32.5 -4.5l12 -3l-20 -58c-22 4.66699 -41.333 7 -58 7c-43.333 0 -79.333 -11 -108 -33s-43 -51.333 -43 -88c0 -14.667 1.83301 -28.334 5.5 -41.001s10.5 -26.167 20.5 -40.5s26 -25.666 48 -33.999
s48.667 -12.5 80 -12.5h165v100h69v-100h95v-60h-95v-104c0 -82 -21.667 -144.667 -65 -188s-102.666 -65 -177.999 -65c-72.667 0 -132 19.5 -178 58.5s-69 88.167 -69 147.5zM125.999 199.001c0 -42 16 -77 48 -105s75 -42 129 -42s96.333 15.5 127 46.5
s46 79.167 46 144.5v102h-168c-59.333 0 -104.5 -13 -135.5 -39s-46.5 -61.667 -46.5 -107z" />
    <glyph glyph-name="quotesingle" unicode="'" horiz-adv-x="197" 
d="M69 512v201h59v-201h-59z" />
    <glyph glyph-name="parenleft" unicode="(" horiz-adv-x="301" 
d="M187 -95c-74.667 130 -112 274 -112 432c0 138.667 37.333 269.667 112 393h64c-75.333 -126 -113 -257 -113 -393c0 -154 37.667 -298 113 -432h-64z" />
    <glyph glyph-name="parenright" unicode=")" horiz-adv-x="301" 
d="M50 -95c75.333 135.333 113 279.333 113 432c0 134.667 -37.667 265.667 -113 393h63c75.333 -122.667 113 -253.667 113 -393c0 -158.667 -37.667 -302.667 -113 -432h-63z" />
    <glyph glyph-name="asterisk" unicode="*" horiz-adv-x="480" 
d="M153 337l-53 38l94 120v2l-147 42l20 63l144 -53l-6 154h68l-6 -154l145 52l21 -61l-148 -43v-2l93 -120l-52 -39l-86 127h-2z" />
    <glyph glyph-name="plus" unicode="+" horiz-adv-x="606" 
d="M42 255v58h231v255h61v-255h230v-58h-230v-255h-61v255h-231z" />
    <glyph glyph-name="comma" unicode="," horiz-adv-x="246" 
d="M24 -129l68 211h78l-87 -211h-59z" />
    <glyph glyph-name="hyphen" unicode="-" horiz-adv-x="491" 
d="M104 253v62h283v-62h-283z" />
    <glyph glyph-name="period" unicode="." horiz-adv-x="243" 
d="M81 0v83h81v-83h-81z" />
    <glyph glyph-name="slash" unicode="/" horiz-adv-x="410" 
d="M46 -42l254 784h64l-254 -784h-64z" />
    <glyph glyph-name="zero" unicode="0" horiz-adv-x="617" 
d="M308 -12c-161.333 0 -241.999 121.333 -241.999 364c0 242 80.667 363 242 363c58.667 0 106.667 -16.667 144 -50s63.166 -76 77.499 -128s21.5 -113.667 21.5 -185c0 -242.667 -81 -364 -243 -364zM308.001 52c32.667 0 60.332 7.50098 82.999 22.501
s40.334 36.667 53.001 65s21.667 59.666 27 93.999s8 73.833 8 118.5c0 199.333 -57 299 -171 299c-113.333 0 -170 -99.667 -170 -299c0 -200 56.667 -300 170 -300z" />
    <glyph glyph-name="one" unicode="1" horiz-adv-x="453" 
d="M50 0l0.000976562 60h157v518l1 39h-2c-4.66699 -10 -16.334 -24 -35.001 -42l-75 -74l-44 44l159 158h65v-643h154v-60h-380z" />
    <glyph glyph-name="two" unicode="2" horiz-adv-x="576" 
d="M57 0c-2.66699 14 -4.00098 28.9971 -4.00098 44.9971c0 38.667 9 74.334 27 107.001s40.333 59.834 67 81.501s55.834 43.834 87.501 66.501l87.5 62.5c26.667 19 49 41.833 67 68.5s27 55 27 85c0 39.333 -13.5 71.666 -40.5 96.999s-62.167 38 -105.5 38
c-19.333 0 -38 -3.33301 -56 -10s-33 -14.834 -45 -24.501s-22.5 -19.167 -31.5 -28.5s-15.5 -17.333 -19.5 -24l-7 -10l-50 34l8 13.5c3.33301 5.66699 11.333 15.834 24 30.501s26.5 27.667 41.5 39s35 21.5 60 30.5s51.5 13.5 79.5 13.5
c64.667 0 116.5 -18.667 155.5 -56s58.5 -84.333 58.5 -141c0 -43.333 -12.333 -82.666 -37 -117.999s-54.667 -65.333 -90 -90l-105.5 -72.5c-35 -23.667 -65 -50.5 -90 -80.5s-37.5 -62.333 -37.5 -97h329v98h64v-158h-464z" />
    <glyph glyph-name="three" unicode="3" horiz-adv-x="561" 
d="M75 547v155.998h416v-49l-208 -241c24 -1.33301 47.667 -5.66602 71 -12.999s46.5 -18.5 69.5 -33.5s41.5 -36.167 55.5 -63.5s21 -59 21 -95c0 -60.667 -22.167 -112.5 -66.5 -155.5s-99.5 -64.5 -165.5 -64.5c-26 0 -51.333 3.33301 -76 10s-45.5 14.667 -62.5 24
s-32.167 18.666 -45.5 27.999s-23.333 17.333 -30 24l-9 10l42 51c5.33301 -6 13 -13.667 23 -23s30.667 -21.666 62 -36.999s63 -23 95 -23c43.333 0 81 14.667 113 44s48 66 48 110c0 46.667 -16.833 83.334 -50.5 110.001s-74.5 40 -122.5 40
c-6.66699 0 -13.5 -0.166992 -20.5 -0.5s-12.5 -0.833008 -16.5 -1.5h-7l-18 42l190 225l24 22v2c-13.333 -1.33301 -24.333 -2 -33 -2h-235v-96h-64z" />
    <glyph glyph-name="four" unicode="4" horiz-adv-x="586" 
d="M28 195v45l345 463h75v-449h100v-59h-100v-195h-69v195h-351zM357 578l-246.999 -322v-2h269v317l4 46h-3c-6.66699 -14 -14.334 -27 -23.001 -39z" />
    <glyph glyph-name="five" unicode="5" horiz-adv-x="555" 
d="M47 79l42.0029 49.001c1.33301 -2 3.5 -4.66699 6.5 -8s9.66699 -9.5 20 -18.5s21.333 -16.833 33 -23.5s27 -12.667 46 -18s38.5 -8 58.5 -8c49.333 0 91.166 16.167 125.499 48.5s51.5 70.833 51.5 115.5c0 50 -16.333 90.5 -49 121.5s-75 46.5 -127 46.5
c-22.667 0 -45 -3.33301 -67 -10s-38.333 -13.334 -49 -20.001l-16 -10l-44 16l38 343h343v-156h-63v96h-220l-23 -198l-5 -28h2c30.667 18 68.667 27 114 27c68 0 124.667 -21.333 170 -64s68 -95.667 68 -159c0 -64.667 -23.833 -119.667 -71.5 -165
s-106.167 -68 -175.5 -68c-26 0 -50.833 3.16699 -74.5 9.5s-43.334 13.833 -59.001 22.5s-29.334 17.5 -41.001 26.5s-20.167 16.833 -25.5 23.5z" />
    <glyph glyph-name="six" unicode="6" horiz-adv-x="589" 
d="M316 -12c-76.667 0 -138.166 30.832 -184.499 92.499s-69.5 140.167 -69.5 235.5c0 36.667 3.66699 73.334 11 110.001s19.166 72.5 35.499 107.5s36.333 65.833 60 92.5s53 48.167 88 64.5s73.5 24.5 115.5 24.5c22.667 0 44.667 -2.5 66 -7.5s37.333 -9.83301 48 -14.5
l15 -7l-26 -60c-29.333 16.667 -63.666 25 -102.999 25c-46.667 0 -87.5 -14.333 -122.5 -43s-61.333 -63.667 -79 -105s-28.5 -86.333 -32.5 -135h2c17.333 25.333 42.333 45.333 75 60s67.667 22 105 22c63.333 0 115.666 -21.167 156.999 -63.5s62 -96.833 62 -163.5
c0 -71.333 -21.333 -128.333 -64 -171s-95.667 -64 -159 -64zM137.001 263.999c0 -49.333 16.998 -97.001 50.998 -143.001s76.333 -69 127 -69c46.667 0 83.667 15.833 111 47.5s41 72.834 41 123.501c0 50 -14.667 90.167 -44 120.5s-68.666 45.5 -117.999 45.5
c-45.333 0 -84.666 -13 -117.999 -39s-50 -54.667 -50 -86z" />
    <glyph glyph-name="seven" unicode="7" horiz-adv-x="532" 
d="M114 0l301.999 612l19 31v2c-11.333 -1.33301 -23.666 -2 -36.999 -2h-294v-96h-63v156h471v-48l-326 -655h-72z" />
    <glyph glyph-name="eight" unicode="8" horiz-adv-x="595" 
d="M60 198c0 28 4.83301 54.166 14.5 78.499s22.5 44.833 38.5 61.5s28.333 28.667 37 36s17.667 14 27 20c-59.333 38.667 -89 86.334 -89 143.001c0 49.333 18.5 91.333 55.5 126s89.5 52 157.5 52c64.667 0 116.667 -16.667 156 -50s59 -77 59 -131
c0 -30.667 -7.33301 -62 -22 -94s-27 -54.167 -37 -66.5s-19.333 -22.833 -28 -31.5c68.667 -39.333 103 -90 103 -152c0 -55.333 -22.167 -102.833 -66.5 -142.5s-99.833 -59.5 -166.5 -59.5c-66 0 -122.333 19.5 -169 58.5s-70 89.5 -70 151.5zM158 536.999
c0 -14.667 3.33203 -28.668 9.99902 -42.001s14 -24.166 22 -32.499s20.667 -17.5 38 -27.5s31.333 -17.5 42 -22.5s27.834 -12.5 51.501 -22.5l50.5 -21c50 50 75 102.667 75 158c0 38.667 -13.5 69.167 -40.5 91.5s-62.167 33.5 -105.5 33.5c-44 0 -78.833 -11 -104.5 -33
s-38.5 -49.333 -38.5 -82zM130.999 202.998c0 -44.667 16.666 -81.168 49.999 -109.501s72.333 -42.5 117 -42.5c42.667 0 80.334 13.167 113.001 39.5s49 58.833 49 97.5c0 15.333 -3.16699 29.5 -9.5 42.5s-13.833 24 -22.5 33s-21.5 18.333 -38.5 28
s-32.167 17.334 -45.5 23.001l-55 23.5l-57 25c-67.333 -44.667 -101 -98 -101 -160z" />
    <glyph glyph-name="nine" unicode="9" horiz-adv-x="589" 
d="M50 480c0 71.333 21.3311 128.334 63.998 171.001s95.667 64 159 64c76 0 137.333 -30.833 184 -92.5s70 -140.167 70 -235.5c0 -46.667 -6.16699 -92.667 -18.5 -138s-30.333 -87.833 -54 -127.5s-56.167 -71.834 -97.5 -96.501s-88.333 -37 -141 -37
c-22.667 0 -44.667 2.33301 -66 7s-37 9.66699 -47 15l-15 7l26 60c29.333 -16.667 63.333 -25 102 -25c68.667 0 123.334 28.167 164.001 84.5s64.334 122.833 71.001 199.5h-2c-17.333 -24 -42.5 -43.333 -75.5 -58s-67.833 -22 -104.5 -22c-64 0 -116.5 21 -157.5 63
s-61.5 95.667 -61.5 161zM121.998 480.001c0 -48.667 14.667 -88.001 44 -118.001s68.333 -45 117 -45c45.333 0 84.833 12.833 118.5 38.5s50.5 53.834 50.5 84.501c0 49.333 -17.333 96.833 -52 142.5s-76.667 68.5 -126 68.5c-46.667 0 -83.667 -16 -111 -48
s-41 -73 -41 -123z" />
    <glyph glyph-name="colon" unicode=":" horiz-adv-x="298" 
d="M108 0v83h82v-83h-82zM108 420v83h82v-83h-82z" />
    <glyph glyph-name="semicolon" unicode=";" horiz-adv-x="297" 
d="M110 420v83h80v-83h-80zM55 -129l59 211h78l-78 -211h-59z" />
    <glyph glyph-name="less" unicode="&#x3c;" horiz-adv-x="606" 
d="M66 259v50l452 202v-67l-368 -159v-2l368 -159v-67z" />
    <glyph glyph-name="equal" unicode="=" horiz-adv-x="606" 
d="M70 342v58h466v-58h-466zM70 168v58h466v-58h-466z" />
    <glyph glyph-name="greater" unicode="&#x3e;" horiz-adv-x="606" 
d="M87 57v67l368 159v2l-368 159v67l452 -202v-50z" />
    <glyph glyph-name="question" unicode="?" horiz-adv-x="452" 
d="M162 184l-0.00195312 45c0 29.333 6 56 18 80s26.667 44.333 44 61l51.5 48.5c17 15.667 31.5 33.5 43.5 53.5s18 41.333 18 64c0 32.667 -12.333 60 -37 82s-56 33 -94 33c-20 0 -40.167 -3.5 -60.5 -10.5s-35.5 -13.833 -45.5 -20.5l-15 -11l-38 50
c4.66699 4 11.334 9.16699 20.001 15.5s27 14.833 55 25.5s56.667 16 86 16c58 0 105.833 -16.5 143.5 -49.5s56.5 -75.5 56.5 -127.5c0 -30.667 -6.16699 -58.334 -18.5 -83.001s-27.333 -45.167 -45 -61.5l-52.5 -47.5c-17.333 -15.333 -32.166 -33.166 -44.499 -53.499
s-18.5 -42.5 -18.5 -66.5v-43h-67zM155.998 0v79h79v-79h-79z" />
    <glyph glyph-name="at" unicode="@" horiz-adv-x="769" 
d="M48 243c0 102.667 34.833 189.332 104.5 259.999s157.5 106 263.5 106c76 0 133.833 -18.333 173.5 -55s59.5 -81.334 59.5 -134.001v-315h70v-56h-268c-57.333 0 -105 18.833 -143 56.5s-57 82.834 -57 135.501s19 97.834 57 135.501s85.667 56.5 143 56.5h130
c-1.33301 32.667 -16.333 60.5 -45 83.5s-69.334 34.5 -122.001 34.5c-84.667 0 -155.167 -30.167 -211.5 -90.5s-84.5 -133.5 -84.5 -219.5c0 -85.333 28.167 -157.5 84.5 -216.5s126.833 -88.5 211.5 -88.5v-60c-103.333 0 -190.166 35.5 -260.499 106.5
s-105.5 157.833 -105.5 260.5zM321 240.998c0 -37.333 13.166 -69.333 39.499 -96s58.5 -40 96.5 -40h124v275h-122c-39.333 0 -72.166 -13.5 -98.499 -40.5s-39.5 -59.833 -39.5 -98.5z" />
    <glyph glyph-name="A" unicode="A" horiz-adv-x="717" 
d="M11 0v58h72l237 645h77l237 -645h72v-58h-225v58h81l-67 181h-274l-66 -181h81v-58h-225zM240 298h235.999l-105 288l-11 45h-3c-1.33301 -14.667 -4.66602 -29.667 -9.99902 -45z" />
    <glyph glyph-name="B" unicode="B" horiz-adv-x="670" 
d="M54 0l0.000976562 57.999h92v587h-92v58h317c49.333 0 89.666 -8 120.999 -24c26 -12.667 46.833 -32.667 62.5 -60s23.5 -58.666 23.5 -93.999c0 -71.333 -30 -122 -90 -152v-2c36 -10.667 64.667 -31.667 86 -63s32 -68 32 -110c0 -42.667 -11 -80.5 -33 -113.5
s-50.667 -56.167 -86 -69.5c-26.667 -10 -61.667 -15 -105 -15h-328zM216.001 397.999l171 -0.000976562c35.333 0 64 11.333 86 34s33 52.334 33 89.001c0 48 -17 82.667 -51 104c-20 12 -48 18 -84 18h-155v-245zM216.001 59.998h168c30.667 0 55 3.66699 73 11
c24 10 42.833 26.333 56.5 49s20.5 49 20.5 79c0 42 -12.833 75.667 -38.5 101s-59.167 38 -100.5 38h-179v-278z" />
    <glyph glyph-name="C" unicode="C" horiz-adv-x="742" 
d="M54 356c0 102 34.165 187.335 102.498 256.002s152.833 103 253.5 103c24 0 49.833 -2.33301 77.5 -7s55.834 -12 84.501 -22s52.5 -24.667 71.5 -44s28.5 -41.666 28.5 -66.999v-75h-67v56c0 21.333 -11.333 39.666 -34 54.999s-48 26 -76 32s-55.333 9 -82 9
c-82 0 -150.167 -27.833 -204.5 -83.5s-81.5 -125.834 -81.5 -210.501c0 -88 27.5 -161.167 82.5 -219.5s124.167 -87.5 207.5 -87.5c16.667 0 35.334 1.66699 56.001 5s42.167 8.33301 64.5 15s41 16.667 56 30s22.5 28.666 22.5 45.999v55h67v-75
c0 -24 -9.16699 -45.5 -27.5 -64.5s-41.833 -33.667 -70.5 -44s-57.5 -18 -86.5 -23s-56.833 -7.5 -83.5 -7.5c-104 0 -190.167 35.5 -258.5 106.5s-102.5 158.167 -102.5 261.5z" />
    <glyph glyph-name="D" unicode="D" horiz-adv-x="776" 
d="M54 0v58h92v587h-92v58h297c60 0 110 -6 150 -18c67.333 -22 120.333 -62.167 159 -120.5s58 -129.5 58 -213.5c0 -85.333 -20 -157 -60 -215s-95.333 -97.667 -166 -119c-35.333 -11.333 -82.333 -17 -141 -17h-297zM216 60h128.999c49.333 0 91 5.66699 125 17
c54.667 18 97.5 50.667 128.5 98s46.5 106 46.5 176c0 69.333 -15 128 -45 176s-71.667 81.333 -125 100c-31.333 10.667 -74.666 16 -129.999 16h-129v-583z" />
    <glyph glyph-name="E" unicode="E" horiz-adv-x="626" 
d="M54 0v58h92v587h-92v58h497v-146h-64v86h-271v-259h266v-60h-266v-264h290v91h63v-151h-515z" />
    <glyph glyph-name="F" unicode="F" horiz-adv-x="567" 
d="M54 0v58h92v587h-92v58h473v-150h-63v88h-248v-265h257v-60h-257v-258h98v-58h-260z" />
    <glyph glyph-name="G" unicode="G" horiz-adv-x="767" 
d="M55 352c0 104.667 33.8311 191.332 101.498 259.999s155.5 103 263.5 103c42 0 82.833 -5.16699 122.5 -15.5s73.334 -26.333 101.001 -48s41.5 -46.5 41.5 -74.5v-77h-67v53c0 30.667 -20.333 54.834 -61 72.501s-86 26.5 -136 26.5c-88.667 0 -159.667 -28 -213 -84
s-80 -127.667 -80 -215s27 -159.5 81 -216.5s124.333 -85.5 211 -85.5c20 0 41.333 1.66699 64 5s45.834 8.5 69.501 15.5s43.167 17.667 58.5 32s23 30.833 23 49.5v110h-147v58h213v-184c0 -34 -16.667 -62.833 -50 -86.5s-70.333 -40 -111 -49s-81 -13.5 -121 -13.5
c-106.667 0 -194 34.5 -262 103.5s-102 155.833 -102 260.5z" />
    <glyph glyph-name="H" unicode="H" horiz-adv-x="839" 
d="M54 0v58h92v587h-92v58h254v-58h-92v-263h407v263h-92v58h254v-58h-92v-587h92v-58h-254v58h92v264h-407v-264h92v-58h-254z" />
    <glyph glyph-name="I" unicode="I" horiz-adv-x="362" 
d="M54 0v58h92v587h-92v58h254v-58h-92v-587h92v-58h-254z" />
    <glyph glyph-name="J" unicode="J" horiz-adv-x="546" 
d="M29 192v33.001h69v-25c0 -42.667 10.833 -78 32.5 -106s53.167 -42 94.5 -42c35.333 0 65.333 12 90 36s37 61.333 37 112v445h-107v58h259v-58h-82v-451c0 -69.333 -19.333 -121 -58 -155s-85 -51 -139 -51s-100.167 16.667 -138.5 50s-57.5 84.666 -57.5 153.999z" />
    <glyph glyph-name="K" unicode="K" horiz-adv-x="669" 
d="M54 0l0.000976562 58h92v587h-92v58h249v-58h-87v-248h103l172 248h-69v58h218v-58h-71l-194 -273v-2c10.667 -5.33301 22 -19 34 -41l144 -243c11.333 -18.667 28.666 -28 51.999 -28h35v-58h-53c-28 0 -48 3.5 -60 10.5s-24.333 21.167 -37 42.5l-147 253
c-12 20.667 -30.667 31 -56 31h-71v-279h91v-58h-253z" />
    <glyph glyph-name="L" unicode="L" horiz-adv-x="592" 
d="M54 0v58h92v585h-92v60h254v-60h-92v-583h281v117h64v-177h-507z" />
    <glyph glyph-name="M" unicode="M" horiz-adv-x="941" 
d="M36 0v58h92l47 587h-93v58h169l204 -460l14 -41h2c3.33301 12 8.33301 25.667 15 41l204 460h168v-58h-92l46 -587h92v-58h-251v58h90l-38 485l2 50h-2c-5.33301 -20 -10.333 -35.667 -15 -47l-187 -412h-65l-188 412l-14 47h-3l2 -50l-38 -485h90v-58h-251z" />
    <glyph glyph-name="N" unicode="N" horiz-adv-x="833" 
d="M54 0v58h92v587h-92v58h160l394 -555l21 -43h2l-3 49v491h-93v58h255v-58h-92v-645h-68l-394 555l-21 43h-2l3 -48v-492h93v-58h-255z" />
    <glyph glyph-name="O" unicode="O" horiz-adv-x="825" 
d="M54 356c0 100.667 34.667 185.667 104 255s154 104 254 104s184.833 -34.667 254.5 -104s104.5 -154.333 104.5 -255c0 -102.667 -34.833 -189.667 -104.5 -261s-154.5 -107 -254.5 -107c-99.333 0 -183.833 35.667 -253.5 107s-104.5 158.333 -104.5 261zM127 356
c0 -85.333 27.8311 -157.333 83.498 -216s122.834 -88 201.501 -88c79.333 0 146.833 29.333 202.5 88s83.5 130.667 83.5 216c0 83.333 -27.833 153.333 -83.5 210s-123.167 85 -202.5 85s-146.666 -28.333 -201.999 -85s-83 -126.667 -83 -210z" />
    <glyph glyph-name="P" unicode="P" horiz-adv-x="642" 
d="M54 0v58h92v587h-92v58h320c52.667 0 92.667 -6.66699 120 -20c34.667 -16 62.167 -40.667 82.5 -74s30.5 -72.333 30.5 -117c0 -48 -11.5 -89.833 -34.5 -125.5s-54.167 -60.5 -93.5 -74.5c-28 -9.33301 -62.667 -14 -104 -14h-159v-220h92v-58h-254zM216 338
l152 -0.000976562c34 0 62.333 4.66699 85 14c55.333 22.667 83 69.334 83 140.001c0 64 -24.333 108.667 -73 134c-26 11.333 -57.667 17 -95 17h-152v-305z" />
    <glyph glyph-name="Q" unicode="Q" horiz-adv-x="825" 
d="M54 355c0 101.333 34.501 186.666 103.501 255.999s153.5 104 253.5 104c101.333 0 186.666 -34.167 255.999 -102.5s104 -153.166 104 -254.499c0 -94.667 -29.333 -176 -88 -244l87 -87l-42 -43l-86 87c-64.667 -55.333 -141.667 -83 -231 -83
c-100 0 -184.5 35.667 -253.5 107s-103.5 158 -103.5 260zM127.001 355c0 -85.333 27.333 -157.167 82 -215.5s122 -87.5 202 -87.5c72 0 133 22 183 66l-107 109l41 43l107 -109c43.333 56.667 65 121.667 65 195c0 84 -27.667 154.167 -83 210.5s-124 84.5 -206 84.5
c-80.667 0 -148.167 -28.167 -202.5 -84.5s-81.5 -126.833 -81.5 -211.5z" />
    <glyph glyph-name="R" unicode="R" horiz-adv-x="686" 
d="M54 0l-0.000976562 58.002h92v587h-92v58h301c51.333 0 93 -5.33301 125 -16c76 -27.333 114 -86 114 -176c0 -52.667 -14 -96.834 -42 -132.501s-66 -57.834 -114 -66.501v-2c8.66699 -6 16.667 -15.667 24 -29l117 -200c5.33301 -9.33301 11.5 -15.5 18.5 -18.5
s17.5 -4.5 31.5 -4.5h20v-58h-38c-30 0 -50.5 3.16699 -61.5 9.5s-22.833 20.833 -35.5 43.5l-118 202c-9.33301 17.333 -19.166 28.833 -29.499 34.5s-26.833 8.5 -49.5 8.5h-101v-240h91v-58h-253zM215.999 358.002h165c42.667 0 77 13.5 103 40.5s39 62.833 39 107.5
c0 62.667 -25.667 104 -77 124c-23.333 8.66699 -54.333 13 -93 13h-137v-285z" />
    <glyph glyph-name="S" unicode="S" horiz-adv-x="566" 
d="M59 196l66.999 -0.00292969v-51c0 -28.667 15 -51.334 45 -68.001s66.333 -25 109 -25c46.667 0 84.5 11.167 113.5 33.5s43.5 53.5 43.5 93.5c0 18 -3.5 34.333 -10.5 49s-15 26.834 -24 36.501s-22.667 19.334 -41 29.001s-33.666 17.167 -45.999 22.5
s-30.5 12.333 -54.5 21l-46.5 18.5c-11 4.33301 -25.167 11 -42.5 20s-30.833 17.833 -40.5 26.5s-19.5 19.334 -29.5 32.001s-17.333 27.167 -22 43.5s-7 34.5 -7 54.5c0 58.667 20.333 103.834 61 135.501s91.667 47.5 153 47.5c54 0 101.333 -10 142 -30
s61 -46.667 61 -80v-75h-67v52c0 21.333 -14 38.166 -42 50.499s-59.333 18.5 -94 18.5c-42 0 -76.167 -10 -102.5 -30s-39.5 -48 -39.5 -84c0 -16.667 3.33301 -31.667 10 -45s13.667 -24.166 21 -32.499s20 -17.333 38 -27s31.667 -16.5 41 -20.5s26.333 -10.667 51 -20
c26.667 -10 47.167 -18 61.5 -24s32 -15.167 53 -27.5s36.833 -24.833 47.5 -37.5s20.167 -29.167 28.5 -49.5s12.5 -42.833 12.5 -67.5c0 -60.667 -21.5 -108.834 -64.5 -144.501s-97.833 -53.5 -164.5 -53.5c-56.667 0 -107.667 12.333 -153 37s-68 59.334 -68 104.001v67
z" />
    <glyph glyph-name="T" unicode="T" horiz-adv-x="654" 
d="M200 0v58h92v585h-197v-114h-63v174h590v-174h-64v114h-196v-585h92v-58h-254z" />
    <glyph glyph-name="U" unicode="U" horiz-adv-x="790" 
d="M125 259l0.000976562 385.999h-92v58h254v-58h-92v-385c0 -53.333 10.333 -96.333 31 -129c34 -52.667 90.333 -79 169 -79c80.667 0 137 27.333 169 82c20.667 35.333 31 78 31 128v383h-92v58h254v-58h-92v-386c0 -67.333 -15 -122.666 -45 -165.999
c-22.667 -34 -53.667 -60 -93 -78s-83.333 -27 -132 -27c-49.333 0 -93.833 9.16699 -133.5 27.5s-70.834 44.5 -93.501 78.5c-28.667 42 -43 97 -43 165z" />
    <glyph glyph-name="V" unicode="V" horiz-adv-x="705" 
d="M314 0l-230.001 645h-72v58h227v-58h-81l182 -521l11 -46h3c2.66699 16 6.33398 31.333 11.001 46l182 521h-80v58h227v-58h-73l-230 -645h-77z" />
    <glyph glyph-name="W" unicode="W" horiz-adv-x="1000" 
d="M17 645l0.000976562 58h227v-58h-84l126 -517l7 -46h4c2 16 5 31.333 9 46l161 575h65l162 -575l9 -46h4c1.33301 16 3.66602 31.333 6.99902 46l126 517h-84v58h227v-58h-72l-163 -645h-83l-155 553l-8 46h-4c-1.33301 -16.667 -4 -32 -8 -46l-156 -553h-82l-164 645
h-71z" />
    <glyph glyph-name="X" unicode="X" horiz-adv-x="645" 
d="M28 0l-0.000976562 58h70l183 297l-182 290h-68v58h224v-58h-80l136 -220l16 -26h2l1 3c1.33301 2 3.33301 5.33301 6 10s5.33398 9 8.00098 13l131 220h-77v58h219v-58h-69l-186 -298l183 -289h70v-58h-223v58h77l-135 219l-16 27h-2c-4 -8.66699 -9 -17.667 -15 -27
l-131 -219h78v-58h-220z" />
    <glyph glyph-name="Y" unicode="Y" horiz-adv-x="644" 
d="M195 0v58h92v244l-207 343h-69v58h222v-58h-78l152 -256l14 -27h2c4 9.33301 8.66699 18.333 14 27l153 256h-78v58h221v-58h-69l-207 -343v-244h92v-58h-254z" />
    <glyph glyph-name="Z" unicode="Z" horiz-adv-x="623" 
d="M57 0v49l386 561l28 33v2c-12.667 -1.33301 -25.667 -2 -39 -2h-307v-114h-63v174h494v-49l-386 -561l-28 -33v-2c12.667 1.33301 25.667 2 39 2h321v117h63v-177h-508z" />
    <glyph glyph-name="bracketleft" unicode="[" horiz-adv-x="297" 
d="M103 -95v825h135v-56h-72v-713h72v-56h-135z" />
    <glyph glyph-name="backslash" unicode="\" horiz-adv-x="409" 
d="M299 -42l-253 784h64l253 -784h-64z" />
    <glyph glyph-name="bracketright" unicode="]" horiz-adv-x="296" 
d="M57 -39h73v713h-73v56h136v-825h-136v56z" />
    <glyph glyph-name="asciicircum" unicode="^" horiz-adv-x="606" 
d="M73 250l198 453h47l199 -453h-66l-156 370l-156 -370h-66z" />
    <glyph glyph-name="underscore" unicode="_" horiz-adv-x="546" 
d="M15 0h516v-58h-516v58z" />
    <glyph glyph-name="grave" unicode="`" horiz-adv-x="504" 
d="M270 752l-113 119h87l98 -119h-72z" />
    <glyph glyph-name="a" unicode="a" horiz-adv-x="546" 
d="M38 138c0 113.333 100.998 170 302.998 170h33v21c0 84.667 -40.333 127 -121 127c-25.333 0 -50.166 -4 -74.499 -12s-42.5 -16 -54.5 -24l-17 -13l-32 51c5.33301 4 12.833 9.16699 22.5 15.5s30.167 14.833 61.5 25.5s64 16 98 16c123.333 0 185 -63 185 -189v-248
c0 -14.667 7.33301 -22 22 -22h55v-56h-82c-40 -0 -60 18.333 -60 55v9l3 39h-2c-1.33301 -3.33301 -3.16602 -7.5 -5.49902 -12.5s-8.33301 -14.167 -18 -27.5s-20.334 -25 -32.001 -35s-28 -19.167 -49 -27.5s-43.5 -12.5 -67.5 -12.5c-45.333 0 -84.666 13 -117.999 39
s-50 63 -50 111zM107.998 145c0 -27.333 9.66797 -51 29.001 -71s45.666 -30 78.999 -30c47.333 0 85.5 19.5 114.5 58.5s43.5 82.5 43.5 130.5v24h-29c-158 0 -237 -37.333 -237 -112z" />
    <glyph glyph-name="b" unicode="b" horiz-adv-x="596" 
d="M90 0v647h-90v56h158v-248l-3 -42h2l5.5 11c2.33301 4.66699 8.33301 12.834 18 24.501s20.5 22 32.5 31s28.333 17.167 49 24.5s43 11 67 11c66.667 0 119.834 -24.333 159.501 -73s59.5 -112.334 59.5 -191.001s-21.167 -142.167 -63.5 -190.5
s-96.833 -72.5 -163.5 -72.5c-22.667 0 -43.834 3.5 -63.501 10.5s-35.5 15.667 -47.5 26s-22.333 20.5 -31 30.5s-15 18.333 -19 25l-5 11h-2c2 -12 3 -26 3 -42v-49h-66zM156 250c0 -54.667 14 -101.833 42 -141.5s67.333 -59.5 118 -59.5c46 0 84.667 18.167 116 54.5
s47 85.5 47 147.5c0 60.667 -14.833 109.5 -44.5 146.5s-68.167 55.5 -115.5 55.5c-46 0 -84.667 -17 -116 -51s-47 -84.667 -47 -152z" />
    <glyph glyph-name="c" unicode="c" horiz-adv-x="550" 
d="M46 250c0 77.333 25.332 140.832 75.999 190.499s113 74.5 187 74.5c17.333 0 36 -1.83301 56 -5.5s40.167 -9.5 60.5 -17.5s37 -19.5 50 -34.5s19.5 -32.167 19.5 -51.5v-55h-63v37c0 20.667 -13.333 36.834 -40 48.501s-54 17.5 -82 17.5
c-56 0 -102.333 -18.667 -139 -56s-55 -86 -55 -146c0 -60.667 19 -109.667 57 -147s84.667 -56 140 -56c13.333 0 26.5 1.16699 39.5 3.5s24.667 5.33301 35 9s19.833 7.66699 28.5 12s16.667 9.16602 24 14.499l18 13.5c4.66699 3.66699 9 7.33398 13 11.001
s6.33301 5.5 7 5.5l29 -52c-57.333 -52 -122.666 -78 -195.999 -78c-74 0 -136.667 24.167 -188 72.5s-77 111.5 -77 189.5z" />
    <glyph glyph-name="d" unicode="d" horiz-adv-x="618" 
d="M48 251c0 79.333 20.998 143.169 62.998 191.502s96.667 72.5 164 72.5c22.667 0 43.667 -3.33301 63 -10s35 -14.834 47 -24.501s22.167 -19.334 30.5 -29.001s14.5 -17.834 18.5 -24.501l5 -10h2c-2 11.333 -3 24.333 -3 39v191h-90v56h158v-625
c0 -14.667 7.33301 -22 22 -22h56v-56h-83c-40 0 -60 18.333 -60 55v9l4 31h-2l-5.5 -11.5c-2.33301 -5 -8.33301 -13.667 -18 -26s-20.667 -23.166 -33 -32.499s-29.166 -17.833 -50.499 -25.5s-44.666 -11.5 -69.999 -11.5c-66.667 0 -119.667 24.167 -159 72.5
s-59 111.833 -59 190.5zM117.998 251.003c0 -61.333 14.6689 -110.333 44.002 -147s67.666 -55 114.999 -55c46 0 84.667 17 116 51s47 84.333 47 151c0 55.333 -13.833 102.833 -41.5 142.5s-66.834 59.5 -117.501 59.5c-46.667 0 -85.5 -18.167 -116.5 -54.5
s-46.5 -85.5 -46.5 -147.5z" />
    <glyph glyph-name="e" unicode="e" horiz-adv-x="552" 
d="M47 251c0 80 23.835 144 71.502 192s106.5 72 176.5 72c66.667 0 118.5 -22.167 155.5 -66.5s55.5 -99.5 55.5 -165.5l-3 -32h-386c1.33301 -62.667 20.666 -112 57.999 -148s83 -54 137 -54c27.333 0 53.666 5 78.999 15s44 20 56 30l18 15l31 -51
c-5.33301 -5.33301 -13 -11.833 -23 -19.5s-31.167 -18 -63.5 -31s-65.5 -19.5 -99.5 -19.5c-75.333 0 -138 24.667 -188 74s-75 112.333 -75 189zM120.002 301h315c-2 50.667 -16.333 89.5 -43 116.5s-59.667 40.5 -99 40.5c-43.333 0 -81 -13.833 -113 -41.5
s-52 -66.167 -60 -115.5z" />
    <glyph glyph-name="f" unicode="f" horiz-adv-x="355" 
d="M46 0l-0.000976562 56h85v391h-90v56h90v26c0 37.333 5.83301 68.833 17.5 94.5s27 44.167 46 55.5s36.333 19 52 23s31.834 6 48.501 6l41 -3v-59c-8.66699 2 -20 3 -34 3c-10.667 0 -21 -1.33301 -31 -4s-21 -7.66699 -33 -15s-21.5 -19.5 -28.5 -36.5
s-10.5 -38.167 -10.5 -63.5v-27h128v-56h-128v-391h100v-56h-253z" />
    <glyph glyph-name="g" unicode="g" horiz-adv-x="612" 
d="M120 -115c41.333 -23.333 86.667 -34.999 136 -34.999c52.667 0 95.167 13 127.5 39s48.5 66 48.5 120v50l3 36h-2c-32.667 -61.333 -86 -92 -160 -92c-67.333 0 -121.5 24 -162.5 72s-61.5 110 -61.5 186s19.667 137.333 59 184s92.333 70 159 70
c38 0 72.5 -7.5 103.5 -22.5s52.833 -37.167 65.5 -66.5h2c-1.33301 4.66699 -2 12 -2 22c0 18.667 4.33301 32.5 13 41.5s23.667 13.5 45 13.5h90v-56h-62c-14.667 0 -22 -7 -22 -21v-414c0 -74.667 -23.167 -130.334 -69.5 -167.001s-103.833 -55 -172.5 -55
c-57.333 0 -112 13.333 -164 40zM283.001 64.001c44.667 0 80.833 15.5 108.5 46.5s41.5 81.167 41.5 150.5c0 128.667 -53 193 -159 193c-48.667 0 -86.667 -17 -114 -51s-41 -81 -41 -141s15 -108 45 -144s69.667 -54 119 -54z" />
    <glyph glyph-name="h" unicode="h" horiz-adv-x="658" 
d="M30 0l0.000976562 56h85v591h-90v56h158v-276l-4 -41h2c13.333 30.667 37.666 59.834 72.999 87.501s78.333 41.5 129 41.5c60 0 103 -16.333 129 -49s39 -81.334 39 -146.001v-264h86v-56h-154v302c0 47.333 -7.16699 84 -21.5 110s-43.5 39 -87.5 39
c-54 0 -99.333 -20 -136 -60s-55 -90 -55 -150v-185h85v-56h-238z" />
    <glyph glyph-name="i" unicode="i" horiz-adv-x="314" 
d="M127 618v85h77v-85h-77zM46 0v56h85v391h-90v56h158v-447h85v-56h-238z" />
    <glyph glyph-name="j" unicode="j" horiz-adv-x="274" 
d="M111 618v85h77v-85h-77zM-21 -145c6 -1.33301 13.334 -2 22.001 -2c12 0 23.667 1.5 35 4.5s23.5 8.5 36.5 16.5s23.5 21.333 31.5 40s12 41.667 12 69v464h-90v56h158v-521c0 -32 -4.33301 -59.833 -13 -83.5s-19.334 -42 -32.001 -55s-27.667 -23.333 -45 -31
s-32.5 -12.667 -45.5 -15s-26.5 -3.5 -40.5 -3.5l-29 3v58z" />
    <glyph glyph-name="k" unicode="k" horiz-adv-x="560" 
d="M30 0l-0.00195312 56.002h85v591h-90v56h158v-396h79l119 140h-72v56h216v-56h-70l-138 -160v-2c0.666992 0 2.33398 -0.833008 5.00098 -2.5s6.83398 -5.83398 12.501 -12.501s11.5 -15 17.5 -25l100 -168c5.33301 -8.66699 10.833 -14.334 16.5 -17.001
s15.5 -4 29.5 -4h34v-56h-56c-24.667 0 -42.334 3.16699 -53.001 9.5s-22 19.833 -34 40.5l-107 181c-9.33301 14 -25.666 21 -48.999 21h-50v-196h80v-56h-233z" />
    <glyph glyph-name="l" unicode="l" horiz-adv-x="271" 
d="M89 126v521h-89v56h157v-572c0 -50 19 -75 57 -75l28 2v-58c-12.667 -2 -25.667 -3 -39 -3c-76 0 -114 43 -114 129z" />
    <glyph glyph-name="m" unicode="m" horiz-adv-x="996" 
d="M46 0l0.000976562 56.002h85v369c0 14.667 -7.33301 22 -22 22h-68v56h96c40.667 0 61 -18.667 61 -56v-29l-4 -36h2c13.333 35.333 38.166 66.333 74.499 93s73.833 40 112.5 40c88 0 139 -42.667 153 -128h2c14.667 35.333 39.167 65.5 73.5 90.5
s71.833 37.5 112.5 37.5c58.667 0 101 -16.333 127 -49s39 -81.334 39 -146.001v-264h85v-56h-153v303c0 47.333 -7.5 84.166 -22.5 110.499s-43.5 39.5 -85.5 39.5c-48.667 0 -89 -21.667 -121 -65s-48 -92.333 -48 -147v-185h85v-56h-153v303
c0 22 -1.16699 40.667 -3.5 56s-6.83301 30.833 -13.5 46.5s-17.5 27.5 -32.5 35.5s-33.833 12 -56.5 12c-49.333 0 -90.333 -21.833 -123 -65.5s-49 -93.167 -49 -148.5v-183h85v-56h-238z" />
    <glyph glyph-name="n" unicode="n" horiz-adv-x="674" 
d="M46 0v56.001h85v369c0 14.667 -7.33301 22 -22 22h-68v56h96c40.667 0 61 -18.667 61 -56v-29l-4 -36h2c4 11.333 11 23.833 21 37.5s23 28 39 43s36.833 27.5 62.5 37.5s53.167 15 82.5 15c60 0 102.833 -16.333 128.5 -49s38.5 -81.334 38.5 -146.001v-264h85v-56h-153
v302c0 47.333 -7.33301 84 -22 110s-44 39 -88 39c-54.667 0 -100.167 -20.667 -136.5 -62s-54.5 -90.333 -54.5 -147v-186h85v-56h-238z" />
    <glyph glyph-name="o" unicode="o" horiz-adv-x="621" 
d="M45 254c0 74 25.833 136 77.5 186s114.167 75 187.5 75c74 0 136.833 -25 188.5 -75s77.5 -112 77.5 -186c0 -75.333 -25.833 -138.5 -77.5 -189.5s-114.5 -76.5 -188.5 -76.5c-73.333 0 -135.833 25.5 -187.5 76.5s-77.5 114.167 -77.5 189.5zM115 254
c0 -58 19 -106.667 57 -146s84 -59 138 -59c54.667 0 101 19.667 139 59s57 88 57 146c0 56.667 -19 104.167 -57 142.5s-84.333 57.5 -139 57.5c-54 0 -100 -19.167 -138 -57.5s-57 -85.833 -57 -142.5z" />
    <glyph glyph-name="p" unicode="p" horiz-adv-x="623" 
d="M31 -144l85.001 0.000976562v569c0 14.667 -7.33301 22 -22 22h-68v56h95c40 0 60 -17.667 60 -53v-4l-3 -35h2l5.5 11c2.33301 4.66699 8.33301 13 18 25s20.5 22.667 32.5 32s28.667 17.666 50 24.999s44.666 11 69.999 11c66.667 0 119.834 -24.333 159.501 -73
s59.5 -112.334 59.5 -191.001s-21.167 -142.167 -63.5 -190.5s-96.5 -72.5 -162.5 -72.5c-22.667 0 -43.834 3.5 -63.501 10.5s-35.5 15.333 -47.5 25s-22.333 19.334 -31 29.001s-15 18.167 -19 25.5l-5 10h-2c2 -12 3 -26.667 3 -44v-188h85v-56h-238v56zM183.001 250.001
c0 -54 14.332 -101 42.999 -141s67.334 -60 116.001 -60c46 0 84.667 18.167 116 54.5s47 85.5 47 147.5c0 60.667 -14.833 109.5 -44.5 146.5s-68.167 55.5 -115.5 55.5c-46 0 -84.5 -17 -115.5 -51s-46.5 -84.667 -46.5 -152z" />
    <glyph glyph-name="q" unicode="q" horiz-adv-x="596" 
d="M48 252c0 78.667 21 142.167 63 190.5s96.333 72.5 163 72.5c13.333 0 26.333 -1.33301 39 -4s23.834 -6 33.501 -10s19 -9 28 -15s16.667 -11.833 23 -17.5s12.333 -11.667 18 -18s10 -11.5 13 -15.5s5.83301 -8.33301 8.5 -13l4 -6h2c-2 10.667 -3 23 -3 37v50h66v-647
h85v-56h-238v56h85v190l4 44h-2l-5.5 -11c-2.33301 -4.66699 -8.33301 -12.834 -18 -24.501s-20.5 -22 -32.5 -31s-28.5 -17.167 -49.5 -24.5s-43.5 -11 -67.5 -11c-66.667 0 -119.834 24.333 -159.501 73s-59.5 112.334 -59.5 191.001zM118 252
c0 -61.333 14.668 -110.5 44.001 -147.5s67.666 -55.5 114.999 -55.5c46 0 84.667 17 116 51s47 84.667 47 152c0 55.333 -14 102.833 -42 142.5s-67.333 59.5 -118 59.5c-46 0 -84.5 -18.333 -115.5 -55s-46.5 -85.667 -46.5 -147z" />
    <glyph glyph-name="r" unicode="r" horiz-adv-x="399" 
d="M51 0l0.000976562 56h78v369c0 14.667 -7.33301 22 -22 22h-68v56h95c40.667 0 61 -19 61 -57v-34l-2 -38h2c13.333 40 33.833 72.333 61.5 97s60.167 37 97.5 37l28 -3v-67c-8.66699 1.33301 -17.334 2 -26.001 2c-35.333 0 -65.5 -12.333 -90.5 -37
s-42.667 -53.5 -53 -86.5s-15.5 -67.5 -15.5 -103.5v-157h78v-56h-224z" />
    <glyph glyph-name="s" unicode="s" horiz-adv-x="470" 
d="M45 107l-0.000976562 48.999h62v-36c0 -23.333 13.5 -41.333 40.5 -54s57.167 -19 90.5 -19s61.333 7 84 21s34 33.333 34 58c0 30.667 -21.333 56 -64 76c-10.667 5.33301 -34.667 15 -72 29c-23.333 8.66699 -42.5 16.5 -57.5 23.5s-31 16.5 -48 28.5
s-29.667 26.167 -38 42.5s-12.5 34.833 -12.5 55.5c0 43.333 17.333 76.5 52 99.5s75.334 34.5 122.001 34.5c40.667 0 78.667 -8.5 114 -25.5s53 -41.167 53 -72.5v-58h-62v37c0 18 -10.167 32.5 -30.5 43.5s-44.5 16.5 -72.5 16.5c-30 0 -55.167 -6.33301 -75.5 -19
s-30.5 -30.667 -30.5 -54c0 -17.333 6.83301 -32.833 20.5 -46.5s27.667 -23.667 42 -30s35.833 -14.833 64.5 -25.5l48 -18c12 -4.66699 26.333 -11.667 43 -21s29.5 -18.666 38.5 -27.999s17 -21.333 24 -36s10.5 -30.667 10.5 -48c0 -43.333 -17.5 -77.833 -52.5 -103.5
s-80.833 -38.5 -137.5 -38.5c-50 0 -94.167 10.667 -132.5 32s-57.5 50.333 -57.5 87z" />
    <glyph glyph-name="t" unicode="t" horiz-adv-x="339" 
d="M108 183l0.000976562 263.998h-90v56h91v139h67v-139h127v-56h-127v-258c0 -28 4 -51.5 12 -70.5s18.333 -32.667 31 -41s24.667 -14.166 36 -17.499s23 -5 35 -5l23 2v-59c-8 -1.33301 -17.667 -2 -29 -2c-14 0 -27.667 1 -41 3s-28.5 6.83301 -45.5 14.5
s-31.833 17.834 -44.5 30.501s-23.334 31 -32.001 55s-13 52 -13 84z" />
    <glyph glyph-name="u" unicode="u" horiz-adv-x="651" 
d="M107 183l0.00292969 264.003h-90v56h158v-303c0 -22.667 1.16699 -41.834 3.5 -57.501s7.16602 -31 14.499 -46s18.666 -26.333 33.999 -34s34.666 -11.5 57.999 -11.5c54.667 0 99.167 21.167 133.5 63.5s51.5 92.166 51.5 149.499v183h-90v56h158v-426
c0 -14.667 7.33301 -22 22 -22h57v-55h-85c-40 0 -60 18.667 -60 56v25l1 36h-2c-4 -11.333 -10.667 -23.5 -20 -36.5s-21.833 -26.833 -37.5 -41.5s-35.834 -26.834 -60.501 -36.501s-51.667 -14.5 -81 -14.5c-57.333 0 -99.166 16 -125.499 48s-39.5 81 -39.5 147z" />
    <glyph glyph-name="v" unicode="v" horiz-adv-x="563" 
d="M8 447v56h208v-56h-72l126 -337l10 -39h3c2 14 5.33301 27 10 39l126 337h-72v56h208v-56h-66l-171 -447h-73l-171 447h-66z" />
    <glyph glyph-name="w" unicode="w" horiz-adv-x="851" 
d="M10 447l0.000976562 56h208v-56h-75l105 -338l8 -39h2c2 14 4.66699 27 8 39l126 392h67l126 -392l8 -39h2c1.33301 14 3.66602 27 6.99902 39l106 338h-75v56h208v-56h-65l-143 -447h-73l-124 377l-9 40h-3c-2 -14.667 -5 -28 -9 -40l-124 -377h-74l-143 447h-64z" />
    <glyph glyph-name="x" unicode="x" horiz-adv-x="553" 
d="M29 0v56h80l129 205l-118 186h-86v56h127l101 -166l16 -29h2c4.66699 10 10 20 16 30l103 165h122v-56h-83l-119 -186l131 -205h76v-56h-118l-113 185l-17 29h-2c-4 -10 -9.33301 -20 -16 -30l-112 -184h-119z" />
    <glyph glyph-name="y" unicode="y" horiz-adv-x="574" 
d="M63 -126c19.333 -16 41.6689 -23.999 67.002 -23.999c40.667 0 72.667 26.667 96 80l28 67l-180 450h-66v56h211v-56h-73l132 -343l8 -36h3c2 11.333 5.33301 23.333 10 36l132 343h-73v56h208v-56h-66l-214 -540c-14.667 -36.667 -35.334 -65.334 -62.001 -86.001
s-57.334 -31 -92.001 -31c-16.667 0 -33 2.5 -49 7.5s-27.667 9.83301 -35 14.5l-11 8z" />
    <glyph glyph-name="z" unicode="z" horiz-adv-x="515" 
d="M49 48l299 370l26 28v2c-12 -0.666992 -24.667 -1 -38 -1h-218v-89h-62v145h404v-49l-299 -369l-26 -28v-2c12.667 0.666992 25.667 1 39 1h227v89h62v-145h-414v48z" />
    <glyph glyph-name="braceleft" unicode="{" horiz-adv-x="320" 
d="M121 83l-0.000976562 95.0059c0 30.667 -7.16699 55.5 -21.5 74.5s-28.5 30.167 -42.5 33.5l-21 6v62c2 0 5 0.5 9 1.5s10.833 4 20.5 9s18.334 11.167 26.001 18.5s14.5 18.666 20.5 33.999s9 32.666 9 51.999v82c0 31.333 4 58.666 12 81.999s17.5 40.833 28.5 52.5
s24 21.167 39 28.5s27.667 11.833 38 13.5s20.5 2.5 30.5 2.5h16v-56h-10c-8.66699 0 -17 -1.16699 -25 -3.5s-17.667 -7.33301 -29 -15s-20.333 -20.5 -27 -38.5s-10 -40.667 -10 -68v-98c0 -18 -2.66699 -34.833 -8 -50.5s-12 -28 -20 -37s-16 -16.667 -24 -23
s-14.667 -10.5 -20 -12.5l-8 -4v-2c2 -0.666992 4.83301 -1.83398 8.5 -3.50098s10.167 -5.66699 19.5 -12s17.5 -13.833 24.5 -22.5s13.333 -20.834 19 -36.501s8.5 -33.167 8.5 -52.5v-110c0 -27.333 3.33301 -50 10 -68s15.667 -30.833 27 -38.5s21 -12.667 29 -15
s16.333 -3.5 25 -3.5h10v-56c-4 -0.666992 -9.33301 -1 -16 -1c-10 0 -20.167 0.833008 -30.5 2.5s-23 6.16699 -38 13.5s-28 17 -39 29s-20.5 29.667 -28.5 53s-12 50.666 -12 81.999z" />
    <glyph glyph-name="bar" unicode="|" horiz-adv-x="263" 
d="M100 -157v945h63v-945h-63z" />
    <glyph glyph-name="braceright" unicode="}" horiz-adv-x="320" 
d="M34 -40l10.001 -0.00683594c8.66699 0 17.167 1.16699 25.5 3.5s18 7.33301 29 15s20 20.5 27 38.5s10.5 40.667 10.5 68v110c0 19.333 2.66699 36.833 8 52.5s12 27.834 20 36.501s16 16.167 24 22.5s14.667 10.5 20 12.5l8 3v2
c-2 0.666992 -4.83301 1.83398 -8.5 3.50098s-10.167 6 -19.5 13s-17.5 14.833 -24.5 23.5s-13.333 20.834 -19 36.501s-8.5 32.5 -8.5 50.5v98c0 27.333 -3.5 50 -10.5 68s-16 30.833 -27 38.5s-20.667 12.667 -29 15s-16.833 3.5 -25.5 3.5h-10v56h16
c10.667 0 21.167 -0.833008 31.5 -2.5s23 -6 38 -13s28 -16.5 39 -28.5s20.5 -29.667 28.5 -53s12 -50.666 12 -81.999v-82c0 -19.333 3 -36.666 9 -51.999s13.167 -26.666 21.5 -33.999s16.5 -13.5 24.5 -18.5s15 -7.83301 21 -8.5l9 -2v-62c-2 0 -5 -0.5 -9 -1.5
s-10.833 -4 -20.5 -9s-18.334 -11.167 -26.001 -18.5s-14.5 -18.5 -20.5 -33.5s-9 -32.167 -9 -51.5v-95c0 -31.333 -4 -58.666 -12 -81.999s-17.5 -41 -28.5 -53s-24 -21.667 -39 -29s-27.667 -11.833 -38 -13.5s-20.833 -2.5 -31.5 -2.5l-16 1v56z" />
    <glyph glyph-name="asciitilde" unicode="~" horiz-adv-x="602" 
d="M75 209c0 52.667 11.167 91.667 33.5 117s53.166 38 92.499 38c24.667 0 46.5 -5.33301 65.5 -16s33.667 -22.667 44 -36s23.333 -25.333 39 -36s32.834 -16 51.501 -16c26.667 0 45.167 10.333 55.5 31s15.5 43.667 15.5 69h58c0 -52.667 -11.167 -91.667 -33.5 -117
s-53.166 -38 -92.499 -38c-24.667 0 -46.5 5.5 -65.5 16.5s-33.667 22.833 -44 35.5s-23.333 24.5 -39 35.5s-32.834 16.5 -51.501 16.5c-26.667 0 -45.167 -10.333 -55.5 -31s-15.5 -43.667 -15.5 -69h-58z" />
    <glyph glyph-name="uni00A0" unicode="&#xa0;" horiz-adv-x="271" 
 />
    <glyph glyph-name="exclamdown" unicode="&#xa1;" horiz-adv-x="224" 
d="M72 424v79h78v-79h-78zM77 -200l3 519h64l3 -519h-70z" />
    <glyph glyph-name="cent" unicode="&#xa2;" horiz-adv-x="549" 
d="M257 -13l-0.00195312 84.998c-66.667 7.33301 -118.334 36.833 -155.001 88.5s-55 115.5 -55 191.5c0 75.333 18.333 138.833 55 190.5s88.334 81.167 155.001 88.5v84h56v-84c84 -9.33301 146.333 -58.666 187 -147.999l-64 -24c-33.333 72 -82.666 108 -147.999 108
c-55.333 0 -97.666 -20 -126.999 -60s-44 -91.667 -44 -155c0 -64 14.5 -115.833 43.5 -155.5s71.5 -59.5 127.5 -59.5c66 0 115.333 35.667 148 107l64 -24c-42.667 -91.333 -105 -140.666 -187 -147.999v-85h-56z" />
    <glyph glyph-name="sterling" unicode="&#xa3;" horiz-adv-x="608" 
d="M45 0l-0.000976562 58.999h88v267h-66v55h66v149c0 52.667 19.5 96.667 58.5 132s88.5 53 148.5 53c28 0 55 -4.66699 81 -14s45 -18.666 57 -27.999l18 -14l-41 -50c-33.333 28 -71.666 42 -114.999 42c-42.667 0 -76.167 -12 -100.5 -36s-36.5 -53.667 -36.5 -89v-145
h190v-55h-190v-266h293v117h64v-177h-515z" />
    <glyph glyph-name="yen" unicode="&#xa5;" horiz-adv-x="624" 
d="M115 211v50.999h163v39l-28 49h-135v51h106l-175 302h79l143 -250l43 -89h2c14.667 32.667 29 62.334 43 89.001l144 250h79l-176 -302h105v-51h-133l-27 -49v-39h160v-51h-160v-211h-70v211h-163z" />
    <glyph glyph-name="section" unicode="&#xa7;" horiz-adv-x="403" 
d="M137 85l-68.998 434c-2.66699 16 -4 27.667 -4 35c0 46.667 16 85.167 48 115.5s73.667 45.5 125 45.5c20.667 0 40.667 -3.5 60 -10.5s33.666 -13.833 42.999 -20.5l13 -11l-36 -47c-22.667 19.333 -49.334 29 -80.001 29c-32 0 -58.5 -9.5 -79.5 -28.5
s-31.5 -45.167 -31.5 -78.5c0 -6.66699 1.33301 -16.667 4 -30l66 -433h-59zM52.002 -20l34.001 48c23.333 -20 50.666 -30 81.999 -30s57.333 9.83301 78 29.5s31 46.167 31 79.5c0 14 -1 24.667 -3 32l-66 429h60l68 -434c2.66699 -11.333 4 -23 4 -35
c0 -46.667 -16 -85.167 -48 -115.5s-73.667 -45.5 -125 -45.5c-20 0 -39.667 3.5 -59 10.5s-33.333 14.167 -42 21.5z" />
    <glyph glyph-name="dieresis" unicode="&#xa8;" horiz-adv-x="504" 
d="M309 785v86h69v-86h-69zM126 785v86h69v-86h-69z" />
    <glyph glyph-name="copyright" unicode="&#xa9;" horiz-adv-x="810" 
d="M50 352c0 100.667 34.5 186.334 103.5 257.001s152.167 106 249.5 106c99.333 0 183.833 -35.333 253.5 -106s104.5 -156.334 104.5 -257.001c0 -102 -34.667 -188.167 -104 -258.5s-154 -105.5 -254 -105.5c-98 0 -181.333 35.333 -250 106s-103 156.667 -103 258z
M109 352c0 -87.333 28.333 -160.833 85 -220.5s126.334 -89.5 209.001 -89.5c84.667 0 155.834 29.833 213.501 89.5s86.5 133.167 86.5 220.5c0 86.667 -28.833 159.834 -86.5 219.501s-128.834 89.5 -213.501 89.5c-82.667 0 -152.334 -29.833 -209.001 -89.5
s-85 -132.834 -85 -219.501zM207 350c0 56 18.667 104.331 56 144.998s87.333 61 150 61c20.667 0 40.334 -3.16699 59.001 -9.5s34 -14.166 46 -23.499s22.667 -18.5 32 -27.5s16 -16.833 20 -23.5l6 -9l-46 -31l-5 7.5c-2 3 -6.66699 8.5 -14 16.5s-15.166 15 -23.499 21
s-19 11.5 -32 16.5s-26.5 7.5 -40.5 7.5c-46 0 -82.333 -14.667 -109 -44s-40 -64.666 -40 -105.999s13.167 -76.666 39.5 -105.999s62.833 -44 109.5 -44c22 0 42.667 5.83301 62 17.5s33 23.167 41 34.5l12 17l46 -31c-1.33301 -2.66699 -3.5 -6 -6.5 -10
s-9.5 -11.333 -19.5 -22s-20.833 -20.167 -32.5 -28.5s-26.834 -15.833 -45.501 -22.5s-38.334 -10 -59.001 -10c-63.333 0 -113.5 20.167 -150.5 60.5s-55.5 88.166 -55.5 143.499z" />
    <glyph glyph-name="ordfeminine" unicode="&#xaa;" horiz-adv-x="429" 
d="M193 382c-29.333 0 -55.0029 8.33301 -77.0029 25s-33 40 -33 70c0 74 64 111 192 111h12v4c0 49.333 -23.333 74 -70 74c-13.333 0 -27.166 -2.33301 -41.499 -7s-25.166 -9.66699 -32.499 -15l-11 -7l-25 39c28.667 24.667 67 37 115 37
c39.333 0 69.166 -10.5 89.499 -31.5s30.5 -51.5 30.5 -91.5v-202h-53v49h-2c-2 -4 -5.16699 -9 -9.5 -15s-14.666 -14.167 -30.999 -24.5s-34.166 -15.5 -53.499 -15.5zM200.997 430c25.333 0 46 10.832 62 32.499s24 45.834 24 72.501v9h-13
c-89.333 0 -134 -20.667 -134 -62c0 -14.667 5.33301 -27 16 -37s25.667 -15 45 -15zM81.9971 263.999v47h263v-47h-263z" />
    <glyph glyph-name="guillemotleft" unicode="&#xab;" horiz-adv-x="527" 
d="M229 282l164 206h74l-164 -206l164 -205h-74zM213 77l-164 205l164 206h74l-164 -206l164 -205h-74z" />
    <glyph glyph-name="logicalnot" unicode="&#xac;" horiz-adv-x="596" 
d="M58 342v58h466v-242h-60v184h-406z" />
    <glyph glyph-name="uni00AD" unicode="&#xad;" horiz-adv-x="491" 
d="M104 253v62h283v-62h-283z" />
    <glyph glyph-name="registered" unicode="&#xae;" horiz-adv-x="810" 
d="M50 352c0 100.667 34.5 186.334 103.5 257.001s152.167 106 249.5 106c99.333 0 183.833 -35.333 253.5 -106s104.5 -156.334 104.5 -257.001c0 -102 -34.667 -188.167 -104 -258.5s-154 -105.5 -254 -105.5c-98 0 -181.333 35.333 -250 106s-103 156.667 -103 258z
M109 352c0 -87.333 28.333 -160.833 85 -220.5s126.334 -89.5 209.001 -89.5c84.667 0 155.834 29.833 213.501 89.5s86.5 133.167 86.5 220.5c0 86.667 -28.833 159.834 -86.5 219.501s-128.834 89.5 -213.501 89.5c-82.667 0 -152.334 -29.833 -209.001 -89.5
s-85 -132.834 -85 -219.501zM285 157l-0.000976562 389.998h139c34.667 0 62.834 -10.667 84.501 -32s32.5 -49.333 32.5 -84c0 -27.333 -7.16699 -50.166 -21.5 -68.499s-31.5 -29.833 -51.5 -34.5v-2c2.66699 -3.33301 7 -10.666 13 -21.999l75 -147h-62l-78 158h-75v-158
h-56zM340.999 358.998l73 -0.000976562c21.333 0 38.166 6.33301 50.499 19s18.5 30.334 18.5 53.001c0 22 -6.16699 39 -18.5 51s-29.166 18 -50.499 18h-73v-141z" />
    <glyph glyph-name="macron" unicode="&#xaf;" horiz-adv-x="504" 
d="M129 785v55h246v-55h-246z" />
    <glyph glyph-name="degree" unicode="&#xb0;" horiz-adv-x="379" 
d="M189 436c-38.667 0 -71.6689 13.5 -99.002 40.5s-41 59.833 -41 98.5c0 38 13.667 70.667 41 98s60.333 41 99 41s71.834 -13.667 99.501 -41s41.5 -60 41.5 -98c0 -38.667 -13.667 -71.5 -41 -98.5s-60.666 -40.5 -99.999 -40.5zM188.998 492
c22.667 0 41.834 8 57.501 24s23.5 35.667 23.5 59c0 22.667 -7.83301 42.167 -23.5 58.5s-34.834 24.5 -57.501 24.5s-41.834 -8.16699 -57.501 -24.5s-23.5 -35.833 -23.5 -58.5c0 -23.333 7.83301 -43 23.5 -59s34.834 -24 57.501 -24z" />
    <glyph glyph-name="plusminus" unicode="&#xb1;" horiz-adv-x="606" 
d="M42 255v58h231v255h61v-255h230v-58h-230v-255h-61v255h-231zM60 -104h486v-58h-486v58z" />
    <glyph glyph-name="twosuperior" unicode="&#xb2;" horiz-adv-x="418" 
d="M65 459c0 28.667 7.5 54.498 22.5 77.498s33.167 42.167 54.5 57.5l63.5 43.5c21 13.667 39 29.167 54 46.5s22.5 36 22.5 56c0 21.333 -7.66699 39.5 -23 54.5s-34.666 22.5 -57.999 22.5c-16 0 -31.5 -4.16699 -46.5 -12.5s-25.833 -16.5 -32.5 -24.5l-11 -12l-36 35
c3.33301 4.66699 8.33301 10.667 15 18s21.167 17 43.5 29s45.833 18 70.5 18c41.333 0 74.166 -11.833 98.499 -35.5s36.5 -53.5 36.5 -89.5c0 -27.333 -7.33301 -51.666 -22 -72.999s-32.5 -39.166 -53.5 -53.499l-63 -41c-21 -13 -39.167 -28.333 -54.5 -46
s-23.333 -37.167 -24 -58.5h176v55h49v-103h-279c-2 14.667 -3 26.667 -3 36z" />
    <glyph glyph-name="threesuperior" unicode="&#xb3;" horiz-adv-x="398" 
d="M71 756l0.00195312 102.003h268v-36l-121 -141c33.333 -3.33301 62.666 -15.5 87.999 -36.5s38 -51.167 38 -90.5c0 -38.667 -14.333 -71.834 -43 -99.501s-64 -41.5 -106 -41.5c-28.667 0 -54.834 5.5 -78.501 16.5s-40.167 21.833 -49.5 32.5l-14 17l35 37
c2.66699 -4 6.5 -8.83301 11.5 -14.5s16.833 -13.334 35.5 -23.001s38.667 -14.5 60 -14.5c24 0 45.5 8.5 64.5 25.5s28.5 38.167 28.5 63.5s-9.83301 45.666 -29.5 60.999s-42.5 23 -68.5 23h-32l-14 31l105 124l21 20v2c-8 -2 -17.333 -3 -28 -3h-121v-55h-50z" />
    <glyph glyph-name="acute" unicode="&#xb4;" horiz-adv-x="504" 
d="M162 752l98 119h87l-113 -119h-72z" />
    <glyph glyph-name="mu" unicode="&#xb5;" horiz-adv-x="583" 
d="M76 -200l0.000976562 703h68v-302c0 -47.333 7.33301 -84 22 -110s44 -39 88 -39c54.667 0 99.167 20.833 133.5 62.5s51.5 90.834 51.5 147.501v241h68v-503h-66v76l2 39h-2c-1.33301 -3.33301 -3.5 -7.83301 -6.5 -13.5s-10 -15.834 -21 -30.501
s-23.167 -27.667 -36.5 -39s-31.833 -21.5 -55.5 -30.5s-49.167 -13.5 -76.5 -13.5c-24.667 0 -46.334 3.5 -65.001 10.5s-31 14.167 -37 21.5l-9 10h-2c4.66699 -34 7 -59.333 7 -76v-154h-63z" />
    <glyph glyph-name="mu" unicode="&#x3bc;" horiz-adv-x="583" 
d="M76 -200l0.000976562 703h68v-302c0 -47.333 7.33301 -84 22 -110s44 -39 88 -39c54.667 0 99.167 20.833 133.5 62.5s51.5 90.834 51.5 147.501v241h68v-503h-66v76l2 39h-2c-1.33301 -3.33301 -3.5 -7.83301 -6.5 -13.5s-10 -15.834 -21 -30.501
s-23.167 -27.667 -36.5 -39s-31.833 -21.5 -55.5 -30.5s-49.167 -13.5 -76.5 -13.5c-24.667 0 -46.334 3.5 -65.001 10.5s-31 14.167 -37 21.5l-9 10h-2c4.66699 -34 7 -59.333 7 -76v-154h-63z" />
    <glyph glyph-name="paragraph" unicode="&#xb6;" horiz-adv-x="571" 
d="M278 -50l0.000976562 291c-65.333 0 -121.333 22.5 -168 67.5s-70 99.833 -70 164.5s23.167 119.167 69.5 163.5s102.166 66.5 167.499 66.5h240v-62h-181v-691h-58zM398.001 -50v631h57v-631h-57z" />
    <glyph glyph-name="periodcentered" unicode="&#xb7;" horiz-adv-x="276" 
d="M98 247v83h80v-83h-80z" />
    <glyph glyph-name="cedilla" unicode="&#xb8;" horiz-adv-x="504" 
d="M197 -94l28 116.999l43 -7v-8l-14 -66c20.667 -2 38 -9.66699 52 -23s21 -29.666 21 -48.999c0 -27.333 -9.66699 -47.5 -29 -60.5s-43.333 -19.5 -72 -19.5l-49 5v45c12.667 -3.33301 27 -5 43 -5c34 0 51 11.667 51 35c0 24 -19.667 36 -59 36h-15z" />
    <glyph glyph-name="onesuperior" unicode="&#xb9;" horiz-adv-x="398" 
d="M68 423l-0.000976562 47.999h104v283l3 31h-2c-3.33301 -5.33301 -8.66602 -11.666 -15.999 -18.999l-55 -53l-36 37l110 108h52v-387h102v-48h-262z" />
    <glyph glyph-name="ordmasculine" unicode="&#xba;" horiz-adv-x="475" 
d="M237 383c-46.667 0 -86.167 16 -118.5 48s-48.5 71.667 -48.5 119c0 46 16.333 84.833 49 116.5s72 47.5 118 47.5s85.333 -15.833 118 -47.5s49 -70.5 49 -116.5c0 -47.333 -16.167 -87 -48.5 -119s-71.833 -48 -118.5 -48zM237 434c31.333 0 57.833 11 79.5 33
s32.5 49.667 32.5 83c0 32.667 -10.833 59.834 -32.5 81.501s-48.167 32.5 -79.5 32.5s-57.833 -10.833 -79.5 -32.5s-32.5 -48.834 -32.5 -81.501c0 -33.333 10.833 -61 32.5 -83s48.167 -33 79.5 -33zM87 264v47h303v-47h-303z" />
    <glyph glyph-name="guillemotright" unicode="&#xbb;" horiz-adv-x="527" 
d="M240 77l164 205l-164 206h74l164 -206l-164 -205h-74zM60 77l164 205l-164 206h74l164 -206l-164 -205h-74z" />
    <glyph glyph-name="onequarter" unicode="&#xbc;" horiz-adv-x="936" 
d="M777 0v115h-211v37l212 283h54v-273h65v-47h-65v-115h-55zM630 162h147v161l4 43h-3c-6 -13.333 -13 -25.333 -21 -36l-127 -166v-2zM264 0l336 703h58l-335 -703h-59zM59 268l-0.000976562 47.999h104v283l3 31h-2c-3.33301 -5.33301 -8.66602 -11.666 -15.999 -18.999
l-55 -53l-36 37l110 108h52v-387h102v-48h-262z" />
    <glyph glyph-name="onehalf" unicode="&#xbd;" horiz-adv-x="916" 
d="M586 36c0 28.667 7.5 54.498 22.5 77.498s33 42.167 54 57.5s42.167 29.833 63.5 43.5s39.5 29.167 54.5 46.5s22.5 36 22.5 56c0 21.333 -7.66699 39.5 -23 54.5s-34.666 22.5 -57.999 22.5c-16 0 -31.5 -4 -46.5 -12s-26.167 -16 -33.5 -24l-10 -13l-36 35
c3.33301 4.66699 8.33301 10.667 15 18s21.167 17 43.5 29s45.833 18 70.5 18c41.333 0 74.166 -11.833 98.499 -35.5s36.5 -53.5 36.5 -89.5c0 -27.333 -7.33301 -51.666 -22 -72.999s-32.5 -39.166 -53.5 -53.499l-63 -41c-21 -13 -39.167 -28.333 -54.5 -46
s-23.333 -37.167 -24 -58.5h176v55h49v-103h-279c-2 14.667 -3 26.667 -3 36zM257 -0.00195312l336 703h58l-335 -703h-59zM52 267.998l-0.000976562 47.999h104v283l3 31h-2c-3.33301 -5.33301 -8.66602 -11.666 -15.999 -18.999l-55 -53l-36 37l110 108h52v-387h102v-48
h-262z" />
    <glyph glyph-name="threequarters" unicode="&#xbe;" horiz-adv-x="954" 
d="M792 0v115h-211v37l212 283h54v-273h65v-47h-65v-115h-55zM645 162h147v161l4 43h-3c-6 -13.333 -13 -25.333 -21 -36l-127 -166v-2zM69 601l0.00195312 102.003h268v-36l-121 -141c33.333 -3.33301 62.666 -15.5 87.999 -36.5s38 -51.167 38 -90.5
c0 -38.667 -14.333 -71.834 -43 -99.501s-64 -41.5 -106 -41.5c-28.667 0 -54.834 5.5 -78.501 16.5s-40.167 22.167 -49.5 33.5l-14 16l35 37c2.66699 -4 6.5 -8.83301 11.5 -14.5s16.833 -13.334 35.5 -23.001s38.667 -14.5 60 -14.5c24 0 45.5 8.5 64.5 25.5
s28.5 38.167 28.5 63.5s-9.83301 45.666 -29.5 60.999s-42.5 23 -68.5 23h-32l-14 31l105 124l21 20v2c-8 -2 -17.333 -3 -28 -3h-121v-55h-50zM279.002 0.00292969l336 703h58l-335 -703h-59z" />
    <glyph glyph-name="questiondown" unicode="&#xbf;" horiz-adv-x="454" 
d="M226 424v79h79v-79h-79zM53 -33c0 30.667 6.16797 58.168 18.501 82.501s27.166 44.833 44.499 61.5s34.833 32.667 52.5 48s32.667 33.166 45 53.499s18.5 42.5 18.5 66.5v40h67v-43c0 -29.333 -6 -56 -18 -80s-26.5 -44.167 -43.5 -60.5l-51.5 -48
c-17.333 -15.667 -32 -33.5 -44 -53.5s-18 -41.333 -18 -64c0 -32.667 12.333 -60 37 -82s56.334 -33 95.001 -33c20 0 40 3.5 60 10.5s35 13.833 45 20.5l15 11l38 -50c-4.66699 -4 -11.334 -9.16699 -20.001 -15.5s-27 -14.833 -55 -25.5s-56.667 -16 -86 -16
c-58 0 -105.833 16.5 -143.5 49.5s-56.5 75.5 -56.5 127.5z" />
    <glyph glyph-name="Agrave" unicode="&#xc0;" horiz-adv-x="717" 
d="M11 0v58h72l237 645h77l237 -645h72v-58h-225v58h81l-67 181h-274l-66 -181h81v-58h-225zM240 298h235.999l-105 288l-11 45h-3c-1.33301 -14.667 -4.66602 -29.667 -9.99902 -45zM332.999 752l-113 119h87l98 -119h-72z" />
    <glyph glyph-name="Aacute" unicode="&#xc1;" horiz-adv-x="717" 
d="M11 0v58h72l237 645h77l237 -645h72v-58h-225v58h81l-67 181h-274l-66 -181h81v-58h-225zM240 298h235.999l-105 288l-11 45h-3c-1.33301 -14.667 -4.66602 -29.667 -9.99902 -45zM309.999 752l98 119h87l-113 -119h-72z" />
    <glyph glyph-name="Acircumflex" unicode="&#xc2;" horiz-adv-x="717" 
d="M11 0v58h72l237 645h77l237 -645h72v-58h-225v58h81l-67 181h-274l-66 -181h81v-58h-225zM240 298h235.999l-105 288l-11 45h-3c-1.33301 -14.667 -4.66602 -29.667 -9.99902 -45zM232.999 752l84 119h82l83 -119h-69l-54 81h-2l-54 -81h-70z" />
    <glyph glyph-name="Atilde" unicode="&#xc3;" horiz-adv-x="717" 
d="M11 0v58h72l237 645h77l237 -645h72v-58h-225v58h81l-67 181h-274l-66 -181h81v-58h-225zM240 298h235.999l-105 288l-11 45h-3c-1.33301 -14.667 -4.66602 -29.667 -9.99902 -45zM199.999 755c0 78 30.999 117.003 92.999 117.003c20.667 0 38.667 -5.83301 54 -17.5
s28.5 -23.334 39.5 -35.001s22.167 -17.5 33.5 -17.5c27.333 0 41 22.333 41 67h57c0 -78 -31 -117 -93 -117c-16.667 0 -31.5 3.66699 -44.5 11s-23 15.166 -30 23.499s-15.167 16.166 -24.5 23.499s-18.666 11 -27.999 11c-26.667 0 -40 -22 -40 -66h-58z" />
    <glyph glyph-name="Adieresis" unicode="&#xc4;" horiz-adv-x="717" 
d="M11 0v58h72l237 645h77l237 -645h72v-58h-225v58h81l-67 181h-274l-66 -181h81v-58h-225zM240 298h235.999l-105 288l-11 45h-3c-1.33301 -14.667 -4.66602 -29.667 -9.99902 -45zM415.999 785v86h69v-86h-69zM232.999 785v86h69v-86h-69z" />
    <glyph glyph-name="Aring" unicode="&#xc5;" horiz-adv-x="717" 
d="M11 0v58h72l237 645h77l237 -645h72v-58h-225v58h81l-67 181h-274l-66 -181h81v-58h-225zM240 298h235.999l-105 288l-11 45h-3c-1.33301 -14.667 -4.66602 -29.667 -9.99902 -45zM357.999 736c-22.667 0 -42 7.16699 -58 21.5s-24 32.5 -24 54.5
c0 23.333 8 42.333 24 57s35.333 22 58 22c24 0 44.167 -7.33301 60.5 -22s24.5 -33.667 24.5 -57c0 -22 -8.33301 -40.167 -25 -54.5s-36.667 -21.5 -60 -21.5zM357.999 776c11.333 0 20.5 3.33301 27.5 10s10.5 15.334 10.5 26.001c0 12 -3.5 21.5 -10.5 28.5
s-16.167 10.5 -27.5 10.5c-10.667 0 -19.167 -3.5 -25.5 -10.5s-9.5 -16.5 -9.5 -28.5c0 -10.667 3.16699 -19.334 9.5 -26.001s14.833 -10 25.5 -10z" />
    <glyph glyph-name="AE" unicode="&#xc6;" horiz-adv-x="922" 
d="M11 0v58h66l242 587h-80v58h608v-146h-61v86h-272v-259h264v-60h-264v-264h290v87h62v-147h-510v58h88v267h-185l-110 -267h79v-58h-217zM282 383h162v260h-56z" />
    <glyph glyph-name="Ccedilla" unicode="&#xc7;" horiz-adv-x="742" 
d="M358 -94l19.999 84.002c-94.667 8.66699 -172.334 47.5 -233.001 116.5s-91 152.167 -91 249.5c0 102 34.167 187.333 102.5 256s152.833 103 253.5 103c24 0 49.833 -2.33301 77.5 -7s55.834 -12 84.501 -22s52.5 -24.667 71.5 -44s28.5 -41.666 28.5 -66.999v-75h-67
v56c0 21.333 -11.333 39.666 -34 54.999s-48 26 -76 32s-55.333 9 -82 9c-82 0 -150.167 -27.833 -204.5 -83.5s-81.5 -125.834 -81.5 -210.501c0 -88 27.5 -161.167 82.5 -219.5s124.167 -87.5 207.5 -87.5c16.667 0 35.334 1.66699 56.001 5s42.167 8.33301 64.5 15
s41 16.667 56 30s22.5 28.666 22.5 45.999v55h67v-75c0 -30.667 -15.333 -57 -46 -79s-64.5 -37.333 -101.5 -46s-74.167 -13.334 -111.5 -14.001l-10 -46c21.333 -2 39 -9.66699 53 -23s21 -29.666 21 -48.999c0 -27.333 -9.66699 -47.5 -29 -60.5s-43.333 -19.5 -72 -19.5
l-49 5v45c12.667 -3.33301 27 -5 43 -5c34 0 51 11.667 51 35c0 24 -19.667 36 -59 36h-15z" />
    <glyph glyph-name="Egrave" unicode="&#xc8;" horiz-adv-x="626" 
d="M54 0v58h92v587h-92v58h497v-146h-64v86h-271v-259h266v-60h-266v-264h290v91h63v-151h-515zM296 752l-113 119h87l98 -119h-72z" />
    <glyph glyph-name="Eacute" unicode="&#xc9;" horiz-adv-x="626" 
d="M272 752l98 119h87l-113 -119h-72zM54 0v58h92v587h-92v58h497v-146h-64v86h-271v-259h266v-60h-266v-264h290v91h63v-151h-515z" />
    <glyph glyph-name="Ecircumflex" unicode="&#xca;" horiz-adv-x="626" 
d="M195 752l84 119h82l83 -119h-69l-54 81h-2l-54 -81h-70zM54 0v58h92v587h-92v58h497v-146h-64v86h-271v-259h266v-60h-266v-264h290v91h63v-151h-515z" />
    <glyph glyph-name="Edieresis" unicode="&#xcb;" horiz-adv-x="626" 
d="M378 785v86h69v-86h-69zM195 785v86h69v-86h-69zM54 0v58h92v587h-92v58h497v-146h-64v86h-271v-259h266v-60h-266v-264h290v91h63v-151h-515z" />
    <glyph glyph-name="Igrave" unicode="&#xcc;" horiz-adv-x="362" 
d="M54 0v58h92v587h-92v58h254v-58h-92v-587h92v-58h-254zM157 752l-113 119h87l98 -119h-72z" />
    <glyph glyph-name="Iacute" unicode="&#xcd;" horiz-adv-x="362" 
d="M54 0v58h92v587h-92v58h254v-58h-92v-587h92v-58h-254zM133 752l98 119h87l-113 -119h-72z" />
    <glyph glyph-name="Icircumflex" unicode="&#xce;" horiz-adv-x="362" 
d="M54 0v58h92v587h-92v58h254v-58h-92v-587h92v-58h-254zM56 752l84 119h82l83 -119h-69l-54 81h-2l-54 -81h-70z" />
    <glyph glyph-name="Idieresis" unicode="&#xcf;" horiz-adv-x="362" 
d="M54 0v58h92v587h-92v58h254v-58h-92v-587h92v-58h-254zM239 785v86h69v-86h-69zM56 785v86h69v-86h-69z" />
    <glyph glyph-name="Eth" unicode="&#xd0;" horiz-adv-x="785" 
d="M54 0v57.999h92v265h-78v60h78v262h-92v58h320c106.667 0 192.167 -31.167 256.5 -93.5s96.5 -148.166 96.5 -257.499c0 -110.667 -32 -197 -96 -259s-149.667 -93 -257 -93h-320zM216 59.999l151 -0.000976562c88 0 157.833 25.333 209.5 76s77.5 122.667 77.5 216
c0 92.667 -26 164.334 -78 215.001s-121.667 76 -209 76h-151v-260h170v-60h-170v-263z" />
    <glyph glyph-name="Ntilde" unicode="&#xd1;" horiz-adv-x="833" 
d="M54 0v58h92v587h-92v58h160l394 -555l21 -43h2l-3 49v491h-93v58h255v-58h-92v-645h-68l-394 555l-21 43h-2l3 -48v-492h93v-58h-255zM263 755c0 78 30.999 117.003 92.999 117.003c20.667 0 38.667 -5.83301 54 -17.5s28.5 -23.334 39.5 -35.001
s22.167 -17.5 33.5 -17.5c27.333 0 41 22.333 41 67h57c0 -78 -31 -117 -93 -117c-16.667 0 -31.5 3.66699 -44.5 11s-23 15.166 -30 23.499s-15.167 16.166 -24.5 23.499s-18.666 11 -27.999 11c-26.667 0 -40 -22 -40 -66h-58z" />
    <glyph glyph-name="Ograve" unicode="&#xd2;" horiz-adv-x="825" 
d="M54 356c0 100.667 34.667 185.667 104 255s154 104 254 104s184.833 -34.667 254.5 -104s104.5 -154.333 104.5 -255c0 -102.667 -34.833 -189.667 -104.5 -261s-154.5 -107 -254.5 -107c-99.333 0 -183.833 35.667 -253.5 107s-104.5 158.333 -104.5 261zM127 356
c0 -85.333 27.8311 -157.333 83.498 -216s122.834 -88 201.501 -88c79.333 0 146.833 29.333 202.5 88s83.5 130.667 83.5 216c0 83.333 -27.833 153.333 -83.5 210s-123.167 85 -202.5 85s-146.666 -28.333 -201.999 -85s-83 -126.667 -83 -210zM387.998 752l-113 119h87
l98 -119h-72z" />
    <glyph glyph-name="Oacute" unicode="&#xd3;" horiz-adv-x="825" 
d="M364 752l98 119h87l-113 -119h-72zM54 356c0 100.667 34.667 185.667 104 255s154 104 254 104s184.833 -34.667 254.5 -104s104.5 -154.333 104.5 -255c0 -102.667 -34.833 -189.667 -104.5 -261s-154.5 -107 -254.5 -107c-99.333 0 -183.833 35.667 -253.5 107
s-104.5 158.333 -104.5 261zM127 356c0 -85.333 27.8311 -157.333 83.498 -216s122.834 -88 201.501 -88c79.333 0 146.833 29.333 202.5 88s83.5 130.667 83.5 216c0 83.333 -27.833 153.333 -83.5 210s-123.167 85 -202.5 85s-146.666 -28.333 -201.999 -85
s-83 -126.667 -83 -210z" />
    <glyph glyph-name="Ocircumflex" unicode="&#xd4;" horiz-adv-x="825" 
d="M288 752l84 119h82l83 -119h-69l-54 81h-2l-54 -81h-70zM54 356c0 100.667 34.667 185.667 104 255s154 104 254 104s184.833 -34.667 254.5 -104s104.5 -154.333 104.5 -255c0 -102.667 -34.833 -189.667 -104.5 -261s-154.5 -107 -254.5 -107
c-99.333 0 -183.833 35.667 -253.5 107s-104.5 158.333 -104.5 261zM127 356c0 -85.333 27.8311 -157.333 83.498 -216s122.834 -88 201.501 -88c79.333 0 146.833 29.333 202.5 88s83.5 130.667 83.5 216c0 83.333 -27.833 153.333 -83.5 210s-123.167 85 -202.5 85
s-146.666 -28.333 -201.999 -85s-83 -126.667 -83 -210z" />
    <glyph glyph-name="Otilde" unicode="&#xd5;" horiz-adv-x="825" 
d="M54 356c0 100.667 34.667 185.667 104 255s154 104 254 104s184.833 -34.667 254.5 -104s104.5 -154.333 104.5 -255c0 -102.667 -34.833 -189.667 -104.5 -261s-154.5 -107 -254.5 -107c-99.333 0 -183.833 35.667 -253.5 107s-104.5 158.333 -104.5 261zM127 356
c0 -85.333 27.8311 -157.333 83.498 -216s122.834 -88 201.501 -88c79.333 0 146.833 29.333 202.5 88s83.5 130.667 83.5 216c0 83.333 -27.833 153.333 -83.5 210s-123.167 85 -202.5 85s-146.666 -28.333 -201.999 -85s-83 -126.667 -83 -210zM253.998 755
c0 78 30.999 117.003 92.999 117.003c20.667 0 38.667 -5.83301 54 -17.5s28.5 -23.334 39.5 -35.001s22.167 -17.5 33.5 -17.5c27.333 0 41 22.333 41 67h57c0 -78 -31 -117 -93 -117c-16.667 0 -31.5 3.66699 -44.5 11s-23 15.166 -30 23.499s-15.167 16.166 -24.5 23.499
s-18.666 11 -27.999 11c-26.667 0 -40 -22 -40 -66h-58z" />
    <glyph glyph-name="Odieresis" unicode="&#xd6;" horiz-adv-x="825" 
d="M470 785v86h69v-86h-69zM287 785v86h69v-86h-69zM54 356c0 100.667 34.667 185.667 104 255s154 104 254 104s184.833 -34.667 254.5 -104s104.5 -154.333 104.5 -255c0 -102.667 -34.833 -189.667 -104.5 -261s-154.5 -107 -254.5 -107
c-99.333 0 -183.833 35.667 -253.5 107s-104.5 158.333 -104.5 261zM127 356c0 -85.333 27.8311 -157.333 83.498 -216s122.834 -88 201.501 -88c79.333 0 146.833 29.333 202.5 88s83.5 130.667 83.5 216c0 83.333 -27.833 153.333 -83.5 210s-123.167 85 -202.5 85
s-146.666 -28.333 -201.999 -85s-83 -126.667 -83 -210z" />
    <glyph glyph-name="multiply" unicode="&#xd7;" horiz-adv-x="606" 
d="M48 41l215 243l-215 243l41 41l214 -241l214 241l41 -41l-217 -243l217 -243l-41 -41l-214 241l-214 -241z" />
    <glyph glyph-name="Oslash" unicode="&#xd8;" horiz-adv-x="824" 
d="M130 5l49.999 68.999c-39.333 34 -70.166 75.333 -92.499 124s-33.5 101.334 -33.5 158.001c0 100.667 34.667 185.667 104 255s154 104 254 104c68 0 131 -18 189 -54l47 67l42 -30l-48 -66c40 -33.333 71.333 -73.833 94 -121.5s34 -99.167 34 -154.5
c0 -102.667 -34.833 -189.667 -104.5 -261s-154.167 -107 -253.5 -107c-70 0 -133.667 18.667 -191 56l-49 -68zM220.999 130.999l341 476.001c-45.333 28.667 -95.333 43 -150 43c-79.333 0 -146.833 -28.333 -202.5 -85s-83.5 -126.334 -83.5 -209.001
c0 -91.333 31.667 -166.333 95 -225zM258.999 98c45.333 -30 96.333 -44.999 153 -44.999c80 0 147.667 29.167 203 87.5s83 130.166 83 215.499c0 90 -32 163.667 -96 221z" />
    <glyph glyph-name="Ugrave" unicode="&#xd9;" horiz-adv-x="790" 
d="M125 259l0.000976562 385.999h-92v58h254v-58h-92v-385c0 -53.333 10.333 -96.333 31 -129c34 -52.667 90.333 -79 169 -79c80.667 0 137 27.333 169 82c20.667 35.333 31 78 31 128v383h-92v58h254v-58h-92v-386c0 -67.333 -15 -122.666 -45 -165.999
c-22.667 -34 -53.667 -60 -93 -78s-83.333 -27 -132 -27c-49.333 0 -93.833 9.16699 -133.5 27.5s-70.834 44.5 -93.501 78.5c-28.667 42 -43 97 -43 165zM370.001 751.999l-113 119h87l98 -119h-72z" />
    <glyph glyph-name="Uacute" unicode="&#xda;" horiz-adv-x="790" 
d="M346 752l98 119h87l-113 -119h-72zM125 259l0.000976562 385.999h-92v58h254v-58h-92v-385c0 -53.333 10.333 -96.333 31 -129c34 -52.667 90.333 -79 169 -79c80.667 0 137 27.333 169 82c20.667 35.333 31 78 31 128v383h-92v58h254v-58h-92v-386
c0 -67.333 -15 -122.666 -45 -165.999c-22.667 -34 -53.667 -60 -93 -78s-83.333 -27 -132 -27c-49.333 0 -93.833 9.16699 -133.5 27.5s-70.834 44.5 -93.501 78.5c-28.667 42 -43 97 -43 165z" />
    <glyph glyph-name="Ucircumflex" unicode="&#xdb;" horiz-adv-x="790" 
d="M270 752l84 119h82l83 -119h-69l-54 81h-2l-54 -81h-70zM125 259l0.000976562 385.999h-92v58h254v-58h-92v-385c0 -53.333 10.333 -96.333 31 -129c34 -52.667 90.333 -79 169 -79c80.667 0 137 27.333 169 82c20.667 35.333 31 78 31 128v383h-92v58h254v-58h-92v-386
c0 -67.333 -15 -122.666 -45 -165.999c-22.667 -34 -53.667 -60 -93 -78s-83.333 -27 -132 -27c-49.333 0 -93.833 9.16699 -133.5 27.5s-70.834 44.5 -93.501 78.5c-28.667 42 -43 97 -43 165z" />
    <glyph glyph-name="Udieresis" unicode="&#xdc;" horiz-adv-x="790" 
d="M452 785v86h69v-86h-69zM269 785v86h69v-86h-69zM125 259l0.000976562 385.999h-92v58h254v-58h-92v-385c0 -53.333 10.333 -96.333 31 -129c34 -52.667 90.333 -79 169 -79c80.667 0 137 27.333 169 82c20.667 35.333 31 78 31 128v383h-92v58h254v-58h-92v-386
c0 -67.333 -15 -122.666 -45 -165.999c-22.667 -34 -53.667 -60 -93 -78s-83.333 -27 -132 -27c-49.333 0 -93.833 9.16699 -133.5 27.5s-70.834 44.5 -93.501 78.5c-28.667 42 -43 97 -43 165z" />
    <glyph glyph-name="Yacute" unicode="&#xdd;" horiz-adv-x="644" 
d="M195 0v58h92v244l-207 343h-69v58h222v-58h-78l152 -256l14 -27h2c4 9.33301 8.66699 18.333 14 27l153 256h-78v58h221v-58h-69l-207 -343v-244h92v-58h-254zM275 752l98 119h87l-113 -119h-72z" />
    <glyph glyph-name="Thorn" unicode="&#xde;" horiz-adv-x="643" 
d="M54 0v58.001h92v587h-92v58h254v-58h-92v-81h177c64 0 115.667 -17.833 155 -53.5s59 -84.167 59 -145.5c0 -60.667 -19.833 -109.334 -59.5 -146.001s-91.5 -55 -155.5 -55h-176v-106h92v-58h-254zM216 222.001l166.001 -0.000976562c47.333 0 84.666 12.5 111.999 37.5
s41 60.167 41 105.5c0 44.667 -13.5 79.334 -40.5 104.001s-64.167 37 -111.5 37h-167v-284z" />
    <glyph glyph-name="germandbls" unicode="&#xdf;" horiz-adv-x="605" 
d="M30 0l0.00488281 56.001h85v475c0 56.667 20 101.5 60 134.5s87 49.5 141 49.5c52 0 94.167 -14.667 126.5 -44s48.5 -64.333 48.5 -105c0 -23.333 -5.83301 -45.166 -17.5 -65.499s-24.334 -36.5 -38.001 -48.5s-26.334 -25.333 -38.001 -40s-17.5 -29 -17.5 -43
c0 -12 6.66699 -24.5 20 -37.5s29.666 -25.667 48.999 -38s38.666 -25.5 57.999 -39.5s35.666 -31.333 48.999 -52s20 -42.667 20 -66c0 -45.333 -15.833 -80.5 -47.5 -105.5s-69.834 -37.5 -114.501 -37.5c-28 0 -54.333 2.66699 -79 8s-42.334 10.666 -53.001 15.999
l-16 8v65c39.333 -24 87 -36 143 -36c28 0 51.167 7 69.5 21s27.5 35 27.5 63c0 20.667 -10.167 40.834 -30.5 60.501s-42.833 36.167 -67.5 49.5s-47.167 30.666 -67.5 51.999s-30.5 43.666 -30.5 66.999c0 19.333 5.83301 38 17.5 56s24.334 33 38.001 45
s26.334 26.667 38.001 44s17.5 35 17.5 53c0 23.333 -9.5 44 -28.5 62s-45.167 27 -78.5 27c-34.667 0 -65.167 -11.5 -91.5 -34.5s-39.5 -54.167 -39.5 -93.5v-526h-153z" />
    <glyph glyph-name="agrave" unicode="&#xe0;" horiz-adv-x="546" 
d="M38 138c0 113.333 100.998 170 302.998 170h33v21c0 84.667 -40.333 127 -121 127c-25.333 0 -50.166 -4 -74.499 -12s-42.5 -16 -54.5 -24l-17 -13l-32 51c5.33301 4 12.833 9.16699 22.5 15.5s30.167 14.833 61.5 25.5s64 16 98 16c123.333 0 185 -63 185 -189v-248
c0 -14.667 7.33301 -22 22 -22h55v-56h-82c-40 -0 -60 18.333 -60 55v9l3 39h-2c-1.33301 -3.33301 -3.16602 -7.5 -5.49902 -12.5s-8.33301 -14.167 -18 -27.5s-20.334 -25 -32.001 -35s-28 -19.167 -49 -27.5s-43.5 -12.5 -67.5 -12.5c-45.333 0 -84.666 13 -117.999 39
s-50 63 -50 111zM107.998 145c0 -27.333 9.66797 -51 29.001 -71s45.666 -30 78.999 -30c47.333 0 85.5 19.5 114.5 58.5s43.5 82.5 43.5 130.5v24h-29c-158 0 -237 -37.333 -237 -112zM233.999 584l-113 119h87l98 -119h-72z" />
    <glyph glyph-name="aacute" unicode="&#xe1;" horiz-adv-x="546" 
d="M38 138c0 113.333 100.998 170 302.998 170h33v21c0 84.667 -40.333 127 -121 127c-25.333 0 -50.166 -4 -74.499 -12s-42.5 -16 -54.5 -24l-17 -13l-32 51c5.33301 4 12.833 9.16699 22.5 15.5s30.167 14.833 61.5 25.5s64 16 98 16c123.333 0 185 -63 185 -189v-248
c0 -14.667 7.33301 -22 22 -22h55v-56h-82c-40 -0 -60 18.333 -60 55v9l3 39h-2c-1.33301 -3.33301 -3.16602 -7.5 -5.49902 -12.5s-8.33301 -14.167 -18 -27.5s-20.334 -25 -32.001 -35s-28 -19.167 -49 -27.5s-43.5 -12.5 -67.5 -12.5c-45.333 0 -84.666 13 -117.999 39
s-50 63 -50 111zM107.998 145c0 -27.333 9.66797 -51 29.001 -71s45.666 -30 78.999 -30c47.333 0 85.5 19.5 114.5 58.5s43.5 82.5 43.5 130.5v24h-29c-158 0 -237 -37.333 -237 -112zM209.999 584l98 119h87l-113 -119h-72z" />
    <glyph glyph-name="acircumflex" unicode="&#xe2;" horiz-adv-x="546" 
d="M38 138c0 113.333 100.998 170 302.998 170h33v21c0 84.667 -40.333 127 -121 127c-25.333 0 -50.166 -4 -74.499 -12s-42.5 -16 -54.5 -24l-17 -13l-32 51c5.33301 4 12.833 9.16699 22.5 15.5s30.167 14.833 61.5 25.5s64 16 98 16c123.333 0 185 -63 185 -189v-248
c0 -14.667 7.33301 -22 22 -22h55v-56h-82c-40 -0 -60 18.333 -60 55v9l3 39h-2c-1.33301 -3.33301 -3.16602 -7.5 -5.49902 -12.5s-8.33301 -14.167 -18 -27.5s-20.334 -25 -32.001 -35s-28 -19.167 -49 -27.5s-43.5 -12.5 -67.5 -12.5c-45.333 0 -84.666 13 -117.999 39
s-50 63 -50 111zM107.998 145c0 -27.333 9.66797 -51 29.001 -71s45.666 -30 78.999 -30c47.333 0 85.5 19.5 114.5 58.5s43.5 82.5 43.5 130.5v24h-29c-158 0 -237 -37.333 -237 -112zM132.999 584l84 119h82l83 -119h-69l-54 81h-2l-54 -81h-70z" />
    <glyph glyph-name="atilde" unicode="&#xe3;" horiz-adv-x="546" 
d="M38 138c0 113.333 100.998 170 302.998 170h33v21c0 84.667 -40.333 127 -121 127c-25.333 0 -50.166 -4 -74.499 -12s-42.5 -16 -54.5 -24l-17 -13l-32 51c5.33301 4 12.833 9.16699 22.5 15.5s30.167 14.833 61.5 25.5s64 16 98 16c123.333 0 185 -63 185 -189v-248
c0 -14.667 7.33301 -22 22 -22h55v-56h-82c-40 -0 -60 18.333 -60 55v9l3 39h-2c-1.33301 -3.33301 -3.16602 -7.5 -5.49902 -12.5s-8.33301 -14.167 -18 -27.5s-20.334 -25 -32.001 -35s-28 -19.167 -49 -27.5s-43.5 -12.5 -67.5 -12.5c-45.333 0 -84.666 13 -117.999 39
s-50 63 -50 111zM107.998 145c0 -27.333 9.66797 -51 29.001 -71s45.666 -30 78.999 -30c47.333 0 85.5 19.5 114.5 58.5s43.5 82.5 43.5 130.5v24h-29c-158 0 -237 -37.333 -237 -112zM98.999 587c0 78 30.999 117.003 92.999 117.003c20.667 0 38.667 -5.83301 54 -17.5
s28.5 -23.334 39.5 -35.001s22.167 -17.5 33.5 -17.5c27.333 0 41 22.333 41 67h57c0 -78 -31 -117 -93 -117c-16.667 0 -31.5 3.66699 -44.5 11s-23 15.166 -30 23.499s-15.167 16.166 -24.5 23.499s-18.666 11 -27.999 11c-26.667 0 -40 -22 -40 -66h-58z" />
    <glyph glyph-name="adieresis" unicode="&#xe4;" horiz-adv-x="546" 
d="M38 138c0 113.333 100.998 170 302.998 170h33v21c0 84.667 -40.333 127 -121 127c-25.333 0 -50.166 -4 -74.499 -12s-42.5 -16 -54.5 -24l-17 -13l-32 51c5.33301 4 12.833 9.16699 22.5 15.5s30.167 14.833 61.5 25.5s64 16 98 16c123.333 0 185 -63 185 -189v-248
c0 -14.667 7.33301 -22 22 -22h55v-56h-82c-40 -0 -60 18.333 -60 55v9l3 39h-2c-1.33301 -3.33301 -3.16602 -7.5 -5.49902 -12.5s-8.33301 -14.167 -18 -27.5s-20.334 -25 -32.001 -35s-28 -19.167 -49 -27.5s-43.5 -12.5 -67.5 -12.5c-45.333 0 -84.666 13 -117.999 39
s-50 63 -50 111zM107.998 145c0 -27.333 9.66797 -51 29.001 -71s45.666 -30 78.999 -30c47.333 0 85.5 19.5 114.5 58.5s43.5 82.5 43.5 130.5v24h-29c-158 0 -237 -37.333 -237 -112zM314.999 617v86h69v-86h-69zM131.999 617v86h69v-86h-69z" />
    <glyph glyph-name="aring" unicode="&#xe5;" horiz-adv-x="546" 
d="M38 138c0 113.333 100.998 170 302.998 170h33v21c0 84.667 -40.333 127 -121 127c-25.333 0 -50.166 -4 -74.499 -12s-42.5 -16 -54.5 -24l-17 -13l-32 51c5.33301 4 12.833 9.16699 22.5 15.5s30.167 14.833 61.5 25.5s64 16 98 16c123.333 0 185 -63 185 -189v-248
c0 -14.667 7.33301 -22 22 -22h55v-56h-82c-40 -0 -60 18.333 -60 55v9l3 39h-2c-1.33301 -3.33301 -3.16602 -7.5 -5.49902 -12.5s-8.33301 -14.167 -18 -27.5s-20.334 -25 -32.001 -35s-28 -19.167 -49 -27.5s-43.5 -12.5 -67.5 -12.5c-45.333 0 -84.666 13 -117.999 39
s-50 63 -50 111zM107.998 145c0 -27.333 9.66797 -51 29.001 -71s45.666 -30 78.999 -30c47.333 0 85.5 19.5 114.5 58.5s43.5 82.5 43.5 130.5v24h-29c-158 0 -237 -37.333 -237 -112zM257.999 568c-22.667 0 -42 7.16699 -58 21.5s-24 32.5 -24 54.5
c0 23.333 8 42.333 24 57s35.333 22 58 22c24 0 44.167 -7.33301 60.5 -22s24.5 -33.667 24.5 -57c0 -22 -8.33301 -40.167 -25 -54.5s-36.667 -21.5 -60 -21.5zM257.999 608c11.333 0 20.5 3.33301 27.5 10s10.5 15.334 10.5 26.001c0 12 -3.5 21.5 -10.5 28.5
s-16.167 10.5 -27.5 10.5c-10.667 0 -19.167 -3.5 -25.5 -10.5s-9.5 -16.5 -9.5 -28.5c0 -10.667 3.16699 -19.334 9.5 -26.001s14.833 -10 25.5 -10z" />
    <glyph glyph-name="ae" unicode="&#xe6;" horiz-adv-x="868" 
d="M39 137c0 22 3.66797 41.8301 11.001 59.4971s16.666 32.334 27.999 44.001s26 21.667 44 30s35.167 14.5 51.5 18.5s35.666 7.33301 57.999 10s41 4.16699 56 4.5s32.5 0.5 52.5 0.5h34v20c0 88 -42.333 132 -127 132c-24.667 0 -48.834 -4 -72.501 -12
s-41.167 -16 -52.5 -24l-18 -13l-31 51c4.66699 4 11.834 9.16699 21.501 15.5s30 14.833 61 25.5s63.167 16 96.5 16c89.333 0 145.666 -34.667 168.999 -104h2c40 69.333 103 104 189 104c65.333 0 116.5 -21.833 153.5 -65.5s55.5 -98.167 55.5 -163.5l-2 -32h-378
c0.666992 -65.333 18.5 -116 53.5 -152s79.5 -54 133.5 -54c27.333 0 53.666 5 78.999 15s43.666 20.333 54.999 31l18 15l32 -51c-5.33301 -5.33301 -13.166 -11.833 -23.499 -19.5s-31.666 -18 -63.999 -31s-65.5 -19.5 -99.5 -19.5c-51.333 0 -96.166 12.333 -134.499 37
s-67.166 59 -86.499 103h-2c-2 -7.33301 -5.16699 -15.666 -9.5 -24.999s-11.833 -21.166 -22.5 -35.499s-22.5 -27 -35.5 -38s-30.333 -20.667 -52 -29s-45.167 -12.5 -70.5 -12.5c-48.667 0 -89.667 13.167 -123 39.5s-50 62.833 -50 109.5zM445.001 303.997h306
c-2 49.333 -16.5 87.166 -43.5 113.499s-59.833 39.5 -98.5 39.5c-42.667 0 -78.667 -13.167 -108 -39.5s-48 -64.166 -56 -113.499zM108.001 140.997c0 -26.667 10 -49.333 30 -68s47.333 -28 82 -28c46 0 83.333 19.5 112 58.5s43 82.167 43 129.5v20h-59
c-26 0 -49.167 -1.16699 -69.5 -3.5s-42 -6.83301 -65 -13.5s-41 -18.167 -54 -34.5s-19.5 -36.5 -19.5 -60.5z" />
    <glyph glyph-name="ccedilla" unicode="&#xe7;" horiz-adv-x="550" 
d="M254 -94l19.999 84.998c-65.333 8 -119.666 35.333 -162.999 82s-65 105.667 -65 177c0 77.333 25.333 140.833 76 190.5s113 74.5 187 74.5c17.333 0 36 -1.83301 56 -5.5s40.167 -9.5 60.5 -17.5s37 -19.5 50 -34.5s19.5 -32.167 19.5 -51.5v-55h-63v37
c0 20.667 -13.333 36.834 -40 48.501s-54 17.5 -82 17.5c-56 0 -102.333 -18.667 -139 -56s-55 -86 -55 -146c0 -60.667 19 -109.667 57 -147s84.667 -56 140 -56c13.333 0 26.5 1.16699 39.5 3.5s24.667 5.33301 35 9s19.833 7.66699 28.5 12s16.667 9.16602 24 14.499
l18 13.5c4.66699 3.66699 9 7.33398 13 11.001s6.33301 5.5 7 5.5l29 -52c-54.667 -49.333 -117 -75.333 -187 -78l-10 -46c20.667 -2 38 -9.66699 52 -23s21 -29.666 21 -48.999c0 -27.333 -9.66699 -47.5 -29 -60.5s-43 -19.5 -71 -19.5l-49 5v45c12 -3.33301 26 -5 42 -5
c34 0 51 11.667 51 35c0 24 -19.667 36 -59 36h-14z" />
    <glyph glyph-name="egrave" unicode="&#xe8;" horiz-adv-x="552" 
d="M47 251c0 80 23.835 144 71.502 192s106.5 72 176.5 72c66.667 0 118.5 -22.167 155.5 -66.5s55.5 -99.5 55.5 -165.5l-3 -32h-386c1.33301 -62.667 20.666 -112 57.999 -148s83 -54 137 -54c27.333 0 53.666 5 78.999 15s44 20 56 30l18 15l31 -51
c-5.33301 -5.33301 -13 -11.833 -23 -19.5s-31.167 -18 -63.5 -31s-65.5 -19.5 -99.5 -19.5c-75.333 0 -138 24.667 -188 74s-75 112.333 -75 189zM120.002 301h315c-2 50.667 -16.333 89.5 -43 116.5s-59.667 40.5 -99 40.5c-43.333 0 -81 -13.833 -113 -41.5
s-52 -66.167 -60 -115.5zM271.002 584l-113 119h87l98 -119h-72z" />
    <glyph glyph-name="eacute" unicode="&#xe9;" horiz-adv-x="552" 
d="M247 584l98 119h87l-113 -119h-72zM47 251c0 80 23.835 144 71.502 192s106.5 72 176.5 72c66.667 0 118.5 -22.167 155.5 -66.5s55.5 -99.5 55.5 -165.5l-3 -32h-386c1.33301 -62.667 20.666 -112 57.999 -148s83 -54 137 -54c27.333 0 53.666 5 78.999 15s44 20 56 30
l18 15l31 -51c-5.33301 -5.33301 -13 -11.833 -23 -19.5s-31.167 -18 -63.5 -31s-65.5 -19.5 -99.5 -19.5c-75.333 0 -138 24.667 -188 74s-75 112.333 -75 189zM120.002 301h315c-2 50.667 -16.333 89.5 -43 116.5s-59.667 40.5 -99 40.5c-43.333 0 -81 -13.833 -113 -41.5
s-52 -66.167 -60 -115.5z" />
    <glyph glyph-name="ecircumflex" unicode="&#xea;" horiz-adv-x="552" 
d="M171 584l84 119h82l83 -119h-69l-54 81h-2l-54 -81h-70zM47 251c0 80 23.835 144 71.502 192s106.5 72 176.5 72c66.667 0 118.5 -22.167 155.5 -66.5s55.5 -99.5 55.5 -165.5l-3 -32h-386c1.33301 -62.667 20.666 -112 57.999 -148s83 -54 137 -54
c27.333 0 53.666 5 78.999 15s44 20 56 30l18 15l31 -51c-5.33301 -5.33301 -13 -11.833 -23 -19.5s-31.167 -18 -63.5 -31s-65.5 -19.5 -99.5 -19.5c-75.333 0 -138 24.667 -188 74s-75 112.333 -75 189zM120.002 301h315c-2 50.667 -16.333 89.5 -43 116.5
s-59.667 40.5 -99 40.5c-43.333 0 -81 -13.833 -113 -41.5s-52 -66.167 -60 -115.5z" />
    <glyph glyph-name="edieresis" unicode="&#xeb;" horiz-adv-x="552" 
d="M353 617v86h69v-86h-69zM170 617v86h69v-86h-69zM47 251c0 80 23.835 144 71.502 192s106.5 72 176.5 72c66.667 0 118.5 -22.167 155.5 -66.5s55.5 -99.5 55.5 -165.5l-3 -32h-386c1.33301 -62.667 20.666 -112 57.999 -148s83 -54 137 -54c27.333 0 53.666 5 78.999 15
s44 20 56 30l18 15l31 -51c-5.33301 -5.33301 -13 -11.833 -23 -19.5s-31.167 -18 -63.5 -31s-65.5 -19.5 -99.5 -19.5c-75.333 0 -138 24.667 -188 74s-75 112.333 -75 189zM120.002 301h315c-2 50.667 -16.333 89.5 -43 116.5s-59.667 40.5 -99 40.5
c-43.333 0 -81 -13.833 -113 -41.5s-52 -66.167 -60 -115.5z" />
    <glyph glyph-name="igrave" unicode="&#xec;" horiz-adv-x="304" 
d="M47 0v56h77v391h-78v56h146v-447h77v-56h-222zM133 584l-113 119h87l98 -119h-72z" />
    <glyph glyph-name="iacute" unicode="&#xed;" horiz-adv-x="304" 
d="M109 584l98 119h87l-113 -119h-72zM47 0v56h77v391h-78v56h146v-447h77v-56h-222z" />
    <glyph glyph-name="icircumflex" unicode="&#xee;" horiz-adv-x="304" 
d="M33 584l84 119h82l83 -119h-69l-54 81h-2l-54 -81h-70zM47 0v56h77v391h-78v56h146v-447h77v-56h-222z" />
    <glyph glyph-name="idieresis" unicode="&#xef;" horiz-adv-x="304" 
d="M47 0v56h77v391h-78v56h146v-447h77v-56h-222zM198 617v86h69v-86h-69zM40 617v86h69v-86h-69z" />
    <glyph glyph-name="eth" unicode="&#xf0;" horiz-adv-x="587" 
d="M48 232c0 64 21.168 119.166 63.501 165.499s100.833 69.5 175.5 69.5c28.667 0 55 -4.5 79 -13.5s40.667 -18.167 50 -27.5l15 -13h2c-22 64 -63.667 117.333 -125 160l-175 -79l-14 44l138 63c-43.333 22.667 -91.333 40.334 -144 53.001l19 58
c78 -19.333 144.667 -45.666 200 -78.999l128 59l13 -44l-98 -45c100.667 -80.667 151 -190.667 151 -330c0 -34.667 -4.83301 -68.334 -14.5 -101.001s-24 -63 -43 -91s-44.833 -50.5 -77.5 -67.5s-70 -25.5 -112 -25.5c-70.667 0 -126.834 24.333 -168.501 73
s-62.5 105.667 -62.5 171zM118.001 230.999c0 -49.333 14.667 -92 44 -128s69 -54 119 -54c56.667 0 100.167 21.5 130.5 64.5s45.5 91.833 45.5 146.5c0 43.333 -15.167 79 -45.5 107s-69.833 42 -118.5 42c-56.667 0 -100 -17.5 -130 -52.5s-45 -76.833 -45 -125.5z" />
    <glyph glyph-name="ntilde" unicode="&#xf1;" horiz-adv-x="674" 
d="M46 0v56.001h85v369c0 14.667 -7.33301 22 -22 22h-68v56h96c40.667 0 61 -18.667 61 -56v-29l-4 -36h2c4 11.333 11 23.833 21 37.5s23 28 39 43s36.833 27.5 62.5 37.5s53.167 15 82.5 15c60 0 102.833 -16.333 128.5 -49s38.5 -81.334 38.5 -146.001v-264h85v-56h-153
v302c0 47.333 -7.33301 84 -22 110s-44 39 -88 39c-54.667 0 -100.167 -20.667 -136.5 -62s-54.5 -90.333 -54.5 -147v-186h85v-56h-238zM201 587.001c0 78 30.999 117.003 92.999 117.003c20.667 0 38.667 -5.83301 54 -17.5s28.5 -23.334 39.5 -35.001
s22.167 -17.5 33.5 -17.5c27.333 0 41 22.333 41 67h57c0 -78 -31 -117 -93 -117c-16.667 0 -31.5 3.66699 -44.5 11s-23 15.166 -30 23.499s-15.167 16.166 -24.5 23.499s-18.666 11 -27.999 11c-26.667 0 -40 -22 -40 -66h-58z" />
    <glyph glyph-name="ograve" unicode="&#xf2;" horiz-adv-x="621" 
d="M45 254c0 74 25.833 136 77.5 186s114.167 75 187.5 75c74 0 136.833 -25 188.5 -75s77.5 -112 77.5 -186c0 -75.333 -25.833 -138.5 -77.5 -189.5s-114.5 -76.5 -188.5 -76.5c-73.333 0 -135.833 25.5 -187.5 76.5s-77.5 114.167 -77.5 189.5zM115 254
c0 -58 19 -106.667 57 -146s84 -59 138 -59c54.667 0 101 19.667 139 59s57 88 57 146c0 56.667 -19 104.167 -57 142.5s-84.333 57.5 -139 57.5c-54 0 -100 -19.167 -138 -57.5s-57 -85.833 -57 -142.5zM286 584l-113 119h87l98 -119h-72z" />
    <glyph glyph-name="oacute" unicode="&#xf3;" horiz-adv-x="621" 
d="M262 584l98 119h87l-113 -119h-72zM45 254c0 74 25.833 136 77.5 186s114.167 75 187.5 75c74 0 136.833 -25 188.5 -75s77.5 -112 77.5 -186c0 -75.333 -25.833 -138.5 -77.5 -189.5s-114.5 -76.5 -188.5 -76.5c-73.333 0 -135.833 25.5 -187.5 76.5
s-77.5 114.167 -77.5 189.5zM115 254c0 -58 19 -106.667 57 -146s84 -59 138 -59c54.667 0 101 19.667 139 59s57 88 57 146c0 56.667 -19 104.167 -57 142.5s-84.333 57.5 -139 57.5c-54 0 -100 -19.167 -138 -57.5s-57 -85.833 -57 -142.5z" />
    <glyph glyph-name="ocircumflex" unicode="&#xf4;" horiz-adv-x="621" 
d="M186 584l84 119h82l83 -119h-69l-54 81h-2l-54 -81h-70zM45 254c0 74 25.833 136 77.5 186s114.167 75 187.5 75c74 0 136.833 -25 188.5 -75s77.5 -112 77.5 -186c0 -75.333 -25.833 -138.5 -77.5 -189.5s-114.5 -76.5 -188.5 -76.5
c-73.333 0 -135.833 25.5 -187.5 76.5s-77.5 114.167 -77.5 189.5zM115 254c0 -58 19 -106.667 57 -146s84 -59 138 -59c54.667 0 101 19.667 139 59s57 88 57 146c0 56.667 -19 104.167 -57 142.5s-84.333 57.5 -139 57.5c-54 0 -100 -19.167 -138 -57.5
s-57 -85.833 -57 -142.5z" />
    <glyph glyph-name="otilde" unicode="&#xf5;" horiz-adv-x="621" 
d="M45 254c0 74 25.833 136 77.5 186s114.167 75 187.5 75c74 0 136.833 -25 188.5 -75s77.5 -112 77.5 -186c0 -75.333 -25.833 -138.5 -77.5 -189.5s-114.5 -76.5 -188.5 -76.5c-73.333 0 -135.833 25.5 -187.5 76.5s-77.5 114.167 -77.5 189.5zM115 254
c0 -58 19 -106.667 57 -146s84 -59 138 -59c54.667 0 101 19.667 139 59s57 88 57 146c0 56.667 -19 104.167 -57 142.5s-84.333 57.5 -139 57.5c-54 0 -100 -19.167 -138 -57.5s-57 -85.833 -57 -142.5zM152 587c0 78 30.999 117.003 92.999 117.003
c20.667 0 38.667 -5.83301 54 -17.5s28.5 -23.334 39.5 -35.001s22.167 -17.5 33.5 -17.5c27.333 0 41 22.333 41 67h57c0 -78 -31 -117 -93 -117c-16.667 0 -31.5 3.66699 -44.5 11s-23 15.166 -30 23.499s-15.167 16.166 -24.5 23.499s-18.666 11 -27.999 11
c-26.667 0 -40 -22 -40 -66h-58z" />
    <glyph glyph-name="odieresis" unicode="&#xf6;" horiz-adv-x="621" 
d="M368 617v86h69v-86h-69zM185 617v86h69v-86h-69zM45 254c0 74 25.833 136 77.5 186s114.167 75 187.5 75c74 0 136.833 -25 188.5 -75s77.5 -112 77.5 -186c0 -75.333 -25.833 -138.5 -77.5 -189.5s-114.5 -76.5 -188.5 -76.5c-73.333 0 -135.833 25.5 -187.5 76.5
s-77.5 114.167 -77.5 189.5zM115 254c0 -58 19 -106.667 57 -146s84 -59 138 -59c54.667 0 101 19.667 139 59s57 88 57 146c0 56.667 -19 104.167 -57 142.5s-84.333 57.5 -139 57.5c-54 0 -100 -19.167 -138 -57.5s-57 -85.833 -57 -142.5z" />
    <glyph glyph-name="divide" unicode="&#xf7;" horiz-adv-x="606" 
d="M265 433v74h75v-74h-75zM58 255v58h490v-58h-490zM265 61v74h75v-74h-75z" />
    <glyph glyph-name="oslash" unicode="&#xf8;" horiz-adv-x="621" 
d="M105 -4l37 51c-64.667 52.667 -97 121.667 -97 207c0 74 25.833 136 77.5 186s114.167 75 187.5 75c50.667 0 97 -12.667 139 -38l39 54l36 -26l-38 -54c60 -52 90 -117.667 90 -197c0 -75.333 -25.833 -138.5 -77.5 -189.5s-114.167 -76.5 -187.5 -76.5
c-48 0 -91.667 11.667 -131 35l-39 -54zM180 101l232.001 324c-32.667 19.333 -66.334 29 -101.001 29c-54.667 0 -101 -19.167 -139 -57.5s-57 -85.833 -57 -142.5c0 -60 21.667 -111 65 -153zM217.001 75c31.333 -17.333 62.667 -26 94 -26c54 0 100 19.667 138 59
s57 88 57 146c0 56 -20 103.333 -60 142z" />
    <glyph glyph-name="ugrave" unicode="&#xf9;" horiz-adv-x="651" 
d="M107 183l0.00292969 264.003h-90v56h158v-303c0 -22.667 1.16699 -41.834 3.5 -57.501s7.16602 -31 14.499 -46s18.666 -26.333 33.999 -34s34.666 -11.5 57.999 -11.5c54.667 0 99.167 21.167 133.5 63.5s51.5 92.166 51.5 149.499v183h-90v56h158v-426
c0 -14.667 7.33301 -22 22 -22h57v-55h-85c-40 0 -60 18.667 -60 56v25l1 36h-2c-4 -11.333 -10.667 -23.5 -20 -36.5s-21.833 -26.833 -37.5 -41.5s-35.834 -26.834 -60.501 -36.501s-51.667 -14.5 -81 -14.5c-57.333 0 -99.166 16 -125.499 48s-39.5 81 -39.5 147z
M287.003 584.003l-113 119h87l98 -119h-72z" />
    <glyph glyph-name="uacute" unicode="&#xfa;" horiz-adv-x="651" 
d="M263 584l98 119h87l-113 -119h-72zM107 183l0.00292969 264.003h-90v56h158v-303c0 -22.667 1.16699 -41.834 3.5 -57.501s7.16602 -31 14.499 -46s18.666 -26.333 33.999 -34s34.666 -11.5 57.999 -11.5c54.667 0 99.167 21.167 133.5 63.5s51.5 92.166 51.5 149.499
v183h-90v56h158v-426c0 -14.667 7.33301 -22 22 -22h57v-55h-85c-40 0 -60 18.667 -60 56v25l1 36h-2c-4 -11.333 -10.667 -23.5 -20 -36.5s-21.833 -26.833 -37.5 -41.5s-35.834 -26.834 -60.501 -36.501s-51.667 -14.5 -81 -14.5c-57.333 0 -99.166 16 -125.499 48
s-39.5 81 -39.5 147z" />
    <glyph glyph-name="ucircumflex" unicode="&#xfb;" horiz-adv-x="651" 
d="M186 584l84 119h82l83 -119h-69l-54 81h-2l-54 -81h-70zM107 183l0.00292969 264.003h-90v56h158v-303c0 -22.667 1.16699 -41.834 3.5 -57.501s7.16602 -31 14.499 -46s18.666 -26.333 33.999 -34s34.666 -11.5 57.999 -11.5c54.667 0 99.167 21.167 133.5 63.5
s51.5 92.166 51.5 149.499v183h-90v56h158v-426c0 -14.667 7.33301 -22 22 -22h57v-55h-85c-40 0 -60 18.667 -60 56v25l1 36h-2c-4 -11.333 -10.667 -23.5 -20 -36.5s-21.833 -26.833 -37.5 -41.5s-35.834 -26.834 -60.501 -36.501s-51.667 -14.5 -81 -14.5
c-57.333 0 -99.166 16 -125.499 48s-39.5 81 -39.5 147z" />
    <glyph glyph-name="udieresis" unicode="&#xfc;" horiz-adv-x="651" 
d="M369 617v86h69v-86h-69zM186 617v86h69v-86h-69zM107 183l0.00292969 264.003h-90v56h158v-303c0 -22.667 1.16699 -41.834 3.5 -57.501s7.16602 -31 14.499 -46s18.666 -26.333 33.999 -34s34.666 -11.5 57.999 -11.5c54.667 0 99.167 21.167 133.5 63.5
s51.5 92.166 51.5 149.499v183h-90v56h158v-426c0 -14.667 7.33301 -22 22 -22h57v-55h-85c-40 0 -60 18.667 -60 56v25l1 36h-2c-4 -11.333 -10.667 -23.5 -20 -36.5s-21.833 -26.833 -37.5 -41.5s-35.834 -26.834 -60.501 -36.501s-51.667 -14.5 -81 -14.5
c-57.333 0 -99.166 16 -125.499 48s-39.5 81 -39.5 147z" />
    <glyph glyph-name="yacute" unicode="&#xfd;" horiz-adv-x="574" 
d="M63 -126c19.333 -16 41.6689 -23.999 67.002 -23.999c40.667 0 72.667 26.667 96 80l28 67l-180 450h-66v56h211v-56h-73l132 -343l8 -36h3c2 11.333 5.33301 23.333 10 36l132 343h-73v56h208v-56h-66l-214 -540c-14.667 -36.667 -35.334 -65.334 -62.001 -86.001
s-57.334 -31 -92.001 -31c-16.667 0 -33 2.5 -49 7.5s-27.667 9.83301 -35 14.5l-11 8zM244.003 584.001l98 119h87l-113 -119h-72z" />
    <glyph glyph-name="thorn" unicode="&#xfe;" horiz-adv-x="596" 
d="M4 647l-0.000976562 56h154v-244l-1 -41h2l5 10.5c2 4.33301 7.66699 12 17 23s19.833 20.833 31.5 29.5s27.834 16.5 48.501 23.5s43 10.5 67 10.5c67.333 0 120.833 -24.333 160.5 -73s59.5 -112 59.5 -190c0 -78.667 -20.833 -142.334 -62.5 -191.001
s-95.5 -73 -161.5 -73c-23.333 0 -44.833 3.33301 -64.5 10s-35.5 14.667 -47.5 24s-22.333 18.833 -31 28.5s-14.667 17.834 -18 24.501l-5 10h-2c1.33301 -12 2 -26.667 2 -44v-185h85v-56h-238v56h85v791h-86zM155.999 251c0 -56.667 14.5 -104.5 43.5 -143.5
s68.167 -58.5 117.5 -58.5c46 0 84.333 18.5 115 55.5s46 86.167 46 147.5c0 60 -14.667 108.667 -44 146s-67.333 56 -114 56s-85.667 -17 -117 -51s-47 -84.667 -47 -152z" />
    <glyph glyph-name="ydieresis" unicode="&#xff;" horiz-adv-x="574" 
d="M63 -126c19.333 -16 41.6689 -23.999 67.002 -23.999c40.667 0 72.667 26.667 96 80l28 67l-180 450h-66v56h211v-56h-73l132 -343l8 -36h3c2 11.333 5.33301 23.333 10 36l132 343h-73v56h208v-56h-66l-214 -540c-14.667 -36.667 -35.334 -65.334 -62.001 -86.001
s-57.334 -31 -92.001 -31c-16.667 0 -33 2.5 -49 7.5s-27.667 9.83301 -35 14.5l-11 8zM350.003 617.001v86h69v-86h-69zM167.003 617.001v86h69v-86h-69z" />
    <glyph glyph-name="Amacron" unicode="&#x100;" horiz-adv-x="717" 
d="M11 0v58h72l237 645h77l237 -645h72v-58h-225v58h81l-67 181h-274l-66 -181h81v-58h-225zM240 298h235.999l-105 288l-11 45h-3c-1.33301 -14.667 -4.66602 -29.667 -9.99902 -45zM235.999 785v55h246v-55h-246z" />
    <glyph glyph-name="amacron" unicode="&#x101;" horiz-adv-x="546" 
d="M38 138c0 113.333 100.998 170 302.998 170h33v21c0 84.667 -40.333 127 -121 127c-25.333 0 -50.166 -4 -74.499 -12s-42.5 -16 -54.5 -24l-17 -13l-32 51c5.33301 4 12.833 9.16699 22.5 15.5s30.167 14.833 61.5 25.5s64 16 98 16c123.333 0 185 -63 185 -189v-248
c0 -14.667 7.33301 -22 22 -22h55v-56h-82c-40 -0 -60 18.333 -60 55v9l3 39h-2c-1.33301 -3.33301 -3.16602 -7.5 -5.49902 -12.5s-8.33301 -14.167 -18 -27.5s-20.334 -25 -32.001 -35s-28 -19.167 -49 -27.5s-43.5 -12.5 -67.5 -12.5c-45.333 0 -84.666 13 -117.999 39
s-50 63 -50 111zM107.998 145c0 -27.333 9.66797 -51 29.001 -71s45.666 -30 78.999 -30c47.333 0 85.5 19.5 114.5 58.5s43.5 82.5 43.5 130.5v24h-29c-158 0 -237 -37.333 -237 -112zM134.999 617v55h246v-55h-246z" />
    <glyph glyph-name="Abreve" unicode="&#x102;" horiz-adv-x="717" 
d="M11 0v58h72l237 645h77l237 -645h72v-58h-225v58h81l-67 181h-274l-66 -181h81v-58h-225zM240 298h235.999l-105 288l-11 45h-3c-1.33301 -14.667 -4.66602 -29.667 -9.99902 -45zM357.999 749c-32.667 0 -60.333 9.33301 -83 28s-34 45 -34 79v15h59v-13
c0 -20 5.5 -35 16.5 -45s24.833 -15 41.5 -15s30.667 5 42 15s17 25 17 45v13h59v-15c0 -34 -11.5 -60.333 -34.5 -79s-50.833 -28 -83.5 -28z" />
    <glyph glyph-name="abreve" unicode="&#x103;" horiz-adv-x="546" 
d="M38 138c0 113.333 100.998 170 302.998 170h33v21c0 84.667 -40.333 127 -121 127c-25.333 0 -50.166 -4 -74.499 -12s-42.5 -16 -54.5 -24l-17 -13l-32 51c5.33301 4 12.833 9.16699 22.5 15.5s30.167 14.833 61.5 25.5s64 16 98 16c123.333 0 185 -63 185 -189v-248
c0 -14.667 7.33301 -22 22 -22h55v-56h-82c-40 -0 -60 18.333 -60 55v9l3 39h-2c-1.33301 -3.33301 -3.16602 -7.5 -5.49902 -12.5s-8.33301 -14.167 -18 -27.5s-20.334 -25 -32.001 -35s-28 -19.167 -49 -27.5s-43.5 -12.5 -67.5 -12.5c-45.333 0 -84.666 13 -117.999 39
s-50 63 -50 111zM107.998 145c0 -27.333 9.66797 -51 29.001 -71s45.666 -30 78.999 -30c47.333 0 85.5 19.5 114.5 58.5s43.5 82.5 43.5 130.5v24h-29c-158 0 -237 -37.333 -237 -112zM257.999 581c-32.667 0 -60.333 9.33301 -83 28s-34 45 -34 79v15h59v-13
c0 -20 5.5 -35 16.5 -45s24.833 -15 41.5 -15s30.667 5 42 15s17 25 17 45v13h59v-15c0 -34 -11.5 -60.333 -34.5 -79s-50.833 -28 -83.5 -28z" />
    <glyph glyph-name="Aogonek" unicode="&#x104;" horiz-adv-x="717" 
d="M558 -116c0 42 22.666 80.667 67.999 116h-145v58h81l-67 181h-274l-66 -181h81v-58h-225v58h72l237 645h77l237 -645h72v-58h-5c-10.667 -0 -27.167 -12.167 -49.5 -36.5s-33.5 -47.5 -33.5 -69.5c0 -18 8.33301 -31.333 25 -40s30.334 -13 41.001 -13l-15 -53
c-8 0.666992 -16.5 2.16699 -25.5 4.5s-20.833 6.66602 -35.5 12.999s-26.667 16.333 -36 30s-14 29.834 -14 48.501zM239.999 298h235.999l-105 288l-11 45h-3c-1.33301 -14.667 -4.66602 -29.667 -9.99902 -45z" />
    <glyph glyph-name="aogonek" unicode="&#x105;" horiz-adv-x="546" 
d="M372 -116c0 42 22.6631 80.665 67.9961 115.998h-7c-37.333 0 -56 18.333 -56 55v9l3 39h-2c-1.33301 -3.33301 -3.16602 -7.5 -5.49902 -12.5s-8.33301 -14.167 -18 -27.5s-20.334 -25 -32.001 -35s-28 -19.167 -49 -27.5s-43.5 -12.5 -67.5 -12.5
c-45.333 0 -84.666 13 -117.999 39s-50 63 -50 111c0 113.333 101 170 303 170h33v21c0 84.667 -40.333 127 -121 127c-25.333 0 -50.166 -4 -74.499 -12s-42.5 -16 -54.5 -24l-17 -13l-32 51c5.33301 4 12.833 9.16699 22.5 15.5s30.167 14.833 61.5 25.5s64 16 98 16
c123.333 0 185 -63 185 -189v-248c0 -14.667 7.33301 -22 22 -22h55v-56h-5c-10.667 0 -27.167 -12.167 -49.5 -36.5s-33.5 -47.5 -33.5 -69.5c0 -18 8.33301 -31.333 25 -40s30.334 -13 41.001 -13l-14 -53c-8.66699 0.666992 -17.5 2.33398 -26.5 5.00098
s-20.667 7 -35 13s-26.166 15.833 -35.499 29.5s-14 29.834 -14 48.501zM107.996 144.998c0 -27.333 9.66797 -51 29.001 -71s45.666 -30 78.999 -30c47.333 0 85.5 19.5 114.5 58.5s43.5 82.5 43.5 130.5v24h-29c-158 0 -237 -37.333 -237 -112z" />
    <glyph glyph-name="Cacute" unicode="&#x106;" horiz-adv-x="742" 
d="M350 752l98 119h87l-113 -119h-72zM54 356c0 102 34.165 187.335 102.498 256.002s152.833 103 253.5 103c24 0 49.833 -2.33301 77.5 -7s55.834 -12 84.501 -22s52.5 -24.667 71.5 -44s28.5 -41.666 28.5 -66.999v-75h-67v56c0 21.333 -11.333 39.666 -34 54.999
s-48 26 -76 32s-55.333 9 -82 9c-82 0 -150.167 -27.833 -204.5 -83.5s-81.5 -125.834 -81.5 -210.501c0 -88 27.5 -161.167 82.5 -219.5s124.167 -87.5 207.5 -87.5c16.667 0 35.334 1.66699 56.001 5s42.167 8.33301 64.5 15s41 16.667 56 30s22.5 28.666 22.5 45.999v55
h67v-75c0 -24 -9.16699 -45.5 -27.5 -64.5s-41.833 -33.667 -70.5 -44s-57.5 -18 -86.5 -23s-56.833 -7.5 -83.5 -7.5c-104 0 -190.167 35.5 -258.5 106.5s-102.5 158.167 -102.5 261.5z" />
    <glyph glyph-name="cacute" unicode="&#x107;" horiz-adv-x="550" 
d="M247 584l98 119h87l-113 -119h-72zM46 250c0 77.333 25.332 140.832 75.999 190.499s113 74.5 187 74.5c17.333 0 36 -1.83301 56 -5.5s40.167 -9.5 60.5 -17.5s37 -19.5 50 -34.5s19.5 -32.167 19.5 -51.5v-55h-63v37c0 20.667 -13.333 36.834 -40 48.501
s-54 17.5 -82 17.5c-56 0 -102.333 -18.667 -139 -56s-55 -86 -55 -146c0 -60.667 19 -109.667 57 -147s84.667 -56 140 -56c13.333 0 26.5 1.16699 39.5 3.5s24.667 5.33301 35 9s19.833 7.66699 28.5 12s16.667 9.16602 24 14.499l18 13.5
c4.66699 3.66699 9 7.33398 13 11.001s6.33301 5.5 7 5.5l29 -52c-57.333 -52 -122.666 -78 -195.999 -78c-74 0 -136.667 24.167 -188 72.5s-77 111.5 -77 189.5z" />
    <glyph glyph-name="Ccircumflex" unicode="&#x108;" horiz-adv-x="742" 
d="M273 752l84 119h82l83 -119h-69l-54 81h-2l-54 -81h-70zM54 356c0 102 34.165 187.335 102.498 256.002s152.833 103 253.5 103c24 0 49.833 -2.33301 77.5 -7s55.834 -12 84.501 -22s52.5 -24.667 71.5 -44s28.5 -41.666 28.5 -66.999v-75h-67v56
c0 21.333 -11.333 39.666 -34 54.999s-48 26 -76 32s-55.333 9 -82 9c-82 0 -150.167 -27.833 -204.5 -83.5s-81.5 -125.834 -81.5 -210.501c0 -88 27.5 -161.167 82.5 -219.5s124.167 -87.5 207.5 -87.5c16.667 0 35.334 1.66699 56.001 5s42.167 8.33301 64.5 15
s41 16.667 56 30s22.5 28.666 22.5 45.999v55h67v-75c0 -24 -9.16699 -45.5 -27.5 -64.5s-41.833 -33.667 -70.5 -44s-57.5 -18 -86.5 -23s-56.833 -7.5 -83.5 -7.5c-104 0 -190.167 35.5 -258.5 106.5s-102.5 158.167 -102.5 261.5z" />
    <glyph glyph-name="ccircumflex" unicode="&#x109;" horiz-adv-x="550" 
d="M171 584l84 119h82l83 -119h-69l-54 81h-2l-54 -81h-70zM46 250c0 77.333 25.332 140.832 75.999 190.499s113 74.5 187 74.5c17.333 0 36 -1.83301 56 -5.5s40.167 -9.5 60.5 -17.5s37 -19.5 50 -34.5s19.5 -32.167 19.5 -51.5v-55h-63v37
c0 20.667 -13.333 36.834 -40 48.501s-54 17.5 -82 17.5c-56 0 -102.333 -18.667 -139 -56s-55 -86 -55 -146c0 -60.667 19 -109.667 57 -147s84.667 -56 140 -56c13.333 0 26.5 1.16699 39.5 3.5s24.667 5.33301 35 9s19.833 7.66699 28.5 12s16.667 9.16602 24 14.499
l18 13.5c4.66699 3.66699 9 7.33398 13 11.001s6.33301 5.5 7 5.5l29 -52c-57.333 -52 -122.666 -78 -195.999 -78c-74 0 -136.667 24.167 -188 72.5s-77 111.5 -77 189.5z" />
    <glyph glyph-name="Cdotaccent" unicode="&#x10a;" horiz-adv-x="742" 
d="M54 356c0 102 34.165 187.335 102.498 256.002s152.833 103 253.5 103c24 0 49.833 -2.33301 77.5 -7s55.834 -12 84.501 -22s52.5 -24.667 71.5 -44s28.5 -41.666 28.5 -66.999v-75h-67v56c0 21.333 -11.333 39.666 -34 54.999s-48 26 -76 32s-55.333 9 -82 9
c-82 0 -150.167 -27.833 -204.5 -83.5s-81.5 -125.834 -81.5 -210.501c0 -88 27.5 -161.167 82.5 -219.5s124.167 -87.5 207.5 -87.5c16.667 0 35.334 1.66699 56.001 5s42.167 8.33301 64.5 15s41 16.667 56 30s22.5 28.666 22.5 45.999v55h67v-75
c0 -24 -9.16699 -45.5 -27.5 -64.5s-41.833 -33.667 -70.5 -44s-57.5 -18 -86.5 -23s-56.833 -7.5 -83.5 -7.5c-104 0 -190.167 35.5 -258.5 106.5s-102.5 158.167 -102.5 261.5zM362.998 786.002v85h71v-85h-71z" />
    <glyph glyph-name="cdotaccent" unicode="&#x10b;" horiz-adv-x="550" 
d="M46 250c0 77.333 25.332 140.832 75.999 190.499s113 74.5 187 74.5c17.333 0 36 -1.83301 56 -5.5s40.167 -9.5 60.5 -17.5s37 -19.5 50 -34.5s19.5 -32.167 19.5 -51.5v-55h-63v37c0 20.667 -13.333 36.834 -40 48.501s-54 17.5 -82 17.5
c-56 0 -102.333 -18.667 -139 -56s-55 -86 -55 -146c0 -60.667 19 -109.667 57 -147s84.667 -56 140 -56c13.333 0 26.5 1.16699 39.5 3.5s24.667 5.33301 35 9s19.833 7.66699 28.5 12s16.667 9.16602 24 14.499l18 13.5c4.66699 3.66699 9 7.33398 13 11.001
s6.33301 5.5 7 5.5l29 -52c-57.333 -52 -122.666 -78 -195.999 -78c-74 0 -136.667 24.167 -188 72.5s-77 111.5 -77 189.5zM259.999 617.999v85h71v-85h-71z" />
    <glyph glyph-name="Ccaron" unicode="&#x10c;" horiz-adv-x="742" 
d="M357 752l-84 119h70l54 -80h2l54 80h69l-83 -119h-82zM54 356c0 102 34.165 187.335 102.498 256.002s152.833 103 253.5 103c24 0 49.833 -2.33301 77.5 -7s55.834 -12 84.501 -22s52.5 -24.667 71.5 -44s28.5 -41.666 28.5 -66.999v-75h-67v56
c0 21.333 -11.333 39.666 -34 54.999s-48 26 -76 32s-55.333 9 -82 9c-82 0 -150.167 -27.833 -204.5 -83.5s-81.5 -125.834 -81.5 -210.501c0 -88 27.5 -161.167 82.5 -219.5s124.167 -87.5 207.5 -87.5c16.667 0 35.334 1.66699 56.001 5s42.167 8.33301 64.5 15
s41 16.667 56 30s22.5 28.666 22.5 45.999v55h67v-75c0 -24 -9.16699 -45.5 -27.5 -64.5s-41.833 -33.667 -70.5 -44s-57.5 -18 -86.5 -23s-56.833 -7.5 -83.5 -7.5c-104 0 -190.167 35.5 -258.5 106.5s-102.5 158.167 -102.5 261.5z" />
    <glyph glyph-name="ccaron" unicode="&#x10d;" horiz-adv-x="550" 
d="M255 584l-84 119h70l54 -80h2l54 80h69l-83 -119h-82zM46 250c0 77.333 25.332 140.832 75.999 190.499s113 74.5 187 74.5c17.333 0 36 -1.83301 56 -5.5s40.167 -9.5 60.5 -17.5s37 -19.5 50 -34.5s19.5 -32.167 19.5 -51.5v-55h-63v37
c0 20.667 -13.333 36.834 -40 48.501s-54 17.5 -82 17.5c-56 0 -102.333 -18.667 -139 -56s-55 -86 -55 -146c0 -60.667 19 -109.667 57 -147s84.667 -56 140 -56c13.333 0 26.5 1.16699 39.5 3.5s24.667 5.33301 35 9s19.833 7.66699 28.5 12s16.667 9.16602 24 14.499
l18 13.5c4.66699 3.66699 9 7.33398 13 11.001s6.33301 5.5 7 5.5l29 -52c-57.333 -52 -122.666 -78 -195.999 -78c-74 0 -136.667 24.167 -188 72.5s-77 111.5 -77 189.5z" />
    <glyph glyph-name="Dcaron" unicode="&#x10e;" horiz-adv-x="776" 
d="M317 752l-84 119h70l54 -80h2l54 80h69l-83 -119h-82zM54 0v58h92v587h-92v58h297c60 0 110 -6 150 -18c67.333 -22 120.333 -62.167 159 -120.5s58 -129.5 58 -213.5c0 -85.333 -20 -157 -60 -215s-95.333 -97.667 -166 -119c-35.333 -11.333 -82.333 -17 -141 -17h-297
zM216 60h128.999c49.333 0 91 5.66699 125 17c54.667 18 97.5 50.667 128.5 98s46.5 106 46.5 176c0 69.333 -15 128 -45 176s-71.667 81.333 -125 100c-31.333 10.667 -74.666 16 -129.999 16h-129v-583z" />
    <glyph glyph-name="dcaron" unicode="&#x10f;" horiz-adv-x="618" 
d="M573 703h64c5.33301 -12.667 8 -28 8 -46c0 -46 -20.333 -82.333 -61 -109l-36 28c24 25.333 36 50.333 36 75c0 14 -3.66699 31.333 -11 52zM48 251c0 79.333 20.998 143.169 62.998 191.502s96.667 72.5 164 72.5c22.667 0 43.667 -3.33301 63 -10
s35 -14.834 47 -24.501s22.167 -19.334 30.5 -29.001s14.5 -17.834 18.5 -24.501l5 -10h2c-2 11.333 -3 24.333 -3 39v191h-90v56h158v-625c0 -14.667 7.33301 -22 22 -22h56v-56h-83c-40 0 -60 18.333 -60 55v9l4 31h-2l-5.5 -11.5c-2.33301 -5 -8.33301 -13.667 -18 -26
s-20.667 -23.166 -33 -32.499s-29.166 -17.833 -50.499 -25.5s-44.666 -11.5 -69.999 -11.5c-66.667 0 -119.667 24.167 -159 72.5s-59 111.833 -59 190.5zM117.998 251.003c0 -61.333 14.6689 -110.333 44.002 -147s67.666 -55 114.999 -55c46 0 84.667 17 116 51
s47 84.333 47 151c0 55.333 -13.833 102.833 -41.5 142.5s-66.834 59.5 -117.501 59.5c-46.667 0 -85.5 -18.167 -116.5 -54.5s-46.5 -85.5 -46.5 -147.5z" />
    <glyph glyph-name="Dcroat" unicode="&#x110;" horiz-adv-x="785" 
d="M54 0v57.999h92v265h-78v60h78v262h-92v58h320c106.667 0 192.167 -31.167 256.5 -93.5s96.5 -148.166 96.5 -257.499c0 -110.667 -32 -197 -96 -259s-149.667 -93 -257 -93h-320zM216 59.999l151 -0.000976562c88 0 157.833 25.333 209.5 76s77.5 122.667 77.5 216
c0 92.667 -26 164.334 -78 215.001s-121.667 76 -209 76h-151v-260h170v-60h-170v-263z" />
    <glyph glyph-name="dcroat" unicode="&#x111;" horiz-adv-x="618" 
d="M48 251c0 79.333 20.998 143.167 62.998 191.5s96.667 72.5 164 72.5c22.667 0 43.667 -3.5 63 -10.5s35 -15.5 47 -25.5s22.167 -19.833 30.5 -29.5s14.5 -18.167 18.5 -25.5l5 -10h2c-2 11.333 -3 24.666 -3 39.999v113h-152v51h152v85h68v-85h80v-51h-80v-489
c0 -14.667 7.33301 -22 22 -22h56v-56h-83c-40 0 -60 18.333 -60 55v9l4 31h-2l-5.5 -11.5c-2.33301 -5 -8.33301 -13.667 -18 -26s-20.667 -23.166 -33 -32.499s-29.166 -17.833 -50.499 -25.5s-44.666 -11.5 -69.999 -11.5c-66.667 0 -119.667 24.167 -159 72.5
s-59 111.833 -59 190.5zM117.998 251.001c0 -61.333 14.6689 -110.333 44.002 -147s67.666 -55 114.999 -55c46 0 84.667 17 116 51s47 84.333 47 151c0 55.333 -13.833 102.833 -41.5 142.5s-66.834 59.5 -117.501 59.5c-46.667 0 -85.5 -18.167 -116.5 -54.5
s-46.5 -85.5 -46.5 -147.5z" />
    <glyph glyph-name="Emacron" unicode="&#x112;" horiz-adv-x="626" 
d="M54 0v58h92v587h-92v58h497v-146h-64v86h-271v-259h266v-60h-266v-264h290v91h63v-151h-515zM198 785v55h246v-55h-246z" />
    <glyph glyph-name="emacron" unicode="&#x113;" horiz-adv-x="552" 
d="M47 251c0 80 23.835 144 71.502 192s106.5 72 176.5 72c66.667 0 118.5 -22.167 155.5 -66.5s55.5 -99.5 55.5 -165.5l-3 -32h-386c1.33301 -62.667 20.666 -112 57.999 -148s83 -54 137 -54c27.333 0 53.666 5 78.999 15s44 20 56 30l18 15l31 -51
c-5.33301 -5.33301 -13 -11.833 -23 -19.5s-31.167 -18 -63.5 -31s-65.5 -19.5 -99.5 -19.5c-75.333 0 -138 24.667 -188 74s-75 112.333 -75 189zM120.002 301h315c-2 50.667 -16.333 89.5 -43 116.5s-59.667 40.5 -99 40.5c-43.333 0 -81 -13.833 -113 -41.5
s-52 -66.167 -60 -115.5zM173.002 617v55h246v-55h-246z" />
    <glyph glyph-name="Ebreve" unicode="&#x114;" horiz-adv-x="626" 
d="M54 0v58h92v587h-92v58h497v-146h-64v86h-271v-259h266v-60h-266v-264h290v91h63v-151h-515zM320 749c-32.667 0 -60.333 9.33301 -83 28s-34 45 -34 79v15h59v-13c0 -20 5.5 -35 16.5 -45s24.833 -15 41.5 -15s30.667 5 42 15s17 25 17 45v13h59v-15
c0 -34 -11.5 -60.333 -34.5 -79s-50.833 -28 -83.5 -28z" />
    <glyph glyph-name="ebreve" unicode="&#x115;" horiz-adv-x="552" 
d="M47 251c0 80 23.835 144 71.502 192s106.5 72 176.5 72c66.667 0 118.5 -22.167 155.5 -66.5s55.5 -99.5 55.5 -165.5l-3 -32h-386c1.33301 -62.667 20.666 -112 57.999 -148s83 -54 137 -54c27.333 0 53.666 5 78.999 15s44 20 56 30l18 15l31 -51
c-5.33301 -5.33301 -13 -11.833 -23 -19.5s-31.167 -18 -63.5 -31s-65.5 -19.5 -99.5 -19.5c-75.333 0 -138 24.667 -188 74s-75 112.333 -75 189zM120.002 301h315c-2 50.667 -16.333 89.5 -43 116.5s-59.667 40.5 -99 40.5c-43.333 0 -81 -13.833 -113 -41.5
s-52 -66.167 -60 -115.5zM295.002 581c-32.667 0 -60.333 9.33301 -83 28s-34 45 -34 79v15h59v-13c0 -20 5.5 -35 16.5 -45s24.833 -15 41.5 -15s30.667 5 42 15s17 25 17 45v13h59v-15c0 -34 -11.5 -60.333 -34.5 -79s-50.833 -28 -83.5 -28z" />
    <glyph glyph-name="Edotaccent" unicode="&#x116;" horiz-adv-x="626" 
d="M54 0v58h92v587h-92v58h497v-146h-64v86h-271v-259h266v-60h-266v-264h290v91h63v-151h-515zM285 786v85h71v-85h-71z" />
    <glyph glyph-name="edotaccent" unicode="&#x117;" horiz-adv-x="552" 
d="M47 251c0 80 23.835 144 71.502 192s106.5 72 176.5 72c66.667 0 118.5 -22.167 155.5 -66.5s55.5 -99.5 55.5 -165.5l-3 -32h-386c1.33301 -62.667 20.666 -112 57.999 -148s83 -54 137 -54c27.333 0 53.666 5 78.999 15s44 20 56 30l18 15l31 -51
c-5.33301 -5.33301 -13 -11.833 -23 -19.5s-31.167 -18 -63.5 -31s-65.5 -19.5 -99.5 -19.5c-75.333 0 -138 24.667 -188 74s-75 112.333 -75 189zM120.002 301h315c-2 50.667 -16.333 89.5 -43 116.5s-59.667 40.5 -99 40.5c-43.333 0 -81 -13.833 -113 -41.5
s-52 -66.167 -60 -115.5zM260.002 618v85h71v-85h-71z" />
    <glyph glyph-name="Eogonek" unicode="&#x118;" horiz-adv-x="626" 
d="M54 0l-0.000976562 57.998h92v587h-92v58h497v-146h-64v86h-271v-259h266v-60h-266v-264h290v91h63v-151h-5c-10.667 0 -27.334 -12 -50.001 -36s-34 -47.333 -34 -70c0 -18 8.33301 -31.333 25 -40s30.334 -13 41.001 -13l-14 -53
c-8.66699 0.666992 -17.5 2.33398 -26.5 5.00098s-20.667 7 -35 13s-26.166 15.833 -35.499 29.5s-14 29.834 -14 48.501c0 42 22.667 80.667 68 116h-435z" />
    <glyph glyph-name="eogonek" unicode="&#x119;" horiz-adv-x="551" 
d="M46 251c0 80 23.834 143.998 71.501 191.998s106.5 72 176.5 72c66.667 0 118.5 -22.167 155.5 -66.5s55.5 -99.5 55.5 -165.5l-3 -32h-386c1.33301 -62.667 20.666 -112 57.999 -148s83 -54 137 -54c27.333 0 53.666 5 78.999 15s44 20 56 30l18 15l31 -51
c-22.667 -19.333 -50.667 -37.333 -84 -54c-12.667 -5.33301 -29.334 -19 -50.001 -41s-31 -45 -31 -69c0 -18 8.33301 -31.333 25 -40s30.334 -13 41.001 -13l-14 -53c-8.66699 0.666992 -17.5 2.33398 -26.5 5.00098s-20.667 7 -35 13s-26.166 15.833 -35.499 29.5
s-14 29.834 -14 48.501c0 38 18 73 54 105c-80 -4.66699 -146.5 18.333 -199.5 69s-79.5 115 -79.5 193zM119.001 300.998h315c-2 50.667 -16.333 89.5 -43 116.5s-59.667 40.5 -99 40.5c-43.333 0 -81 -13.833 -113 -41.5s-52 -66.167 -60 -115.5z" />
    <glyph glyph-name="Ecaron" unicode="&#x11a;" horiz-adv-x="626" 
d="M279 752l-84 119h70l54 -80h2l54 80h69l-83 -119h-82zM54 0v58h92v587h-92v58h497v-146h-64v86h-271v-259h266v-60h-266v-264h290v91h63v-151h-515z" />
    <glyph glyph-name="ecaron" unicode="&#x11b;" horiz-adv-x="552" 
d="M255 584l-84 119h70l54 -80h2l54 80h69l-83 -119h-82zM47 251c0 80 23.835 144 71.502 192s106.5 72 176.5 72c66.667 0 118.5 -22.167 155.5 -66.5s55.5 -99.5 55.5 -165.5l-3 -32h-386c1.33301 -62.667 20.666 -112 57.999 -148s83 -54 137 -54
c27.333 0 53.666 5 78.999 15s44 20 56 30l18 15l31 -51c-5.33301 -5.33301 -13 -11.833 -23 -19.5s-31.167 -18 -63.5 -31s-65.5 -19.5 -99.5 -19.5c-75.333 0 -138 24.667 -188 74s-75 112.333 -75 189zM120.002 301h315c-2 50.667 -16.333 89.5 -43 116.5
s-59.667 40.5 -99 40.5c-43.333 0 -81 -13.833 -113 -41.5s-52 -66.167 -60 -115.5z" />
    <glyph glyph-name="Gcircumflex" unicode="&#x11c;" horiz-adv-x="767" 
d="M283 752l84 119h82l83 -119h-69l-54 81h-2l-54 -81h-70zM55 352c0 104.667 33.8311 191.332 101.498 259.999s155.5 103 263.5 103c42 0 82.833 -5.16699 122.5 -15.5s73.334 -26.333 101.001 -48s41.5 -46.5 41.5 -74.5v-77h-67v53c0 30.667 -20.333 54.834 -61 72.501
s-86 26.5 -136 26.5c-88.667 0 -159.667 -28 -213 -84s-80 -127.667 -80 -215s27 -159.5 81 -216.5s124.333 -85.5 211 -85.5c20 0 41.333 1.66699 64 5s45.834 8.5 69.501 15.5s43.167 17.667 58.5 32s23 30.833 23 49.5v110h-147v58h213v-184
c0 -34 -16.667 -62.833 -50 -86.5s-70.333 -40 -111 -49s-81 -13.5 -121 -13.5c-106.667 0 -194 34.5 -262 103.5s-102 155.833 -102 260.5z" />
    <glyph glyph-name="gcircumflex" unicode="&#x11d;" horiz-adv-x="612" 
d="M169 584l84 119h82l83 -119h-69l-54 81h-2l-54 -81h-70zM120 -115c41.333 -23.333 86.667 -34.999 136 -34.999c52.667 0 95.167 13 127.5 39s48.5 66 48.5 120v50l3 36h-2c-32.667 -61.333 -86 -92 -160 -92c-67.333 0 -121.5 24 -162.5 72s-61.5 110 -61.5 186
s19.667 137.333 59 184s92.333 70 159 70c38 0 72.5 -7.5 103.5 -22.5s52.833 -37.167 65.5 -66.5h2c-1.33301 4.66699 -2 12 -2 22c0 18.667 4.33301 32.5 13 41.5s23.667 13.5 45 13.5h90v-56h-62c-14.667 0 -22 -7 -22 -21v-414
c0 -74.667 -23.167 -130.334 -69.5 -167.001s-103.833 -55 -172.5 -55c-57.333 0 -112 13.333 -164 40zM283.001 64.001c44.667 0 80.833 15.5 108.5 46.5s41.5 81.167 41.5 150.5c0 128.667 -53 193 -159 193c-48.667 0 -86.667 -17 -114 -51s-41 -81 -41 -141
s15 -108 45 -144s69.667 -54 119 -54z" />
    <glyph glyph-name="Gbreve" unicode="&#x11e;" horiz-adv-x="767" 
d="M55 352c0 104.667 33.8311 191.332 101.498 259.999s155.5 103 263.5 103c42 0 82.833 -5.16699 122.5 -15.5s73.334 -26.333 101.001 -48s41.5 -46.5 41.5 -74.5v-77h-67v53c0 30.667 -20.333 54.834 -61 72.501s-86 26.5 -136 26.5c-88.667 0 -159.667 -28 -213 -84
s-80 -127.667 -80 -215s27 -159.5 81 -216.5s124.333 -85.5 211 -85.5c20 0 41.333 1.66699 64 5s45.834 8.5 69.501 15.5s43.167 17.667 58.5 32s23 30.833 23 49.5v110h-147v58h213v-184c0 -34 -16.667 -62.833 -50 -86.5s-70.333 -40 -111 -49s-81 -13.5 -121 -13.5
c-106.667 0 -194 34.5 -262 103.5s-102 155.833 -102 260.5zM406.998 748.998c-32.667 0 -60.333 9.33301 -83 28s-34 45 -34 79v15h59v-13c0 -20 5.5 -35 16.5 -45s24.833 -15 41.5 -15s30.667 5 42 15s17 25 17 45v13h59v-15c0 -34 -11.5 -60.333 -34.5 -79
s-50.833 -28 -83.5 -28z" />
    <glyph glyph-name="gbreve" unicode="&#x11f;" horiz-adv-x="612" 
d="M120 -115c41.333 -23.333 86.667 -34.999 136 -34.999c52.667 0 95.167 13 127.5 39s48.5 66 48.5 120v50l3 36h-2c-32.667 -61.333 -86 -92 -160 -92c-67.333 0 -121.5 24 -162.5 72s-61.5 110 -61.5 186s19.667 137.333 59 184s92.333 70 159 70
c38 0 72.5 -7.5 103.5 -22.5s52.833 -37.167 65.5 -66.5h2c-1.33301 4.66699 -2 12 -2 22c0 18.667 4.33301 32.5 13 41.5s23.667 13.5 45 13.5h90v-56h-62c-14.667 0 -22 -7 -22 -21v-414c0 -74.667 -23.167 -130.334 -69.5 -167.001s-103.833 -55 -172.5 -55
c-57.333 0 -112 13.333 -164 40zM283.001 64.001c44.667 0 80.833 15.5 108.5 46.5s41.5 81.167 41.5 150.5c0 128.667 -53 193 -159 193c-48.667 0 -86.667 -17 -114 -51s-41 -81 -41 -141s15 -108 45 -144s69.667 -54 119 -54zM294 581.001
c-32.667 0 -60.333 9.33301 -83 28s-34 45 -34 79v15h59v-13c0 -20 5.5 -35 16.5 -45s24.833 -15 41.5 -15s30.667 5 42 15s17 25 17 45v13h59v-15c0 -34 -11.5 -60.333 -34.5 -79s-50.833 -28 -83.5 -28z" />
    <glyph glyph-name="Gdotaccent" unicode="&#x120;" horiz-adv-x="767" 
d="M55 352c0 104.667 33.8311 191.332 101.498 259.999s155.5 103 263.5 103c42 0 82.833 -5.16699 122.5 -15.5s73.334 -26.333 101.001 -48s41.5 -46.5 41.5 -74.5v-77h-67v53c0 30.667 -20.333 54.834 -61 72.501s-86 26.5 -136 26.5c-88.667 0 -159.667 -28 -213 -84
s-80 -127.667 -80 -215s27 -159.5 81 -216.5s124.333 -85.5 211 -85.5c20 0 41.333 1.66699 64 5s45.834 8.5 69.501 15.5s43.167 17.667 58.5 32s23 30.833 23 49.5v110h-147v58h213v-184c0 -34 -16.667 -62.833 -50 -86.5s-70.333 -40 -111 -49s-81 -13.5 -121 -13.5
c-106.667 0 -194 34.5 -262 103.5s-102 155.833 -102 260.5zM371.998 785.998v85h71v-85h-71z" />
    <glyph glyph-name="gdotaccent" unicode="&#x121;" horiz-adv-x="612" 
d="M120 -115c41.333 -23.333 86.667 -34.999 136 -34.999c52.667 0 95.167 13 127.5 39s48.5 66 48.5 120v50l3 36h-2c-32.667 -61.333 -86 -92 -160 -92c-67.333 0 -121.5 24 -162.5 72s-61.5 110 -61.5 186s19.667 137.333 59 184s92.333 70 159 70
c38 0 72.5 -7.5 103.5 -22.5s52.833 -37.167 65.5 -66.5h2c-1.33301 4.66699 -2 12 -2 22c0 18.667 4.33301 32.5 13 41.5s23.667 13.5 45 13.5h90v-56h-62c-14.667 0 -22 -7 -22 -21v-414c0 -74.667 -23.167 -130.334 -69.5 -167.001s-103.833 -55 -172.5 -55
c-57.333 0 -112 13.333 -164 40zM283.001 64.001c44.667 0 80.833 15.5 108.5 46.5s41.5 81.167 41.5 150.5c0 128.667 -53 193 -159 193c-48.667 0 -86.667 -17 -114 -51s-41 -81 -41 -141s15 -108 45 -144s69.667 -54 119 -54zM259 618.001v85h71v-85h-71z" />
    <glyph glyph-name="Gcommaaccent" unicode="&#x122;" horiz-adv-x="767" 
d="M371 -62h64c5.33301 -12.667 8 -28 8 -46c0 -46 -20.333 -82.333 -61 -109l-36 28c24 25.333 36 50.333 36 75c0 14 -3.66699 31.333 -11 52zM55 352c0 104.667 33.8311 191.332 101.498 259.999s155.5 103 263.5 103c42 0 82.833 -5.16699 122.5 -15.5
s73.334 -26.333 101.001 -48s41.5 -46.5 41.5 -74.5v-77h-67v53c0 30.667 -20.333 54.834 -61 72.501s-86 26.5 -136 26.5c-88.667 0 -159.667 -28 -213 -84s-80 -127.667 -80 -215s27 -159.5 81 -216.5s124.333 -85.5 211 -85.5c20 0 41.333 1.66699 64 5
s45.834 8.5 69.501 15.5s43.167 17.667 58.5 32s23 30.833 23 49.5v110h-147v58h213v-184c0 -34 -16.667 -62.833 -50 -86.5s-70.333 -40 -111 -49s-81 -13.5 -121 -13.5c-106.667 0 -194 34.5 -262 103.5s-102 155.833 -102 260.5z" />
    <glyph glyph-name="gcommaaccent" unicode="&#x123;" horiz-adv-x="612" 
d="M317 577h-64c-5.33301 12.667 -8 28 -8 46c0 46 20.333 82.333 61 109l36 -28c-24 -25.333 -36 -50.333 -36 -75c0 -14 3.66699 -31.333 11 -52zM120 -115c41.333 -23.333 86.667 -34.999 136 -34.999c52.667 0 95.167 13 127.5 39s48.5 66 48.5 120v50l3 36h-2
c-32.667 -61.333 -86 -92 -160 -92c-67.333 0 -121.5 24 -162.5 72s-61.5 110 -61.5 186s19.667 137.333 59 184s92.333 70 159 70c38 0 72.5 -7.5 103.5 -22.5s52.833 -37.167 65.5 -66.5h2c-1.33301 4.66699 -2 12 -2 22c0 18.667 4.33301 32.5 13 41.5
s23.667 13.5 45 13.5h90v-56h-62c-14.667 0 -22 -7 -22 -21v-414c0 -74.667 -23.167 -130.334 -69.5 -167.001s-103.833 -55 -172.5 -55c-57.333 0 -112 13.333 -164 40zM283.001 64.001c44.667 0 80.833 15.5 108.5 46.5s41.5 81.167 41.5 150.5
c0 128.667 -53 193 -159 193c-48.667 0 -86.667 -17 -114 -51s-41 -81 -41 -141s15 -108 45 -144s69.667 -54 119 -54z" />
    <glyph glyph-name="Hcircumflex" unicode="&#x124;" horiz-adv-x="839" 
d="M295 752l84 119h82l83 -119h-69l-54 81h-2l-54 -81h-70zM54 0v58h92v587h-92v58h254v-58h-92v-263h407v263h-92v58h254v-58h-92v-587h92v-58h-254v58h92v264h-407v-264h92v-58h-254z" />
    <glyph glyph-name="hcircumflex" unicode="&#x125;" horiz-adv-x="658" 
d="M24 752l84 119h82l83 -119h-69l-54 81h-2l-54 -81h-70zM30 0l0.000976562 56h85v591h-90v56h158v-276l-4 -41h2c13.333 30.667 37.666 59.834 72.999 87.501s78.333 41.5 129 41.5c60 0 103 -16.333 129 -49s39 -81.334 39 -146.001v-264h86v-56h-154v302
c0 47.333 -7.16699 84 -21.5 110s-43.5 39 -87.5 39c-54 0 -99.333 -20 -136 -60s-55 -90 -55 -150v-185h85v-56h-238z" />
    <glyph glyph-name="Hbar" unicode="&#x126;" horiz-adv-x="839" 
d="M62 495v48h84v102h-92v58h254v-58h-92v-102h407v102h-92v58h254v-58h-92v-102h84v-48h-84v-437h92v-58h-254v58h92v262h-407v-262h92v-58h-254v58h92v437h-84zM216 374h407v121h-407v-121z" />
    <glyph glyph-name="hbar" unicode="&#x127;" horiz-adv-x="658" 
d="M30 0l0.000976562 56h85v511h-76v51h76v85h68v-85h153v-51h-153v-140l-4 -41h2c13.333 30.667 37.666 59.834 72.999 87.501s78.333 41.5 129 41.5c60 0 103 -16.333 129 -49s39 -81.334 39 -146.001v-264h86v-56h-154v302c0 47.333 -7.16699 84 -21.5 110
s-43.5 39 -87.5 39c-54.667 0 -100.167 -20.333 -136.5 -61s-54.5 -89.667 -54.5 -147v-187h82v-56h-235z" />
    <glyph glyph-name="Itilde" unicode="&#x128;" horiz-adv-x="362" 
d="M54 0v58h92v587h-92v58h254v-58h-92v-587h92v-58h-254zM23 755c0 78 30.999 117.003 92.999 117.003c20.667 0 38.667 -5.83301 54 -17.5s28.5 -23.334 39.5 -35.001s22.167 -17.5 33.5 -17.5c27.333 0 41 22.333 41 67h57c0 -78 -31 -117 -93 -117
c-16.667 0 -31.5 3.66699 -44.5 11s-23 15.166 -30 23.499s-15.167 16.166 -24.5 23.499s-18.666 11 -27.999 11c-26.667 0 -40 -22 -40 -66h-58z" />
    <glyph glyph-name="itilde" unicode="&#x129;" horiz-adv-x="304" 
d="M47 0v56h77v391h-78v56h146v-447h77v-56h-222zM-1 587c0 78 30.999 117.003 92.999 117.003c20.667 0 38.667 -5.83301 54 -17.5s28.5 -23.334 39.5 -35.001s22.167 -17.5 33.5 -17.5c27.333 0 41 22.333 41 67h57c0 -78 -31 -117 -93 -117
c-16.667 0 -31.5 3.66699 -44.5 11s-23 15.166 -30 23.499s-15.167 16.166 -24.5 23.499s-18.666 11 -27.999 11c-26.667 0 -40 -22 -40 -66h-58z" />
    <glyph glyph-name="Imacron" unicode="&#x12a;" horiz-adv-x="362" 
d="M54 0v58h92v587h-92v58h254v-58h-92v-587h92v-58h-254zM59 785v55h246v-55h-246z" />
    <glyph glyph-name="imacron" unicode="&#x12b;" horiz-adv-x="304" 
d="M47 0v56h77v391h-78v56h146v-447h77v-56h-222zM35 617v55h246v-55h-246z" />
    <glyph glyph-name="Ibreve" unicode="&#x12c;" horiz-adv-x="362" 
d="M54 0v58h92v587h-92v58h254v-58h-92v-587h92v-58h-254zM181 749c-32.667 0 -60.333 9.33301 -83 28s-34 45 -34 79v15h59v-13c0 -20 5.5 -35 16.5 -45s24.833 -15 41.5 -15s30.667 5 42 15s17 25 17 45v13h59v-15c0 -34 -11.5 -60.333 -34.5 -79s-50.833 -28 -83.5 -28z
" />
    <glyph glyph-name="ibreve" unicode="&#x12d;" horiz-adv-x="304" 
d="M47 0v56h77v391h-78v56h146v-447h77v-56h-222zM157 581c-32.667 0 -60.333 9.33301 -83 28s-34 45 -34 79v15h59v-13c0 -20 5.5 -35 16.5 -45s24.833 -15 41.5 -15s30.667 5 42 15s17 25 17 45v13h59v-15c0 -34 -11.5 -60.333 -34.5 -79s-50.833 -28 -83.5 -28z" />
    <glyph glyph-name="Iogonek" unicode="&#x12e;" horiz-adv-x="362" 
d="M54 0v58.001h92v587h-92v58h254v-58h-92v-587h92v-58h-7c-12 -1.33301 -28.667 -13.833 -50 -37.5s-32 -46.5 -32 -68.5c0 -18 8.33301 -31.333 25 -40s30.334 -13 41.001 -13l-15 -53c-6 0.666992 -12.167 1.66699 -18.5 3s-15.5 4.16602 -27.5 8.49902
s-22.333 9.66602 -31 15.999s-16.334 15.5 -23.001 27.5s-10 25.667 -10 41c0 42.667 22.333 81.334 67 116.001h-173z" />
    <glyph glyph-name="iogonek" unicode="&#x12f;" horiz-adv-x="314" 
d="M46 0l-0.00195312 55.998h85v391h-90v56h158v-447h85v-56h-4c-10.667 0 -27.167 -12.167 -49.5 -36.5s-33.5 -47.5 -33.5 -69.5c0 -18 8.33301 -31.333 25 -40s30.334 -13 41.001 -13l-15 -53c-8.66699 0.666992 -17.5 2.33398 -26.5 5.00098s-20.667 7 -35 13
s-26.166 15.833 -35.499 29.5s-14 29.834 -14 48.501c0 42 22.667 80.667 68 116h-159zM126.998 617.998v85h77v-85h-77z" />
    <glyph glyph-name="Idotaccent" unicode="&#x130;" horiz-adv-x="362" 
d="M54 0v58h92v587h-92v58h254v-58h-92v-587h92v-58h-254zM146 786v85h71v-85h-71z" />
    <glyph glyph-name="dotlessi" unicode="&#x131;" horiz-adv-x="304" 
d="M47 0v56h77v391h-78v56h146v-447h77v-56h-222z" />
    <glyph glyph-name="IJ" unicode="&#x132;" horiz-adv-x="699" 
d="M54 0v58h91v587h-92v58h254v-58h-92v-587h82v-58h-243zM353 57c18 0 34.668 2.00098 50.001 6.00098s30.666 11.333 45.999 22s27.5 27.667 36.5 51s13.5 51.666 13.5 84.999v424h-94v58h254v-58h-90v-420c0 -46 -6.33301 -84.833 -19 -116.5s-30 -55.334 -52 -71.001
s-44.667 -26.667 -68 -33s-49 -9.16602 -77 -8.49902v61z" />
    <glyph glyph-name="ij" unicode="&#x133;" horiz-adv-x="570" 
d="M127 618v85h77v-85h-77zM46 0v56h85v391h-90v56h158v-447h85v-56h-238zM407 618v85h77v-85h-77zM275 -145c6 -1.33301 13.334 -2 22.001 -2c12 0 23.667 1.5 35 4.5s23.5 8.5 36.5 16.5s23.5 21.333 31.5 40s12 41.667 12 69v464h-90v56h158v-521
c0 -32 -4.33301 -59.833 -13 -83.5s-19.334 -42 -32.001 -55s-27.667 -23.333 -45 -31s-32.5 -12.667 -45.5 -15s-26.5 -3.5 -40.5 -3.5l-29 3v58z" />
    <glyph glyph-name="Jcircumflex" unicode="&#x134;" horiz-adv-x="546" 
d="M261 752l84 119h82l83 -119h-69l-54 81h-2l-54 -81h-70zM29 192v33.001h69v-25c0 -42.667 10.833 -78 32.5 -106s53.167 -42 94.5 -42c35.333 0 65.333 12 90 36s37 61.333 37 112v445h-107v58h259v-58h-82v-451c0 -69.333 -19.333 -121 -58 -155s-85 -51 -139 -51
s-100.167 16.667 -138.5 50s-57.5 84.666 -57.5 153.999z" />
    <glyph glyph-name="jcircumflex" unicode="&#x135;" horiz-adv-x="274" 
d="M-3 584l83 119h82l84 -119h-70l-54 81h-2l-54 -81h-69zM-21 -145c6 -1.33301 13.334 -2 22.001 -2c12 0 23.667 1.5 35 4.5s23.5 8.5 36.5 16.5s23.5 21.333 31.5 40s12 41.667 12 69v464h-90v56h158v-521c0 -32 -4.33301 -59.833 -13 -83.5s-19.334 -42 -32.001 -55
s-27.667 -23.333 -45 -31s-32.5 -12.667 -45.5 -15s-26.5 -3.5 -40.5 -3.5l-29 3v58z" />
    <glyph glyph-name="Kcommaaccent" unicode="&#x136;" horiz-adv-x="669" 
d="M315 -62h64c5.33301 -12.667 8 -28 8 -46c0 -46 -20.333 -82.333 -61 -109l-36 28c24 25.333 36 50.333 36 75c0 14 -3.66699 31.333 -11 52zM54 0l0.000976562 58h92v587h-92v58h249v-58h-87v-248h103l172 248h-69v58h218v-58h-71l-194 -273v-2
c10.667 -5.33301 22 -19 34 -41l144 -243c11.333 -18.667 28.666 -28 51.999 -28h35v-58h-53c-28 0 -48 3.5 -60 10.5s-24.333 21.167 -37 42.5l-147 253c-12 20.667 -30.667 31 -56 31h-71v-279h91v-58h-253z" />
    <glyph glyph-name="kcommaaccent" unicode="&#x137;" horiz-adv-x="560" 
d="M272 -62h64c5.33301 -12.667 8 -28 8 -46c0 -46 -20.333 -82.333 -61 -109l-36 28c24 25.333 36 50.333 36 75c0 14 -3.66699 31.333 -11 52zM30 0l-0.00195312 56.002h85v591h-90v56h158v-396h79l119 140h-72v56h216v-56h-70l-138 -160v-2
c0.666992 0 2.33398 -0.833008 5.00098 -2.5s6.83398 -5.83398 12.501 -12.501s11.5 -15 17.5 -25l100 -168c5.33301 -8.66699 10.833 -14.334 16.5 -17.001s15.5 -4 29.5 -4h34v-56h-56c-24.667 0 -42.334 3.16699 -53.001 9.5s-22 19.833 -34 40.5l-107 181
c-9.33301 14 -25.666 21 -48.999 21h-50v-196h80v-56h-233z" />
    <glyph glyph-name="kgreenlandic" unicode="&#x138;" horiz-adv-x="576" 
d="M46 0l-0.00195312 56.001h85v391h-90v56h158v-194h80l118 138h-72v56h215v-56h-68l-138 -160v-2c0.666992 0 2.33398 -1 5.00098 -3s6.83398 -6.33301 12.501 -13s11.5 -15 17.5 -25l99 -167c5.33301 -8.66699 10.833 -14.334 16.5 -17.001s15.5 -4 29.5 -4h35v-56h-56
c-25.333 0 -43.333 3.16699 -54 9.5s-22 19.833 -34 40.5l-107 181c-8.66699 14 -25 21 -49 21h-50v-196h80v-56h-233z" />
    <glyph glyph-name="Lacute" unicode="&#x139;" horiz-adv-x="592" 
d="M132 752l98 119h87l-113 -119h-72zM54 0v58h92v585h-92v60h254v-60h-92v-583h281v117h64v-177h-507z" />
    <glyph glyph-name="lacute" unicode="&#x13a;" horiz-adv-x="271" 
d="M76 752l98 119h87l-113 -119h-72zM89 126v521h-89v56h157v-572c0 -50 19 -75 57 -75l28 2v-58c-12.667 -2 -25.667 -3 -39 -3c-76 0 -114 43 -114 129z" />
    <glyph glyph-name="Lcommaaccent" unicode="&#x13b;" horiz-adv-x="592" 
d="M303 -62h64c5.33301 -12.667 8 -28 8 -46c0 -46 -20.333 -82.333 -61 -109l-36 28c24 25.333 36 50.333 36 75c0 14 -3.66699 31.333 -11 52zM54 0v58h92v585h-92v60h254v-60h-92v-583h281v117h64v-177h-507z" />
    <glyph glyph-name="lcommaaccent" unicode="&#x13c;" horiz-adv-x="271" 
d="M124 -62h64c5.33301 -12.667 8 -28 8 -46c0 -46 -20.333 -82.333 -61 -109l-36 28c24 25.333 36 50.333 36 75c0 14 -3.66699 31.333 -11 52zM89 126v521h-89v56h157v-572c0 -50 19 -75 57 -75l28 2v-58c-12.667 -2 -25.667 -3 -39 -3c-76 0 -114 43 -114 129z" />
    <glyph glyph-name="Lcaron" unicode="&#x13d;" horiz-adv-x="592" 
d="M303 -62h64c5.33301 -12.667 8 -28 8 -46c0 -46 -20.333 -82.333 -61 -109l-36 28c24 25.333 36 50.333 36 75c0 14 -3.66699 31.333 -11 52zM54 0v58h92v585h-92v60h254v-60h-92v-583h281v117h64v-177h-507z" />
    <glyph glyph-name="lcaron" unicode="&#x13e;" horiz-adv-x="271" 
d="M227 703h64c5.33301 -12.667 8 -28 8 -46c0 -46 -20.333 -82.333 -61 -109l-36 28c24 25.333 36 50.333 36 75c0 14 -3.66699 31.333 -11 52zM89 126v521h-89v56h157v-572c0 -50 19 -75 57 -75l28 2v-58c-12.667 -2 -25.667 -3 -39 -3c-76 0 -114 43 -114 129z" />
    <glyph glyph-name="Ldot" unicode="&#x13f;" horiz-adv-x="592" 
d="M54 0v58h92v585h-92v60h254v-60h-92v-583h281v117h64v-177h-507zM341 331v83h80v-83h-80z" />
    <glyph glyph-name="ldot" unicode="&#x140;" horiz-adv-x="319" 
d="M89 126v521h-89v56h157v-572c0 -50 19 -75 57 -75l28 2v-58c-12.667 -2 -25.667 -3 -39 -3c-76 0 -114 43 -114 129zM242 331v83h80v-83h-80z" />
    <glyph glyph-name="Lslash" unicode="&#x141;" horiz-adv-x="592" 
d="M54 0v58h92v238l-88 -46v67l88 45v281h-92v60h254v-60h-92v-244l218 114v-68l-218 -113v-272h283v117h62v-177h-507z" />
    <glyph glyph-name="lslash" unicode="&#x142;" horiz-adv-x="271" 
d="M4 309v67l85 48v223h-89v56h157v-240l91 52v-67l-91 -53v-263c0 -50 19 -75 57 -75l28 2l-1 -59c-12 -2 -25 -3 -39 -3c-75.333 0 -113 43 -113 129v231z" />
    <glyph glyph-name="Nacute" unicode="&#x143;" horiz-adv-x="833" 
d="M373 752l98 119h87l-113 -119h-72zM54 0v58h92v587h-92v58h160l394 -555l21 -43h2l-3 49v491h-93v58h255v-58h-92v-645h-68l-394 555l-21 43h-2l3 -48v-492h93v-58h-255z" />
    <glyph glyph-name="nacute" unicode="&#x144;" horiz-adv-x="674" 
d="M311 584l98 119h87l-113 -119h-72zM46 0v56.001h85v369c0 14.667 -7.33301 22 -22 22h-68v56h96c40.667 0 61 -18.667 61 -56v-29l-4 -36h2c4 11.333 11 23.833 21 37.5s23 28 39 43s36.833 27.5 62.5 37.5s53.167 15 82.5 15c60 0 102.833 -16.333 128.5 -49
s38.5 -81.334 38.5 -146.001v-264h85v-56h-153v302c0 47.333 -7.33301 84 -22 110s-44 39 -88 39c-54.667 0 -100.167 -20.667 -136.5 -62s-54.5 -90.333 -54.5 -147v-186h85v-56h-238z" />
    <glyph glyph-name="Ncommaaccent" unicode="&#x145;" horiz-adv-x="833" 
d="M389 -62h64c5.33301 -12.667 8 -28 8 -46c0 -46 -20.333 -82.333 -61 -109l-36 28c24 25.333 36 50.333 36 75c0 14 -3.66699 31.333 -11 52zM54 0v58h92v587h-92v58h160l394 -555l21 -43h2l-3 49v491h-93v58h255v-58h-92v-645h-68l-394 555l-21 43h-2l3 -48v-492h93v-58
h-255z" />
    <glyph glyph-name="ncommaaccent" unicode="&#x146;" horiz-adv-x="674" 
d="M313 -62h64c5.33301 -12.667 8 -28 8 -46c0 -46 -20.333 -82.333 -61 -109l-36 28c24 25.333 36 50.333 36 75c0 14 -3.66699 31.333 -11 52zM46 0v56.001h85v369c0 14.667 -7.33301 22 -22 22h-68v56h96c40.667 0 61 -18.667 61 -56v-29l-4 -36h2
c4 11.333 11 23.833 21 37.5s23 28 39 43s36.833 27.5 62.5 37.5s53.167 15 82.5 15c60 0 102.833 -16.333 128.5 -49s38.5 -81.334 38.5 -146.001v-264h85v-56h-153v302c0 47.333 -7.33301 84 -22 110s-44 39 -88 39c-54.667 0 -100.167 -20.667 -136.5 -62
s-54.5 -90.333 -54.5 -147v-186h85v-56h-238z" />
    <glyph glyph-name="Ncaron" unicode="&#x147;" horiz-adv-x="833" 
d="M381 752l-84 119h70l54 -80h2l54 80h69l-83 -119h-82zM54 0v58h92v587h-92v58h160l394 -555l21 -43h2l-3 49v491h-93v58h255v-58h-92v-645h-68l-394 555l-21 43h-2l3 -48v-492h93v-58h-255z" />
    <glyph glyph-name="ncaron" unicode="&#x148;" horiz-adv-x="674" 
d="M319 584l-84 119h70l54 -80h2l54 80h69l-83 -119h-82zM46 0v56.001h85v369c0 14.667 -7.33301 22 -22 22h-68v56h96c40.667 0 61 -18.667 61 -56v-29l-4 -36h2c4 11.333 11 23.833 21 37.5s23 28 39 43s36.833 27.5 62.5 37.5s53.167 15 82.5 15
c60 0 102.833 -16.333 128.5 -49s38.5 -81.334 38.5 -146.001v-264h85v-56h-153v302c0 47.333 -7.33301 84 -22 110s-44 39 -88 39c-54.667 0 -100.167 -20.667 -136.5 -62s-54.5 -90.333 -54.5 -147v-186h85v-56h-238z" />
    <glyph glyph-name="napostrophe" unicode="&#x149;" horiz-adv-x="674" 
d="M66 710h64c5.33301 -12.667 8 -28 8 -46c0 -46 -20.333 -82.333 -61 -109l-36 28c24 25.333 36 50.333 36 75c0 14 -3.66699 31.333 -11 52zM46 0v56.001h85v369c0 14.667 -7.33301 22 -22 22h-68v56h96c40.667 0 61 -18.667 61 -56v-29l-4 -36h2
c4 11.333 11 23.833 21 37.5s23 28 39 43s36.833 27.5 62.5 37.5s53.167 15 82.5 15c60 0 102.833 -16.333 128.5 -49s38.5 -81.334 38.5 -146.001v-264h85v-56h-153v302c0 47.333 -7.33301 84 -22 110s-44 39 -88 39c-54.667 0 -100.167 -20.667 -136.5 -62
s-54.5 -90.333 -54.5 -147v-186h85v-56h-238z" />
    <glyph glyph-name="Eng" unicode="&#x14a;" horiz-adv-x="833" 
d="M54 0l-0.000976562 58h92v587h-92v58h162l392 -555l21 -43h2l-3 49v491h-93v58h255v-58h-92v-633c0 -76.667 -19.667 -132 -59 -166s-89.666 -51 -150.999 -51v63c39.333 0 72.5 11.5 99.5 34.5s40.5 58.833 40.5 107.5l-392 555l-21 43h-2l3 -48v-492h93v-58h-255z" />
    <glyph glyph-name="eng" unicode="&#x14b;" horiz-adv-x="649" 
d="M46 0l-0.000976562 56.001h85v369c0 14.667 -7.33301 22 -22 22h-68v56h96c40.667 0 61 -18.667 61 -56v-29l-4 -36h2c4 11.333 11 23.833 21 37.5s23 28 39 43s36.833 27.5 62.5 37.5s53.167 15 82.5 15c60 0 102.833 -16.333 128.5 -49s38.5 -81.334 38.5 -146.001
v-343c0 -39.333 -6.16699 -72.333 -18.5 -99s-28.666 -45.834 -48.999 -57.501s-39 -19.667 -56 -24s-34.5 -6.5 -52.5 -6.5l-29 3v58c6 -0.666992 13.333 -1 22 -1c12 0 23.667 1.5 35 4.5s23.5 8.5 36.5 16.5s23.5 21.333 31.5 40s12 41.334 12 68.001v323
c0 47.333 -7.33301 84 -22 110s-44 39 -88 39c-54.667 0 -100.167 -21 -136.5 -63s-54.5 -91.667 -54.5 -149v-183h85v-56h-238z" />
    <glyph glyph-name="Omacron" unicode="&#x14c;" horiz-adv-x="825" 
d="M290 785v55h246v-55h-246zM54 356c0 100.667 34.667 185.667 104 255s154 104 254 104s184.833 -34.667 254.5 -104s104.5 -154.333 104.5 -255c0 -102.667 -34.833 -189.667 -104.5 -261s-154.5 -107 -254.5 -107c-99.333 0 -183.833 35.667 -253.5 107
s-104.5 158.333 -104.5 261zM127 356c0 -85.333 27.8311 -157.333 83.498 -216s122.834 -88 201.501 -88c79.333 0 146.833 29.333 202.5 88s83.5 130.667 83.5 216c0 83.333 -27.833 153.333 -83.5 210s-123.167 85 -202.5 85s-146.666 -28.333 -201.999 -85
s-83 -126.667 -83 -210z" />
    <glyph glyph-name="omacron" unicode="&#x14d;" horiz-adv-x="621" 
d="M188 617v55h246v-55h-246zM45 254c0 74 25.833 136 77.5 186s114.167 75 187.5 75c74 0 136.833 -25 188.5 -75s77.5 -112 77.5 -186c0 -75.333 -25.833 -138.5 -77.5 -189.5s-114.5 -76.5 -188.5 -76.5c-73.333 0 -135.833 25.5 -187.5 76.5s-77.5 114.167 -77.5 189.5z
M115 254c0 -58 19 -106.667 57 -146s84 -59 138 -59c54.667 0 101 19.667 139 59s57 88 57 146c0 56.667 -19 104.167 -57 142.5s-84.333 57.5 -139 57.5c-54 0 -100 -19.167 -138 -57.5s-57 -85.833 -57 -142.5z" />
    <glyph glyph-name="Obreve" unicode="&#x14e;" horiz-adv-x="825" 
d="M54 356c0 100.667 34.667 185.667 104 255s154 104 254 104s184.833 -34.667 254.5 -104s104.5 -154.333 104.5 -255c0 -102.667 -34.833 -189.667 -104.5 -261s-154.5 -107 -254.5 -107c-99.333 0 -183.833 35.667 -253.5 107s-104.5 158.333 -104.5 261zM127 356
c0 -85.333 27.8311 -157.333 83.498 -216s122.834 -88 201.501 -88c79.333 0 146.833 29.333 202.5 88s83.5 130.667 83.5 216c0 83.333 -27.833 153.333 -83.5 210s-123.167 85 -202.5 85s-146.666 -28.333 -201.999 -85s-83 -126.667 -83 -210zM411.998 749
c-32.667 0 -60.333 9.33301 -83 28s-34 45 -34 79v15h59v-13c0 -20 5.5 -35 16.5 -45s24.833 -15 41.5 -15s30.667 5 42 15s17 25 17 45v13h59v-15c0 -34 -11.5 -60.333 -34.5 -79s-50.833 -28 -83.5 -28z" />
    <glyph glyph-name="obreve" unicode="&#x14f;" horiz-adv-x="621" 
d="M45 254c0 74 25.833 136 77.5 186s114.167 75 187.5 75c74 0 136.833 -25 188.5 -75s77.5 -112 77.5 -186c0 -75.333 -25.833 -138.5 -77.5 -189.5s-114.5 -76.5 -188.5 -76.5c-73.333 0 -135.833 25.5 -187.5 76.5s-77.5 114.167 -77.5 189.5zM115 254
c0 -58 19 -106.667 57 -146s84 -59 138 -59c54.667 0 101 19.667 139 59s57 88 57 146c0 56.667 -19 104.167 -57 142.5s-84.333 57.5 -139 57.5c-54 0 -100 -19.167 -138 -57.5s-57 -85.833 -57 -142.5zM310 581c-32.667 0 -60.333 9.33301 -83 28s-34 45 -34 79v15h59v-13
c0 -20 5.5 -35 16.5 -45s24.833 -15 41.5 -15s30.667 5 42 15s17 25 17 45v13h59v-15c0 -34 -11.5 -60.333 -34.5 -79s-50.833 -28 -83.5 -28z" />
    <glyph glyph-name="Ohungarumlaut" unicode="&#x150;" horiz-adv-x="825" 
d="M432 752l70 119h80l-86 -119h-64zM299 752l65 119h70l-67 -119h-68zM54 356c0 100.667 34.667 185.667 104 255s154 104 254 104s184.833 -34.667 254.5 -104s104.5 -154.333 104.5 -255c0 -102.667 -34.833 -189.667 -104.5 -261s-154.5 -107 -254.5 -107
c-99.333 0 -183.833 35.667 -253.5 107s-104.5 158.333 -104.5 261zM127 356c0 -85.333 27.8311 -157.333 83.498 -216s122.834 -88 201.501 -88c79.333 0 146.833 29.333 202.5 88s83.5 130.667 83.5 216c0 83.333 -27.833 153.333 -83.5 210s-123.167 85 -202.5 85
s-146.666 -28.333 -201.999 -85s-83 -126.667 -83 -210z" />
    <glyph glyph-name="ohungarumlaut" unicode="&#x151;" horiz-adv-x="621" 
d="M330 584l70 119h80l-86 -119h-64zM197 584l65 119h70l-67 -119h-68zM45 254c0 74 25.833 136 77.5 186s114.167 75 187.5 75c74 0 136.833 -25 188.5 -75s77.5 -112 77.5 -186c0 -75.333 -25.833 -138.5 -77.5 -189.5s-114.5 -76.5 -188.5 -76.5
c-73.333 0 -135.833 25.5 -187.5 76.5s-77.5 114.167 -77.5 189.5zM115 254c0 -58 19 -106.667 57 -146s84 -59 138 -59c54.667 0 101 19.667 139 59s57 88 57 146c0 56.667 -19 104.167 -57 142.5s-84.333 57.5 -139 57.5c-54 0 -100 -19.167 -138 -57.5
s-57 -85.833 -57 -142.5z" />
    <glyph glyph-name="OE" unicode="&#x152;" horiz-adv-x="962" 
d="M55 352c0 102 34 187.667 102 257s153.667 104 257 104c14.667 0 35.667 -1.66699 63 -5s46 -5 56 -5h355v-146h-62v86h-272v-259h264v-60h-264v-264h291v87h61v-147h-372c-9.33301 -0 -28 -1.66699 -56 -5s-49.333 -5 -64 -5c-103.333 0 -189 34.667 -257 104
s-102 155.333 -102 258zM127 352c0 -86 26.666 -157.499 79.999 -214.499s122.333 -85.5 207 -85.5c11.333 0 22.833 0.666992 34.5 2s20.5 2.66602 26.5 3.99902l9 2v583c-21.333 5.33301 -44.666 8 -69.999 8c-84.667 0 -153.667 -28.5 -207 -85.5
s-80 -128.167 -80 -213.5z" />
    <glyph glyph-name="oe" unicode="&#x153;" horiz-adv-x="1011" 
d="M46 250c0 78 25.499 141.666 76.499 190.999s113.167 74 186.5 74c50 0 95 -12 135 -36s70.667 -57 92 -99h2c20 42.667 48.833 75.834 86.5 99.501s80.834 35.5 129.501 35.5c66.667 0 118.5 -22.167 155.5 -66.5s55.5 -99.5 55.5 -165.5l-3 -33h-385
c2.66699 -63.333 22.5 -112.833 59.5 -148.5s82.167 -53.5 135.5 -53.5c26.667 0 52.667 5 78 15s44 20.333 56 31l18 15l31 -51c-5.33301 -5.33301 -13 -11.833 -23 -19.5s-31.167 -18 -63.5 -31s-65.5 -19.5 -99.5 -19.5c-52 0 -98.167 12.167 -138.5 36.5
s-70.5 57.833 -90.5 100.5h-2c-21.333 -42.667 -52 -76.167 -92 -100.5s-85.667 -36.5 -137 -36.5c-73.333 0 -135.5 24.333 -186.5 73s-76.5 111.667 -76.5 189zM579.999 300.999h315c-2 50 -16.333 88.667 -43 116s-59.667 41 -99 41c-43.333 0 -81 -13.833 -113 -41.5
s-52 -66.167 -60 -115.5zM115.999 249.999c0 -59.333 18.833 -107.667 56.5 -145s83.5 -56 137.5 -56c54.667 0 101 18.833 139 56.5s57 87.167 57 148.5c0 59.333 -19.167 107.5 -57.5 144.5s-84.5 55.5 -138.5 55.5s-99.833 -19 -137.5 -57s-56.5 -87 -56.5 -147z" />
    <glyph glyph-name="Racute" unicode="&#x154;" horiz-adv-x="686" 
d="M280 752l98 119h87l-113 -119h-72zM54 0l-0.000976562 58.002h92v587h-92v58h301c51.333 0 93 -5.33301 125 -16c76 -27.333 114 -86 114 -176c0 -52.667 -14 -96.834 -42 -132.501s-66 -57.834 -114 -66.501v-2c8.66699 -6 16.667 -15.667 24 -29l117 -200
c5.33301 -9.33301 11.5 -15.5 18.5 -18.5s17.5 -4.5 31.5 -4.5h20v-58h-38c-30 0 -50.5 3.16699 -61.5 9.5s-22.833 20.833 -35.5 43.5l-118 202c-9.33301 17.333 -19.166 28.833 -29.499 34.5s-26.833 8.5 -49.5 8.5h-101v-240h91v-58h-253zM215.999 358.002h165
c42.667 0 77 13.5 103 40.5s39 62.833 39 107.5c0 62.667 -25.667 104 -77 124c-23.333 8.66699 -54.333 13 -93 13h-137v-285z" />
    <glyph glyph-name="racute" unicode="&#x155;" horiz-adv-x="399" 
d="M182 584l98 119h87l-113 -119h-72zM51 0l0.000976562 56h78v369c0 14.667 -7.33301 22 -22 22h-68v56h95c40.667 0 61 -19 61 -57v-34l-2 -38h2c13.333 40 33.833 72.333 61.5 97s60.167 37 97.5 37l28 -3v-67c-8.66699 1.33301 -17.334 2 -26.001 2
c-35.333 0 -65.5 -12.333 -90.5 -37s-42.667 -53.5 -53 -86.5s-15.5 -67.5 -15.5 -103.5v-157h78v-56h-224z" />
    <glyph glyph-name="Rcommaaccent" unicode="&#x156;" horiz-adv-x="686" 
d="M335 -62h64c5.33301 -12.667 8 -28 8 -46c0 -46 -20.333 -82.333 -61 -109l-36 28c24 25.333 36 50.333 36 75c0 14 -3.66699 31.333 -11 52zM54 0l-0.000976562 58.002h92v587h-92v58h301c51.333 0 93 -5.33301 125 -16c76 -27.333 114 -86 114 -176
c0 -52.667 -14 -96.834 -42 -132.501s-66 -57.834 -114 -66.501v-2c8.66699 -6 16.667 -15.667 24 -29l117 -200c5.33301 -9.33301 11.5 -15.5 18.5 -18.5s17.5 -4.5 31.5 -4.5h20v-58h-38c-30 0 -50.5 3.16699 -61.5 9.5s-22.833 20.833 -35.5 43.5l-118 202
c-9.33301 17.333 -19.166 28.833 -29.499 34.5s-26.833 8.5 -49.5 8.5h-101v-240h91v-58h-253zM215.999 358.002h165c42.667 0 77 13.5 103 40.5s39 62.833 39 107.5c0 62.667 -25.667 104 -77 124c-23.333 8.66699 -54.333 13 -93 13h-137v-285z" />
    <glyph glyph-name="rcommaaccent" unicode="&#x157;" horiz-adv-x="399" 
d="M131 -62h64c5.33301 -12.667 8 -28 8 -46c0 -46 -20.333 -82.333 -61 -109l-36 28c24 25.333 36 50.333 36 75c0 14 -3.66699 31.333 -11 52zM51 0l0.000976562 56h78v369c0 14.667 -7.33301 22 -22 22h-68v56h95c40.667 0 61 -19 61 -57v-34l-2 -38h2
c13.333 40 33.833 72.333 61.5 97s60.167 37 97.5 37l28 -3v-67c-8.66699 1.33301 -17.334 2 -26.001 2c-35.333 0 -65.5 -12.333 -90.5 -37s-42.667 -53.5 -53 -86.5s-15.5 -67.5 -15.5 -103.5v-157h78v-56h-224z" />
    <glyph glyph-name="Rcaron" unicode="&#x158;" horiz-adv-x="686" 
d="M287 752l-84 119h70l54 -80h2l54 80h69l-83 -119h-82zM54 0l-0.000976562 58.002h92v587h-92v58h301c51.333 0 93 -5.33301 125 -16c76 -27.333 114 -86 114 -176c0 -52.667 -14 -96.834 -42 -132.501s-66 -57.834 -114 -66.501v-2c8.66699 -6 16.667 -15.667 24 -29
l117 -200c5.33301 -9.33301 11.5 -15.5 18.5 -18.5s17.5 -4.5 31.5 -4.5h20v-58h-38c-30 0 -50.5 3.16699 -61.5 9.5s-22.833 20.833 -35.5 43.5l-118 202c-9.33301 17.333 -19.166 28.833 -29.499 34.5s-26.833 8.5 -49.5 8.5h-101v-240h91v-58h-253zM215.999 358.002h165
c42.667 0 77 13.5 103 40.5s39 62.833 39 107.5c0 62.667 -25.667 104 -77 124c-23.333 8.66699 -54.333 13 -93 13h-137v-285z" />
    <glyph glyph-name="rcaron" unicode="&#x159;" horiz-adv-x="399" 
d="M190 584l-84 119h70l54 -80h2l54 80h69l-83 -119h-82zM51 0l0.000976562 56h78v369c0 14.667 -7.33301 22 -22 22h-68v56h95c40.667 0 61 -19 61 -57v-34l-2 -38h2c13.333 40 33.833 72.333 61.5 97s60.167 37 97.5 37l28 -3v-67c-8.66699 1.33301 -17.334 2 -26.001 2
c-35.333 0 -65.5 -12.333 -90.5 -37s-42.667 -53.5 -53 -86.5s-15.5 -67.5 -15.5 -103.5v-157h78v-56h-224z" />
    <glyph glyph-name="Sacute" unicode="&#x15a;" horiz-adv-x="566" 
d="M231 752l98 119h87l-113 -119h-72zM59 196l66.999 -0.00292969v-51c0 -28.667 15 -51.334 45 -68.001s66.333 -25 109 -25c46.667 0 84.5 11.167 113.5 33.5s43.5 53.5 43.5 93.5c0 18 -3.5 34.333 -10.5 49s-15 26.834 -24 36.501s-22.667 19.334 -41 29.001
s-33.666 17.167 -45.999 22.5s-30.5 12.333 -54.5 21l-46.5 18.5c-11 4.33301 -25.167 11 -42.5 20s-30.833 17.833 -40.5 26.5s-19.5 19.334 -29.5 32.001s-17.333 27.167 -22 43.5s-7 34.5 -7 54.5c0 58.667 20.333 103.834 61 135.501s91.667 47.5 153 47.5
c54 0 101.333 -10 142 -30s61 -46.667 61 -80v-75h-67v52c0 21.333 -14 38.166 -42 50.499s-59.333 18.5 -94 18.5c-42 0 -76.167 -10 -102.5 -30s-39.5 -48 -39.5 -84c0 -16.667 3.33301 -31.667 10 -45s13.667 -24.166 21 -32.499s20 -17.333 38 -27
s31.667 -16.5 41 -20.5s26.333 -10.667 51 -20c26.667 -10 47.167 -18 61.5 -24s32 -15.167 53 -27.5s36.833 -24.833 47.5 -37.5s20.167 -29.167 28.5 -49.5s12.5 -42.833 12.5 -67.5c0 -60.667 -21.5 -108.834 -64.5 -144.501s-97.833 -53.5 -164.5 -53.5
c-56.667 0 -107.667 12.333 -153 37s-68 59.334 -68 104.001v67z" />
    <glyph glyph-name="sacute" unicode="&#x15b;" horiz-adv-x="470" 
d="M192 584l98 119h87l-113 -119h-72zM45 107l-0.000976562 48.999h62v-36c0 -23.333 13.5 -41.333 40.5 -54s57.167 -19 90.5 -19s61.333 7 84 21s34 33.333 34 58c0 30.667 -21.333 56 -64 76c-10.667 5.33301 -34.667 15 -72 29c-23.333 8.66699 -42.5 16.5 -57.5 23.5
s-31 16.5 -48 28.5s-29.667 26.167 -38 42.5s-12.5 34.833 -12.5 55.5c0 43.333 17.333 76.5 52 99.5s75.334 34.5 122.001 34.5c40.667 0 78.667 -8.5 114 -25.5s53 -41.167 53 -72.5v-58h-62v37c0 18 -10.167 32.5 -30.5 43.5s-44.5 16.5 -72.5 16.5
c-30 0 -55.167 -6.33301 -75.5 -19s-30.5 -30.667 -30.5 -54c0 -17.333 6.83301 -32.833 20.5 -46.5s27.667 -23.667 42 -30s35.833 -14.833 64.5 -25.5l48 -18c12 -4.66699 26.333 -11.667 43 -21s29.5 -18.666 38.5 -27.999s17 -21.333 24 -36s10.5 -30.667 10.5 -48
c0 -43.333 -17.5 -77.833 -52.5 -103.5s-80.833 -38.5 -137.5 -38.5c-50 0 -94.167 10.667 -132.5 32s-57.5 50.333 -57.5 87z" />
    <glyph glyph-name="Scircumflex" unicode="&#x15c;" horiz-adv-x="566" 
d="M154 752l84 119h82l83 -119h-69l-54 81h-2l-54 -81h-70zM59 196l66.999 -0.00292969v-51c0 -28.667 15 -51.334 45 -68.001s66.333 -25 109 -25c46.667 0 84.5 11.167 113.5 33.5s43.5 53.5 43.5 93.5c0 18 -3.5 34.333 -10.5 49s-15 26.834 -24 36.501
s-22.667 19.334 -41 29.001s-33.666 17.167 -45.999 22.5s-30.5 12.333 -54.5 21l-46.5 18.5c-11 4.33301 -25.167 11 -42.5 20s-30.833 17.833 -40.5 26.5s-19.5 19.334 -29.5 32.001s-17.333 27.167 -22 43.5s-7 34.5 -7 54.5c0 58.667 20.333 103.834 61 135.501
s91.667 47.5 153 47.5c54 0 101.333 -10 142 -30s61 -46.667 61 -80v-75h-67v52c0 21.333 -14 38.166 -42 50.499s-59.333 18.5 -94 18.5c-42 0 -76.167 -10 -102.5 -30s-39.5 -48 -39.5 -84c0 -16.667 3.33301 -31.667 10 -45s13.667 -24.166 21 -32.499s20 -17.333 38 -27
s31.667 -16.5 41 -20.5s26.333 -10.667 51 -20c26.667 -10 47.167 -18 61.5 -24s32 -15.167 53 -27.5s36.833 -24.833 47.5 -37.5s20.167 -29.167 28.5 -49.5s12.5 -42.833 12.5 -67.5c0 -60.667 -21.5 -108.834 -64.5 -144.501s-97.833 -53.5 -164.5 -53.5
c-56.667 0 -107.667 12.333 -153 37s-68 59.334 -68 104.001v67z" />
    <glyph glyph-name="scircumflex" unicode="&#x15d;" horiz-adv-x="470" 
d="M115 584l84 119h82l83 -119h-69l-54 81h-2l-54 -81h-70zM45 107l-0.000976562 48.999h62v-36c0 -23.333 13.5 -41.333 40.5 -54s57.167 -19 90.5 -19s61.333 7 84 21s34 33.333 34 58c0 30.667 -21.333 56 -64 76c-10.667 5.33301 -34.667 15 -72 29
c-23.333 8.66699 -42.5 16.5 -57.5 23.5s-31 16.5 -48 28.5s-29.667 26.167 -38 42.5s-12.5 34.833 -12.5 55.5c0 43.333 17.333 76.5 52 99.5s75.334 34.5 122.001 34.5c40.667 0 78.667 -8.5 114 -25.5s53 -41.167 53 -72.5v-58h-62v37c0 18 -10.167 32.5 -30.5 43.5
s-44.5 16.5 -72.5 16.5c-30 0 -55.167 -6.33301 -75.5 -19s-30.5 -30.667 -30.5 -54c0 -17.333 6.83301 -32.833 20.5 -46.5s27.667 -23.667 42 -30s35.833 -14.833 64.5 -25.5l48 -18c12 -4.66699 26.333 -11.667 43 -21s29.5 -18.666 38.5 -27.999s17 -21.333 24 -36
s10.5 -30.667 10.5 -48c0 -43.333 -17.5 -77.833 -52.5 -103.5s-80.833 -38.5 -137.5 -38.5c-50 0 -94.167 10.667 -132.5 32s-57.5 50.333 -57.5 87z" />
    <glyph glyph-name="Scedilla" unicode="&#x15e;" horiz-adv-x="566" 
d="M235 -94l19 82.9941c-52.667 4 -98.334 18.167 -137.001 42.5s-58 56.833 -58 97.5v67h67v-51c0 -28.667 15 -51.334 45 -68.001s66.333 -25 109 -25c46.667 0 84.5 11.167 113.5 33.5s43.5 53.5 43.5 93.5c0 18 -3.5 34.333 -10.5 49s-15 26.834 -24 36.501
s-22.667 19.334 -41 29.001s-33.666 17.167 -45.999 22.5s-30.5 12.333 -54.5 21l-46.5 18.5c-11 4.33301 -25.167 11 -42.5 20s-30.833 17.833 -40.5 26.5s-19.5 19.334 -29.5 32.001s-17.333 27.167 -22 43.5s-7 34.5 -7 54.5c0 58.667 20.333 103.834 61 135.501
s91.667 47.5 153 47.5c54 0 101.333 -10 142 -30s61 -46.667 61 -80v-75h-67v52c0 21.333 -14 38.166 -42 50.499s-59.333 18.5 -94 18.5c-42 0 -76.167 -10 -102.5 -30s-39.5 -48 -39.5 -84c0 -16.667 3.33301 -31.667 10 -45s13.667 -24.166 21 -32.499s20 -17.333 38 -27
s31.667 -16.5 41 -20.5s26.333 -10.667 51 -20c26.667 -10 47.167 -18 61.5 -24s32 -15.167 53 -27.5s36.833 -24.833 47.5 -37.5s20.167 -29.167 28.5 -49.5s12.5 -42.833 12.5 -67.5c0 -57.333 -19.333 -103.666 -58 -138.999s-88.667 -54.666 -150 -57.999l-10 -47
c20.667 -2 38 -9.66699 52 -23s21 -29.666 21 -48.999c0 -27.333 -9.66699 -47.5 -29 -60.5s-43 -19.5 -71 -19.5l-49 5v45c12 -3.33301 26 -5 42 -5c34 0 51 11.667 51 35c0 24 -19.667 36 -59 36h-14z" />
    <glyph glyph-name="scedilla" unicode="&#x15f;" horiz-adv-x="470" 
d="M189 -94l19.999 82.998c-45.333 4 -84 16.333 -116 37s-48 47.667 -48 81v49h62v-36c0 -23.333 13.5 -41.333 40.5 -54s57.167 -19 90.5 -19c34 0 62.167 7 84.5 21s33.5 33.333 33.5 58c0 30.667 -21.333 56 -64 76c-10.667 5.33301 -34.667 15 -72 29
c-23.333 8.66699 -42.5 16.5 -57.5 23.5s-31 16.5 -48 28.5s-29.667 26.167 -38 42.5s-12.5 34.833 -12.5 55.5c0 43.333 17.333 76.5 52 99.5s75.334 34.5 122.001 34.5c40.667 0 78.667 -8.5 114 -25.5s53 -41.167 53 -72.5v-58h-62v37c0 18 -10.167 32.5 -30.5 43.5
s-44.5 16.5 -72.5 16.5c-30 0 -55.167 -6.33301 -75.5 -19s-30.5 -30.667 -30.5 -54c0 -17.333 6.83301 -32.833 20.5 -46.5s27.667 -23.667 42 -30s35.833 -14.833 64.5 -25.5l48 -18c12 -4.66699 26.333 -11.667 43 -21s29.5 -18.666 38.5 -27.999s17 -21.333 24 -36
s10.5 -30.667 10.5 -48c0 -40.667 -15.333 -73.5 -46 -98.5s-71.667 -39.167 -123 -42.5l-10 -47c20.667 -2 38 -9.66699 52 -23s21 -29.666 21 -48.999c0 -27.333 -9.66699 -47.5 -29 -60.5s-43.333 -19.5 -72 -19.5l-49 5v45c12.667 -3.33301 27 -5 43 -5
c34 0 51 11.667 51 35c0 24 -19.667 36 -59 36h-15z" />
    <glyph glyph-name="Scaron" unicode="&#x160;" horiz-adv-x="566" 
d="M238 752l-84 119h70l54 -80h2l54 80h69l-83 -119h-82zM59 196l66.999 -0.00292969v-51c0 -28.667 15 -51.334 45 -68.001s66.333 -25 109 -25c46.667 0 84.5 11.167 113.5 33.5s43.5 53.5 43.5 93.5c0 18 -3.5 34.333 -10.5 49s-15 26.834 -24 36.501
s-22.667 19.334 -41 29.001s-33.666 17.167 -45.999 22.5s-30.5 12.333 -54.5 21l-46.5 18.5c-11 4.33301 -25.167 11 -42.5 20s-30.833 17.833 -40.5 26.5s-19.5 19.334 -29.5 32.001s-17.333 27.167 -22 43.5s-7 34.5 -7 54.5c0 58.667 20.333 103.834 61 135.501
s91.667 47.5 153 47.5c54 0 101.333 -10 142 -30s61 -46.667 61 -80v-75h-67v52c0 21.333 -14 38.166 -42 50.499s-59.333 18.5 -94 18.5c-42 0 -76.167 -10 -102.5 -30s-39.5 -48 -39.5 -84c0 -16.667 3.33301 -31.667 10 -45s13.667 -24.166 21 -32.499s20 -17.333 38 -27
s31.667 -16.5 41 -20.5s26.333 -10.667 51 -20c26.667 -10 47.167 -18 61.5 -24s32 -15.167 53 -27.5s36.833 -24.833 47.5 -37.5s20.167 -29.167 28.5 -49.5s12.5 -42.833 12.5 -67.5c0 -60.667 -21.5 -108.834 -64.5 -144.501s-97.833 -53.5 -164.5 -53.5
c-56.667 0 -107.667 12.333 -153 37s-68 59.334 -68 104.001v67z" />
    <glyph glyph-name="scaron" unicode="&#x161;" horiz-adv-x="470" 
d="M199 584l-84 119h70l54 -80h2l54 80h69l-83 -119h-82zM45 107l-0.000976562 48.999h62v-36c0 -23.333 13.5 -41.333 40.5 -54s57.167 -19 90.5 -19s61.333 7 84 21s34 33.333 34 58c0 30.667 -21.333 56 -64 76c-10.667 5.33301 -34.667 15 -72 29
c-23.333 8.66699 -42.5 16.5 -57.5 23.5s-31 16.5 -48 28.5s-29.667 26.167 -38 42.5s-12.5 34.833 -12.5 55.5c0 43.333 17.333 76.5 52 99.5s75.334 34.5 122.001 34.5c40.667 0 78.667 -8.5 114 -25.5s53 -41.167 53 -72.5v-58h-62v37c0 18 -10.167 32.5 -30.5 43.5
s-44.5 16.5 -72.5 16.5c-30 0 -55.167 -6.33301 -75.5 -19s-30.5 -30.667 -30.5 -54c0 -17.333 6.83301 -32.833 20.5 -46.5s27.667 -23.667 42 -30s35.833 -14.833 64.5 -25.5l48 -18c12 -4.66699 26.333 -11.667 43 -21s29.5 -18.666 38.5 -27.999s17 -21.333 24 -36
s10.5 -30.667 10.5 -48c0 -43.333 -17.5 -77.833 -52.5 -103.5s-80.833 -38.5 -137.5 -38.5c-50 0 -94.167 10.667 -132.5 32s-57.5 50.333 -57.5 87z" />
    <glyph glyph-name="Tcommaaccent" unicode="&#x162;" horiz-adv-x="654" 
d="M200 0v57.999h92v585h-197v-114h-63v174h590v-174h-64v114h-196v-585h92v-58h-106l-12 -58c20.667 -2 38 -9.66699 52 -23s21 -29.666 21 -48.999c0 -27.333 -9.66699 -47.5 -29 -60.5s-43 -19.5 -71 -19.5l-49 5v45c12 -3.33301 26 -5 42 -5c34.667 0 52 11.667 52 35
c0 24 -20 36 -60 36h-14l22 94h-102z" />
    <glyph glyph-name="tcommaaccent" unicode="&#x163;" horiz-adv-x="339" 
d="M160 -94l27 111.998c-52 30 -78 85 -78 165v264h-90v56h91v139h67v-139h126v-56h-126v-258c0 -28 4 -51.5 12 -70.5s18.333 -32.667 31 -41s24.5 -14.166 35.5 -17.499s22.5 -5 34.5 -5l23 2v-59c-8 -1.33301 -17.667 -2 -29 -2c-17.333 0 -35.333 2 -54 6l-13 -60
c20.667 -2 38 -9.66699 52 -23s21 -29.666 21 -48.999c0 -27.333 -9.66699 -47.5 -29 -60.5s-43.333 -19.5 -72 -19.5l-49 5v45c12.667 -3.33301 27 -5 43 -5c34 0 51 11.667 51 35c0 24 -19.667 36 -59 36h-15z" />
    <glyph glyph-name="Tcaron" unicode="&#x164;" horiz-adv-x="654" 
d="M286 752l-84 119h70l54 -80h2l54 80h69l-83 -119h-82zM200 0v58h92v585h-197v-114h-63v174h590v-174h-64v114h-196v-585h92v-58h-254z" />
    <glyph glyph-name="tcaron" unicode="&#x165;" horiz-adv-x="339" 
d="M268 710h64c5.33301 -12.667 8 -28 8 -46c0 -46 -20.333 -82.333 -61 -109l-36 28c24 25.333 36 50.333 36 75c0 14 -3.66699 31.333 -11 52zM108 183l0.000976562 263.998h-90v56h91v139h67v-139h127v-56h-127v-258c0 -28 4 -51.5 12 -70.5s18.333 -32.667 31 -41
s24.667 -14.166 36 -17.499s23 -5 35 -5l23 2v-59c-8 -1.33301 -17.667 -2 -29 -2c-14 0 -27.667 1 -41 3s-28.5 6.83301 -45.5 14.5s-31.833 17.834 -44.5 30.501s-23.334 31 -32.001 55s-13 52 -13 84z" />
    <glyph glyph-name="Tbar" unicode="&#x166;" horiz-adv-x="654" 
d="M106 325v55h186v263h-197v-114h-63v174h590v-174h-64v114h-196v-263h188v-55h-188v-267h92v-58h-254v58h92v267h-186z" />
    <glyph glyph-name="tbar" unicode="&#x167;" horiz-adv-x="339" 
d="M22 280l0.000976562 54.998h86v114h-90v54h91v139h67v-139h127v-54h-127v-114h120v-55h-120v-91c0 -28 4 -51.5 12 -70.5s18.333 -32.667 31 -41s24.667 -14.166 36 -17.499s23 -5 35 -5l23 2v-59c-8 -1.33301 -17.667 -2 -29 -2c-14 0 -27.667 1 -41 3
s-28.5 6.83301 -45.5 14.5s-31.833 17.834 -44.5 30.501s-23.334 31 -32.001 55s-13 52 -13 84v97h-86z" />
    <glyph glyph-name="Utilde" unicode="&#x168;" horiz-adv-x="790" 
d="M125 259l0.000976562 385.999h-92v58h254v-58h-92v-385c0 -53.333 10.333 -96.333 31 -129c34 -52.667 90.333 -79 169 -79c80.667 0 137 27.333 169 82c20.667 35.333 31 78 31 128v383h-92v58h254v-58h-92v-386c0 -67.333 -15 -122.666 -45 -165.999
c-22.667 -34 -53.667 -60 -93 -78s-83.333 -27 -132 -27c-49.333 0 -93.833 9.16699 -133.5 27.5s-70.834 44.5 -93.501 78.5c-28.667 42 -43 97 -43 165zM236.001 754.999c0 78 30.999 117.003 92.999 117.003c20.667 0 38.667 -5.83301 54 -17.5
s28.5 -23.334 39.5 -35.001s22.167 -17.5 33.5 -17.5c27.333 0 41 22.333 41 67h57c0 -78 -31 -117 -93 -117c-16.667 0 -31.5 3.66699 -44.5 11s-23 15.166 -30 23.499s-15.167 16.166 -24.5 23.499s-18.666 11 -27.999 11c-26.667 0 -40 -22 -40 -66h-58z" />
    <glyph glyph-name="utilde" unicode="&#x169;" horiz-adv-x="651" 
d="M107 183l0.00292969 264.003h-90v56h158v-303c0 -22.667 1.16699 -41.834 3.5 -57.501s7.16602 -31 14.499 -46s18.666 -26.333 33.999 -34s34.666 -11.5 57.999 -11.5c54.667 0 99.167 21.167 133.5 63.5s51.5 92.166 51.5 149.499v183h-90v56h158v-426
c0 -14.667 7.33301 -22 22 -22h57v-55h-85c-40 0 -60 18.667 -60 56v25l1 36h-2c-4 -11.333 -10.667 -23.5 -20 -36.5s-21.833 -26.833 -37.5 -41.5s-35.834 -26.834 -60.501 -36.501s-51.667 -14.5 -81 -14.5c-57.333 0 -99.166 16 -125.499 48s-39.5 81 -39.5 147z
M153.003 587.003c0 78 30.999 117.003 92.999 117.003c20.667 0 38.667 -5.83301 54 -17.5s28.5 -23.334 39.5 -35.001s22.167 -17.5 33.5 -17.5c27.333 0 41 22.333 41 67h57c0 -78 -31 -117 -93 -117c-16.667 0 -31.5 3.66699 -44.5 11s-23 15.166 -30 23.499
s-15.167 16.166 -24.5 23.499s-18.666 11 -27.999 11c-26.667 0 -40 -22 -40 -66h-58z" />
    <glyph glyph-name="Umacron" unicode="&#x16a;" horiz-adv-x="790" 
d="M125 259l0.000976562 385.999h-92v58h254v-58h-92v-385c0 -53.333 10.333 -96.333 31 -129c34 -52.667 90.333 -79 169 -79c80.667 0 137 27.333 169 82c20.667 35.333 31 78 31 128v383h-92v58h254v-58h-92v-386c0 -67.333 -15 -122.666 -45 -165.999
c-22.667 -34 -53.667 -60 -93 -78s-83.333 -27 -132 -27c-49.333 0 -93.833 9.16699 -133.5 27.5s-70.834 44.5 -93.501 78.5c-28.667 42 -43 97 -43 165zM272.001 784.999v55h246v-55h-246z" />
    <glyph glyph-name="umacron" unicode="&#x16b;" horiz-adv-x="651" 
d="M107 183l0.00292969 264.003h-90v56h158v-303c0 -22.667 1.16699 -41.834 3.5 -57.501s7.16602 -31 14.499 -46s18.666 -26.333 33.999 -34s34.666 -11.5 57.999 -11.5c54.667 0 99.167 21.167 133.5 63.5s51.5 92.166 51.5 149.499v183h-90v56h158v-426
c0 -14.667 7.33301 -22 22 -22h57v-55h-85c-40 0 -60 18.667 -60 56v25l1 36h-2c-4 -11.333 -10.667 -23.5 -20 -36.5s-21.833 -26.833 -37.5 -41.5s-35.834 -26.834 -60.501 -36.501s-51.667 -14.5 -81 -14.5c-57.333 0 -99.166 16 -125.499 48s-39.5 81 -39.5 147z
M189.003 617.003v55h246v-55h-246z" />
    <glyph glyph-name="Ubreve" unicode="&#x16c;" horiz-adv-x="790" 
d="M125 259l0.000976562 385.999h-92v58h254v-58h-92v-385c0 -53.333 10.333 -96.333 31 -129c34 -52.667 90.333 -79 169 -79c80.667 0 137 27.333 169 82c20.667 35.333 31 78 31 128v383h-92v58h254v-58h-92v-386c0 -67.333 -15 -122.666 -45 -165.999
c-22.667 -34 -53.667 -60 -93 -78s-83.333 -27 -132 -27c-49.333 0 -93.833 9.16699 -133.5 27.5s-70.834 44.5 -93.501 78.5c-28.667 42 -43 97 -43 165zM394.001 748.999c-32.667 0 -60.333 9.33301 -83 28s-34 45 -34 79v15h59v-13c0 -20 5.5 -35 16.5 -45
s24.833 -15 41.5 -15s30.667 5 42 15s17 25 17 45v13h59v-15c0 -34 -11.5 -60.333 -34.5 -79s-50.833 -28 -83.5 -28z" />
    <glyph glyph-name="ubreve" unicode="&#x16d;" horiz-adv-x="651" 
d="M107 183l0.00292969 264.003h-90v56h158v-303c0 -22.667 1.16699 -41.834 3.5 -57.501s7.16602 -31 14.499 -46s18.666 -26.333 33.999 -34s34.666 -11.5 57.999 -11.5c54.667 0 99.167 21.167 133.5 63.5s51.5 92.166 51.5 149.499v183h-90v56h158v-426
c0 -14.667 7.33301 -22 22 -22h57v-55h-85c-40 0 -60 18.667 -60 56v25l1 36h-2c-4 -11.333 -10.667 -23.5 -20 -36.5s-21.833 -26.833 -37.5 -41.5s-35.834 -26.834 -60.501 -36.501s-51.667 -14.5 -81 -14.5c-57.333 0 -99.166 16 -125.499 48s-39.5 81 -39.5 147z
M311.003 581.003c-32.667 0 -60.333 9.33301 -83 28s-34 45 -34 79v15h59v-13c0 -20 5.5 -35 16.5 -45s24.833 -15 41.5 -15s30.667 5 42 15s17 25 17 45v13h59v-15c0 -34 -11.5 -60.333 -34.5 -79s-50.833 -28 -83.5 -28z" />
    <glyph glyph-name="Uring" unicode="&#x16e;" horiz-adv-x="790" 
d="M394 736c-22.667 0 -42 7.16699 -58 21.5s-24 32.5 -24 54.5c0 23.333 8 42.333 24 57s35.333 22 58 22c24 0 44.167 -7.33301 60.5 -22s24.5 -33.667 24.5 -57c0 -22 -8.33301 -40.167 -25 -54.5s-36.667 -21.5 -60 -21.5zM394 776c11.333 0 20.5 3.33301 27.5 10
s10.5 15.334 10.5 26.001c0 12 -3.5 21.5 -10.5 28.5s-16.167 10.5 -27.5 10.5c-10.667 0 -19.167 -3.5 -25.5 -10.5s-9.5 -16.5 -9.5 -28.5c0 -10.667 3.16699 -19.334 9.5 -26.001s14.833 -10 25.5 -10zM125 259l0.000976562 385.999h-92v58h254v-58h-92v-385
c0 -53.333 10.333 -96.333 31 -129c34 -52.667 90.333 -79 169 -79c80.667 0 137 27.333 169 82c20.667 35.333 31 78 31 128v383h-92v58h254v-58h-92v-386c0 -67.333 -15 -122.666 -45 -165.999c-22.667 -34 -53.667 -60 -93 -78s-83.333 -27 -132 -27
c-49.333 0 -93.833 9.16699 -133.5 27.5s-70.834 44.5 -93.501 78.5c-28.667 42 -43 97 -43 165z" />
    <glyph glyph-name="uring" unicode="&#x16f;" horiz-adv-x="651" 
d="M311 568c-22.667 0 -42 7.16699 -58 21.5s-24 32.5 -24 54.5c0 23.333 8 42.333 24 57s35.333 22 58 22c24 0 44.167 -7.33301 60.5 -22s24.5 -33.667 24.5 -57c0 -22 -8.33301 -40.167 -25 -54.5s-36.667 -21.5 -60 -21.5zM311 608c11.333 0 20.5 3.33301 27.5 10
s10.5 15.334 10.5 26.001c0 12 -3.5 21.5 -10.5 28.5s-16.167 10.5 -27.5 10.5c-10.667 0 -19.167 -3.5 -25.5 -10.5s-9.5 -16.5 -9.5 -28.5c0 -10.667 3.16699 -19.334 9.5 -26.001s14.833 -10 25.5 -10zM107 183l0.00292969 264.003h-90v56h158v-303
c0 -22.667 1.16699 -41.834 3.5 -57.501s7.16602 -31 14.499 -46s18.666 -26.333 33.999 -34s34.666 -11.5 57.999 -11.5c54.667 0 99.167 21.167 133.5 63.5s51.5 92.166 51.5 149.499v183h-90v56h158v-426c0 -14.667 7.33301 -22 22 -22h57v-55h-85
c-40 0 -60 18.667 -60 56v25l1 36h-2c-4 -11.333 -10.667 -23.5 -20 -36.5s-21.833 -26.833 -37.5 -41.5s-35.834 -26.834 -60.501 -36.501s-51.667 -14.5 -81 -14.5c-57.333 0 -99.166 16 -125.499 48s-39.5 81 -39.5 147z" />
    <glyph glyph-name="Uhungarumlaut" unicode="&#x170;" horiz-adv-x="790" 
d="M125 259l0.000976562 385.999h-92v58h254v-58h-92v-385c0 -53.333 10.333 -96.333 31 -129c34 -52.667 90.333 -79 169 -79c80.667 0 137 27.333 169 82c20.667 35.333 31 78 31 128v383h-92v58h254v-58h-92v-386c0 -67.333 -15 -122.666 -45 -165.999
c-22.667 -34 -53.667 -60 -93 -78s-83.333 -27 -132 -27c-49.333 0 -93.833 9.16699 -133.5 27.5s-70.834 44.5 -93.501 78.5c-28.667 42 -43 97 -43 165zM414.001 751.999l70 119h80l-86 -119h-64zM281.001 751.999l65 119h70l-67 -119h-68z" />
    <glyph glyph-name="uhungarumlaut" unicode="&#x171;" horiz-adv-x="651" 
d="M107 183l0.00292969 264.003h-90v56h158v-303c0 -22.667 1.16699 -41.834 3.5 -57.501s7.16602 -31 14.499 -46s18.666 -26.333 33.999 -34s34.666 -11.5 57.999 -11.5c54.667 0 99.167 21.167 133.5 63.5s51.5 92.166 51.5 149.499v183h-90v56h158v-426
c0 -14.667 7.33301 -22 22 -22h57v-55h-85c-40 0 -60 18.667 -60 56v25l1 36h-2c-4 -11.333 -10.667 -23.5 -20 -36.5s-21.833 -26.833 -37.5 -41.5s-35.834 -26.834 -60.501 -36.501s-51.667 -14.5 -81 -14.5c-57.333 0 -99.166 16 -125.499 48s-39.5 81 -39.5 147z
M331.003 584.003l70 119h80l-86 -119h-64zM198.003 584.003l65 119h70l-67 -119h-68z" />
    <glyph glyph-name="Uogonek" unicode="&#x172;" horiz-adv-x="791" 
d="M125 245l-0.000976562 400.003h-92v58h254v-58h-92v-399c0 -60 18.167 -107.333 54.5 -142s84.833 -52 145.5 -52s109.167 17.5 145.5 52.5s54.5 82.833 54.5 143.5v397h-92v58h254v-58h-92v-400c0 -55.333 -13.833 -103.333 -41.5 -144s-65.5 -72.334 -113.5 -95.001
c-7.33301 -4 -16.333 -10.167 -27 -18.5s-22.5 -21.5 -35.5 -39.5s-19.5 -36 -19.5 -54s8.33301 -31.333 25 -40s30.334 -13 41.001 -13l-15 -53c-8 0.666992 -16.5 2.16699 -25.5 4.5s-20.833 6.66602 -35.5 12.999s-26.667 16.333 -36 30s-14 29.834 -14 48.501
c0 35.333 18.333 70.666 55 105.999c-83.333 -6.66699 -153.833 12.666 -211.5 57.999s-86.5 111 -86.5 197z" />
    <glyph glyph-name="uogonek" unicode="&#x173;" horiz-adv-x="651" 
d="M469 -116c0 42 22.667 80.666 68 115.999h-9c-37.333 0 -56 18.667 -56 56v25l1 36h-2c-9.33301 -28 -31.333 -56.5 -66 -85.5s-78.667 -43.5 -132 -43.5c-58 0 -100.167 16 -126.5 48s-39.5 81 -39.5 147v264h-90v56h158v-303c0 -47.333 7.16699 -84 21.5 -110
s43.5 -39 87.5 -39c55.333 0 100.166 21.333 134.499 64s51.5 92.334 51.5 149.001v183h-90v56h158v-426c0 -14.667 7.33301 -22 22 -22h57v-55h-5c-10.667 -0 -27.167 -12.167 -49.5 -36.5s-33.5 -47.5 -33.5 -69.5c0 -18 8.33301 -31.333 25 -40s30.334 -13 41.001 -13
l-15 -53c-8 0.666992 -16.5 2.16699 -25.5 4.5s-20.833 6.66602 -35.5 12.999s-26.667 16.333 -36 30s-14 29.834 -14 48.501z" />
    <glyph glyph-name="Wcircumflex" unicode="&#x174;" horiz-adv-x="1000" 
d="M376 752l84 119h82l83 -119h-69l-54 81h-2l-54 -81h-70zM17 645l0.000976562 58h227v-58h-84l126 -517l7 -46h4c2 16 5 31.333 9 46l161 575h65l162 -575l9 -46h4c1.33301 16 3.66602 31.333 6.99902 46l126 517h-84v58h227v-58h-72l-163 -645h-83l-155 553l-8 46h-4
c-1.33301 -16.667 -4 -32 -8 -46l-156 -553h-82l-164 645h-71z" />
    <glyph glyph-name="wcircumflex" unicode="&#x175;" horiz-adv-x="851" 
d="M303 584l84 119h82l83 -119h-69l-54 81h-2l-54 -81h-70zM10 447l0.000976562 56h208v-56h-75l105 -338l8 -39h2c2 14 4.66699 27 8 39l126 392h67l126 -392l8 -39h2c1.33301 14 3.66602 27 6.99902 39l106 338h-75v56h208v-56h-65l-143 -447h-73l-124 377l-9 40h-3
c-2 -14.667 -5 -28 -9 -40l-124 -377h-74l-143 447h-64z" />
    <glyph glyph-name="Ycircumflex" unicode="&#x176;" horiz-adv-x="644" 
d="M195 0v58h92v244l-207 343h-69v58h222v-58h-78l152 -256l14 -27h2c4 9.33301 8.66699 18.333 14 27l153 256h-78v58h221v-58h-69l-207 -343v-244h92v-58h-254zM198 752l84 119h82l83 -119h-69l-54 81h-2l-54 -81h-70z" />
    <glyph glyph-name="ycircumflex" unicode="&#x177;" horiz-adv-x="574" 
d="M63 -126c19.333 -16 41.6689 -23.999 67.002 -23.999c40.667 0 72.667 26.667 96 80l28 67l-180 450h-66v56h211v-56h-73l132 -343l8 -36h3c2 11.333 5.33301 23.333 10 36l132 343h-73v56h208v-56h-66l-214 -540c-14.667 -36.667 -35.334 -65.334 -62.001 -86.001
s-57.334 -31 -92.001 -31c-16.667 0 -33 2.5 -49 7.5s-27.667 9.83301 -35 14.5l-11 8zM168.003 584.001l84 119h82l83 -119h-69l-54 81h-2l-54 -81h-70z" />
    <glyph glyph-name="Ydieresis" unicode="&#x178;" horiz-adv-x="644" 
d="M195 0v58h92v244l-207 343h-69v58h222v-58h-78l152 -256l14 -27h2c4 9.33301 8.66699 18.333 14 27l153 256h-78v58h221v-58h-69l-207 -343v-244h92v-58h-254zM380 785v86h69v-86h-69zM197 785v86h69v-86h-69z" />
    <glyph glyph-name="Zacute" unicode="&#x179;" horiz-adv-x="623" 
d="M274 752l98 119h87l-113 -119h-72zM57 0v49l386 561l28 33v2c-12.667 -1.33301 -25.667 -2 -39 -2h-307v-114h-63v174h494v-49l-386 -561l-28 -33v-2c12.667 1.33301 25.667 2 39 2h321v117h63v-177h-508z" />
    <glyph glyph-name="zacute" unicode="&#x17a;" horiz-adv-x="515" 
d="M218 584l98 119h87l-113 -119h-72zM49 48l299 370l26 28v2c-12 -0.666992 -24.667 -1 -38 -1h-218v-89h-62v145h404v-49l-299 -369l-26 -28v-2c12.667 0.666992 25.667 1 39 1h227v89h62v-145h-414v48z" />
    <glyph glyph-name="Zdotaccent" unicode="&#x17b;" horiz-adv-x="623" 
d="M57 0v49l386 561l28 33v2c-12.667 -1.33301 -25.667 -2 -39 -2h-307v-114h-63v174h494v-49l-386 -561l-28 -33v-2c12.667 1.33301 25.667 2 39 2h321v117h63v-177h-508zM287 786v85h71v-85h-71z" />
    <glyph glyph-name="zdotaccent" unicode="&#x17c;" horiz-adv-x="515" 
d="M49 48l299 370l26 28v2c-12 -0.666992 -24.667 -1 -38 -1h-218v-89h-62v145h404v-49l-299 -369l-26 -28v-2c12.667 0.666992 25.667 1 39 1h227v89h62v-145h-414v48zM231 618v85h71v-85h-71z" />
    <glyph glyph-name="Zcaron" unicode="&#x17d;" horiz-adv-x="623" 
d="M281 752l-84 119h70l54 -80h2l54 80h69l-83 -119h-82zM57 0v49l386 561l28 33v2c-12.667 -1.33301 -25.667 -2 -39 -2h-307v-114h-63v174h494v-49l-386 -561l-28 -33v-2c12.667 1.33301 25.667 2 39 2h321v117h63v-177h-508z" />
    <glyph glyph-name="zcaron" unicode="&#x17e;" horiz-adv-x="515" 
d="M226 584l-84 119h70l54 -80h2l54 80h69l-83 -119h-82zM49 48l299 370l26 28v2c-12 -0.666992 -24.667 -1 -38 -1h-218v-89h-62v145h404v-49l-299 -369l-26 -28v-2c12.667 0.666992 25.667 1 39 1h227v89h62v-145h-414v48z" />
    <glyph glyph-name="longs" unicode="&#x17f;" horiz-adv-x="309" 
d="M48 0l0.00292969 55.999h77v391h-82v56h82v26c0 30 4.16699 56.5 12.5 79.5s18.333 40.5 30 52.5s25.667 21.833 42 29.5s30.666 12.5 42.999 14.5s25.166 3 38.499 3l41 -3v-59c-8.66699 2 -20.334 3 -35.001 3c-10.667 0 -21.167 -1.33301 -31.5 -4
s-21.333 -7.66699 -33 -15s-21.167 -19.666 -28.5 -36.999s-11 -38.333 -11 -63v-474h91v-56h-236z" />
    <glyph glyph-name="florin" unicode="&#x192;" horiz-adv-x="471" 
d="M-41 -40c21.333 -4 42.6689 -6.00293 64.002 -6.00293c12 0 23.5 1.5 34.5 4.5s23.167 8.5 36.5 16.5s24.5 21.333 33.5 40s14.833 41.334 17.5 68.001l25 282h-89v57h94l9 107c2.66699 31.333 9.5 58.833 20.5 82.5s23.333 41.834 37 54.501
s29.334 22.834 47.001 30.501s33.167 12.667 46.5 15s26.666 3.5 39.999 3.5l83 -7v-60c-30.667 4.66699 -57.667 7 -81 7c-12 0 -23.667 -1.5 -35 -4.5s-23.666 -8.66699 -36.999 -17s-24.5 -21.666 -33.5 -39.999s-14.833 -40.833 -17.5 -67.5l-11 -104h126v-57h-130
l-25 -285c-2.66699 -31.333 -9.33398 -58.833 -20.001 -82.5s-22.834 -41.834 -36.501 -54.501s-29.334 -23 -47.001 -31s-33 -13 -46 -15s-26.5 -3 -40.5 -3l-65 6v60z" />
    <glyph glyph-name="Scommaaccent" unicode="&#x218;" horiz-adv-x="566" 
d="M248 -62h64c5.33301 -12.667 8 -28 8 -46c0 -46 -20.333 -82.333 -61 -109l-36 28c24 25.333 36 50.333 36 75c0 14 -3.66699 31.333 -11 52zM59 196l66.999 -0.00292969v-51c0 -28.667 15 -51.334 45 -68.001s66.333 -25 109 -25c46.667 0 84.5 11.167 113.5 33.5
s43.5 53.5 43.5 93.5c0 18 -3.5 34.333 -10.5 49s-15 26.834 -24 36.501s-22.667 19.334 -41 29.001s-33.666 17.167 -45.999 22.5s-30.5 12.333 -54.5 21l-46.5 18.5c-11 4.33301 -25.167 11 -42.5 20s-30.833 17.833 -40.5 26.5s-19.5 19.334 -29.5 32.001
s-17.333 27.167 -22 43.5s-7 34.5 -7 54.5c0 58.667 20.333 103.834 61 135.501s91.667 47.5 153 47.5c54 0 101.333 -10 142 -30s61 -46.667 61 -80v-75h-67v52c0 21.333 -14 38.166 -42 50.499s-59.333 18.5 -94 18.5c-42 0 -76.167 -10 -102.5 -30s-39.5 -48 -39.5 -84
c0 -16.667 3.33301 -31.667 10 -45s13.667 -24.166 21 -32.499s20 -17.333 38 -27s31.667 -16.5 41 -20.5s26.333 -10.667 51 -20c26.667 -10 47.167 -18 61.5 -24s32 -15.167 53 -27.5s36.833 -24.833 47.5 -37.5s20.167 -29.167 28.5 -49.5s12.5 -42.833 12.5 -67.5
c0 -60.667 -21.5 -108.834 -64.5 -144.501s-97.833 -53.5 -164.5 -53.5c-56.667 0 -107.667 12.333 -153 37s-68 59.334 -68 104.001v67z" />
    <glyph glyph-name="scommaaccent" unicode="&#x219;" horiz-adv-x="470" 
d="M203 -62h64c5.33301 -12.667 8 -28 8 -46c0 -46 -20.333 -82.333 -61 -109l-36 28c24 25.333 36 50.333 36 75c0 14 -3.66699 31.333 -11 52zM45 107l-0.000976562 48.999h62v-36c0 -23.333 13.5 -41.333 40.5 -54s57.167 -19 90.5 -19s61.333 7 84 21s34 33.333 34 58
c0 30.667 -21.333 56 -64 76c-10.667 5.33301 -34.667 15 -72 29c-23.333 8.66699 -42.5 16.5 -57.5 23.5s-31 16.5 -48 28.5s-29.667 26.167 -38 42.5s-12.5 34.833 -12.5 55.5c0 43.333 17.333 76.5 52 99.5s75.334 34.5 122.001 34.5c40.667 0 78.667 -8.5 114 -25.5
s53 -41.167 53 -72.5v-58h-62v37c0 18 -10.167 32.5 -30.5 43.5s-44.5 16.5 -72.5 16.5c-30 0 -55.167 -6.33301 -75.5 -19s-30.5 -30.667 -30.5 -54c0 -17.333 6.83301 -32.833 20.5 -46.5s27.667 -23.667 42 -30s35.833 -14.833 64.5 -25.5l48 -18
c12 -4.66699 26.333 -11.667 43 -21s29.5 -18.666 38.5 -27.999s17 -21.333 24 -36s10.5 -30.667 10.5 -48c0 -43.333 -17.5 -77.833 -52.5 -103.5s-80.833 -38.5 -137.5 -38.5c-50 0 -94.167 10.667 -132.5 32s-57.5 50.333 -57.5 87z" />
    <glyph glyph-name="uni021A" unicode="&#x21a;" horiz-adv-x="654" 
d="M294 -62h64c5.33301 -12.667 8 -28 8 -46c0 -46 -20.333 -82.333 -61 -109l-36 28c24 25.333 36 50.333 36 75c0 14 -3.66699 31.333 -11 52zM200 0v58h92v585h-197v-114h-63v174h590v-174h-64v114h-196v-585h92v-58h-254z" />
    <glyph glyph-name="uni021B" unicode="&#x21b;" horiz-adv-x="339" 
d="M188 -62h64c5.33301 -12.667 8 -28 8 -46c0 -46 -20.333 -82.333 -61 -109l-36 28c24 25.333 36 50.333 36 75c0 14 -3.66699 31.333 -11 52zM108 183l0.000976562 263.998h-90v56h91v139h67v-139h127v-56h-127v-258c0 -28 4 -51.5 12 -70.5s18.333 -32.667 31 -41
s24.667 -14.166 36 -17.499s23 -5 35 -5l23 2v-59c-8 -1.33301 -17.667 -2 -29 -2c-14 0 -27.667 1 -41 3s-28.5 6.83301 -45.5 14.5s-31.833 17.834 -44.5 30.501s-23.334 31 -32.001 55s-13 52 -13 84z" />
    <glyph glyph-name="circumflex" unicode="&#x2c6;" horiz-adv-x="504" 
d="M127 752l84 119h82l83 -119h-69l-54 81h-2l-54 -81h-70z" />
    <glyph glyph-name="caron" unicode="&#x2c7;" horiz-adv-x="504" 
d="M211 752l-84 119h70l54 -80h2l54 80h69l-83 -119h-82z" />
    <glyph glyph-name="breve" unicode="&#x2d8;" horiz-adv-x="505" 
d="M252 749c-32.667 0 -60.333 9.33301 -83 28s-34 45 -34 79v15h59v-13c0 -20 5.5 -35 16.5 -45s24.833 -15 41.5 -15s30.667 5 42 15s17 25 17 45v13h59v-15c0 -34 -11.5 -60.333 -34.5 -79s-50.833 -28 -83.5 -28z" />
    <glyph glyph-name="dotaccent" unicode="&#x2d9;" horiz-adv-x="505" 
d="M217 786v85h71v-85h-71z" />
    <glyph glyph-name="ring" unicode="&#x2da;" horiz-adv-x="505" 
d="M252 736c-22.667 0 -42 7.16699 -58 21.5s-24 32.5 -24 54.5c0 23.333 8 42.333 24 57s35.333 22 58 22c24 0 44.167 -7.33301 60.5 -22s24.5 -33.667 24.5 -57c0 -22 -8.33301 -40.167 -25 -54.5s-36.667 -21.5 -60 -21.5zM252 776c11.333 0 20.5 3.33301 27.5 10
s10.5 15.334 10.5 26.001c0 12 -3.5 21.5 -10.5 28.5s-16.167 10.5 -27.5 10.5c-10.667 0 -19.167 -3.5 -25.5 -10.5s-9.5 -16.5 -9.5 -28.5c0 -10.667 3.16699 -19.334 9.5 -26.001s14.833 -10 25.5 -10z" />
    <glyph glyph-name="ogonek" unicode="&#x2db;" horiz-adv-x="504" 
d="M178 -116c0 22.667 7.49902 44.832 22.499 66.499s28.833 37.334 41.5 47.001s23 16.5 31 20.5h48v-18c-10.667 0 -27.167 -12 -49.5 -36s-33.5 -47.333 -33.5 -70c0 -18 8.33301 -31.333 25 -40s30.334 -13 41.001 -13l-15 -53c-8 0.666992 -16.5 2.16699 -25.5 4.5
s-20.833 6.66602 -35.5 12.999s-26.667 16.333 -36 30s-14 29.834 -14 48.501z" />
    <glyph glyph-name="tilde" unicode="&#x2dc;" horiz-adv-x="504" 
d="M93 755c0 78 30.999 117.003 92.999 117.003c20.667 0 38.667 -5.83301 54 -17.5s28.5 -23.334 39.5 -35.001s22.167 -17.5 33.5 -17.5c27.333 0 41 22.333 41 67h57c0 -78 -31 -117 -93 -117c-16.667 0 -31.5 3.66699 -44.5 11s-23 15.166 -30 23.499
s-15.167 16.166 -24.5 23.499s-18.666 11 -27.999 11c-26.667 0 -40 -22 -40 -66h-58z" />
    <glyph glyph-name="hungarumlaut" unicode="&#x2dd;" horiz-adv-x="504" 
d="M244 752l70 119h80l-86 -119h-64zM111 752l65 119h70l-67 -119h-68z" />
    <glyph glyph-name="uni1E9E" unicode="&#x1e9e;" horiz-adv-x="705" 
d="M40 0v58.001h92v454c0 54 18.333 99.333 55 136s82.334 55 137.001 55h277v-48l-141 -218l-16 -21v-2c60 -8.66699 109.5 -29.5 148.5 -62.5s58.5 -78.833 58.5 -137.5c0 -64.667 -23.333 -117.667 -70 -159s-111.334 -62 -194.001 -62
c-11.333 0 -22.666 0.5 -33.999 1.5s-20.5 2 -27.5 3s-13.833 2.16699 -20.5 3.5s-10.334 2 -11.001 2v63c44 -7.33301 73.333 -11 88 -11c62.667 0 111.334 14.167 146.001 42.5s52 66.166 52 113.499c0 90 -69.667 141 -209 153v42l134 213l18 22v2
c-8.66699 -1.33301 -17.334 -2 -26.001 -2h-168c-36.667 0 -67 -12.333 -91 -37s-36 -55 -36 -91v-513h-162z" />
    <glyph glyph-name="thinspace" unicode="&#x2009;" horiz-adv-x="271" 
 />
    <glyph glyph-name="endash" unicode="&#x2013;" horiz-adv-x="714" 
d="M107 255v58h500v-58h-500z" />
    <glyph glyph-name="emdash" unicode="&#x2014;" horiz-adv-x="914" 
d="M107 255v58h700v-58h-700z" />
    <glyph glyph-name="quoteleft" unicode="&#x2018;" horiz-adv-x="218" 
d="M54 509l65 203h54l-47 -203h-72z" />
    <glyph glyph-name="quoteright" unicode="&#x2019;" horiz-adv-x="214" 
d="M57 509l47 203h72l-64 -203h-55z" />
    <glyph glyph-name="quotesinglbase" unicode="&#x201a;" horiz-adv-x="235" 
d="M41 -122l47 204h71l-64 -204h-54z" />
    <glyph glyph-name="quotedblleft" unicode="&#x201c;" horiz-adv-x="346" 
d="M54 509l65 203h54l-47 -203h-72zM182 509l64 203h55l-47 -203h-72z" />
    <glyph glyph-name="quotedblright" unicode="&#x201d;" horiz-adv-x="341" 
d="M185 509l46 203h73l-65 -203h-54zM57 509l47 203h72l-64 -203h-55z" />
    <glyph glyph-name="quotedblbase" unicode="&#x201e;" horiz-adv-x="361" 
d="M167 -122l47 204h71l-64 -204h-54zM41 -122l47 204h71l-64 -204h-54z" />
    <glyph glyph-name="dagger" unicode="&#x2020;" horiz-adv-x="398" 
d="M164 -50v495h-117v58h117v200h66v-200h122v-58h-122v-495h-66z" />
    <glyph glyph-name="daggerdbl" unicode="&#x2021;" horiz-adv-x="409" 
d="M52 179v58h117v208h-117v58h117v200h66v-200h122v-58h-122v-208h122v-58h-122v-229h-66v229h-117z" />
    <glyph glyph-name="bullet" unicode="&#x2022;" horiz-adv-x="403" 
d="M202 148c-39.333 0 -73 14 -101 42s-42 61.667 -42 101s14 73 42 101s61.667 42 101 42s72.833 -14 100.5 -42s41.5 -61.667 41.5 -101s-13.833 -73 -41.5 -101s-61.167 -42 -100.5 -42z" />
    <glyph glyph-name="ellipsis" unicode="&#x2026;" horiz-adv-x="712" 
d="M551 0v83h80v-83h-80zM316 0v83h80v-83h-80zM81 0v83h80v-83h-80z" />
    <glyph glyph-name="perthousand" unicode="&#x2030;" horiz-adv-x="1049" 
d="M197 437c-38.667 0 -71.6689 13.5 -99.002 40.5s-41 59.833 -41 98.5c0 38 13.667 70.667 41 98s60.333 41 99 41s71.834 -13.667 99.501 -41s41.5 -60 41.5 -98c0 -38.667 -13.667 -71.5 -41 -98.5s-60.666 -40.5 -99.999 -40.5zM63.998 0l535 703h72l-536 -703h-71z
M196.998 493c22.667 0 42 8 58 24s24 35.667 24 59c0 22.667 -8 42.167 -24 58.5s-35.333 24.5 -58 24.5s-41.667 -8.16699 -57 -24.5s-23 -35.833 -23 -58.5c0 -23.333 7.66699 -43 23 -59s34.333 -24 57 -24zM731.998 126c0 38.667 13.667 71.667 41 99s60.333 41 99 41
s71.834 -13.667 99.501 -41s41.5 -60.333 41.5 -99c0 -38 -13.833 -70.5 -41.5 -97.5s-60.834 -40.5 -99.501 -40.5s-71.667 13.5 -99 40.5s-41 59.5 -41 97.5zM394.998 126c0 38.667 13.667 71.667 41 99s60.333 41 99 41s71.834 -13.667 99.501 -41s41.5 -60.333 41.5 -99
c0 -38 -13.833 -70.5 -41.5 -97.5s-60.834 -40.5 -99.501 -40.5s-71.667 13.5 -99 40.5s-41 59.5 -41 97.5zM790.998 127c0 -23.333 7.83301 -43 23.5 -59s34.834 -24 57.501 -24s41.834 8 57.501 24s23.5 35.667 23.5 59c0 22.667 -7.83301 42.167 -23.5 58.5
s-34.834 24.5 -57.501 24.5s-41.834 -8.16699 -57.501 -24.5s-23.5 -35.833 -23.5 -58.5zM454.998 127c0 -23.333 7.66699 -43 23 -59s34.333 -24 57 -24s42 8 58 24s24 35.667 24 59c0 22.667 -8 42.167 -24 58.5s-35.333 24.5 -58 24.5s-41.667 -8.16699 -57 -24.5
s-23 -35.833 -23 -58.5z" />
    <glyph glyph-name="guilsinglleft" unicode="&#x2039;" horiz-adv-x="347" 
d="M213 77l-164 205l164 206h74l-164 -206l164 -205h-74z" />
    <glyph glyph-name="guilsinglright" unicode="&#x203a;" horiz-adv-x="347" 
d="M60 77l164 205l-164 206h74l164 -206l-164 -205h-74z" />
    <glyph glyph-name="fraction" unicode="&#x2044;" horiz-adv-x="149" 
d="M-123 0l336 703h58l-335 -703h-59z" />
    <glyph glyph-name="zerosuperior" unicode="&#x2070;" horiz-adv-x="423" 
d="M211 413c-101.333 0 -152 76 -152 228c0 151.333 50.667 227 152 227c102 0 153 -75.667 153 -227c0 -152 -51 -228 -153 -228zM211 465c64 0 96 58.667 96 176s-32 176 -96 176s-96 -58.667 -96 -176s32 -176 96 -176z" />
    <glyph glyph-name="foursuperior" unicode="&#x2074;" horiz-adv-x="426" 
d="M256 423v115h-211v37l212 283h54v-273h65v-47h-65v-115h-55zM109 585h147v161l4 43h-3c-6 -13.333 -13 -25.333 -21 -36l-127 -166v-2z" />
    <glyph glyph-name="fivesuperior" unicode="&#x2075;" horiz-adv-x="403" 
d="M193 413c-26.667 0 -51.332 5.33105 -73.999 15.998s-39 21.334 -49 32.001l-14 16l36 35c2.66699 -3.33301 6.5 -7.66602 11.5 -12.999s16.167 -12.5 33.5 -21.5s35.333 -13.5 54 -13.5c28 0 52 9.16699 72 27.5s30 41.166 30 68.499c0 26.667 -10 49.334 -30 68.001
s-44.333 28 -73 28c-13.333 0 -26.5 -2 -39.5 -6s-22.5 -8 -28.5 -12l-9 -6l-34 12l25 214h221v-102h-50v55h-125l-8 -84l-6 -38h2c16.667 8.66699 36.667 13 60 13c43.333 0 79.333 -13.833 108 -41.5s43 -61.5 43 -101.5s-14.833 -74.333 -44.5 -103
s-66.834 -43 -111.501 -43z" />
    <glyph glyph-name="sixsuperior" unicode="&#x2076;" horiz-adv-x="413" 
d="M215 413c-47.333 0 -85.5 18.665 -114.5 55.998s-43.5 85.666 -43.5 144.999c0 29.333 3.66699 58.333 11 87s18.333 55.834 33 81.501s34.667 46.334 60 62.001s54.333 23.5 87 23.5c14.667 0 29.334 -1.66699 44.001 -5s25.667 -6.66602 33 -9.99902l11 -5l-22 -47
c-20.667 10.667 -42.334 16 -65.001 16c-35.333 0 -64.5 -14.667 -87.5 -44s-37.833 -65.666 -44.5 -108.999h2c10.667 11.333 25 20.666 43 27.999s35.667 11 53 11c42 0 76.167 -13 102.5 -39s39.5 -60 39.5 -102c0 -46 -13.5 -82.333 -40.5 -109s-60.833 -40 -101.5 -40z
M215 464.998c26.667 0 47.667 9.33301 63 28s23 41.667 23 69c0 28.667 -8.33301 51.667 -25 69s-38.667 26 -66 26c-24.667 0 -46.667 -7 -66 -21s-29 -29 -29 -45c0 -30 9.5 -58.5 28.5 -85.5s42.833 -40.5 71.5 -40.5z" />
    <glyph glyph-name="sevensuperior" unicode="&#x2077;" horiz-adv-x="286" 
d="M58 423l184 367l14 21v2c-8 -1.33301 -16 -2 -24 -2h-157v-55h-49v102h293v-37l-202 -398h-59z" />
    <glyph glyph-name="eightsuperior" unicode="&#x2078;" horiz-adv-x="410" 
d="M206 413c-40.667 0 -76.166 11.999 -106.499 35.999s-45.5 56.667 -45.5 98c0 19.333 5.16699 38 15.5 56s20.166 31.167 29.499 39.5s18.666 15.5 27.999 21.5c-36 24.667 -54 55.334 -54 92.001c0 35.333 13.333 62.833 40 82.5s58.334 29.5 95.001 29.5
s68.667 -10.167 96 -30.5s41 -48.5 41 -84.5c0 -39.333 -19 -78 -57 -116c44.667 -24.667 67 -57.667 67 -99c0 -35.333 -14.5 -65 -43.5 -89s-64.167 -36 -105.5 -36zM246.001 657.999c29.333 29.333 44 60.333 44 93c0 21.333 -8.16699 37.833 -24.5 49.5
s-35.833 17.5 -58.5 17.5c-21.333 0 -39.833 -5.5 -55.5 -16.5s-23.5 -26.833 -23.5 -47.5c0 -8.66699 1.83301 -16.667 5.5 -24s7.5 -13.333 11.5 -18s11 -10 21 -16s17.667 -10.333 23 -13s15 -7 29 -13zM206.001 462.999c23.333 0 44.5 7.33301 63.5 22
s28.5 32.667 28.5 54c0 10.667 -2.33301 20.167 -7 28.5s-12.167 16 -22.5 23s-19.833 12.833 -28.5 17.5s-21.167 10.5 -37.5 17.5s-28.5 12.5 -36.5 16.5c-38 -29.333 -57 -60.333 -57 -93c0 -26 9.83301 -46.833 29.5 -62.5s42.167 -23.5 67.5 -23.5z" />
    <glyph glyph-name="ninesuperior" unicode="&#x2079;" horiz-adv-x="404" 
d="M163 413c-15.333 0 -30.499 1.83008 -45.499 5.49707s-26.167 7.16699 -33.5 10.5l-10 5l21 47c20.667 -10.667 43 -16 67 -16c34 0 62.667 14.833 86 44.5s38 65.834 44 108.501h-2c-25.333 -26.667 -58.333 -40 -99 -40s-73.834 13.333 -99.501 40
s-38.5 61.667 -38.5 105s13.333 78.333 40 105s60.334 40 101.001 40c48 0 86.5 -18.667 115.5 -56s43.5 -85.666 43.5 -144.999c0 -40 -6.33301 -78.667 -19 -116s-33.834 -69.666 -63.501 -96.999s-65.5 -41 -107.5 -41zM201.001 623.997c26 0 48 7.16797 66 21.501
s27 32.5 27 54.5c0 25.333 -9.83301 51.166 -29.5 77.499s-44.167 39.5 -73.5 39.5c-24.667 0 -44.5 -9.33301 -59.5 -28s-22.5 -42 -22.5 -70c0 -28.667 8.33301 -51.667 25 -69s39 -26 67 -26z" />
    <glyph glyph-name="zeroinferior" unicode="&#x2080;" horiz-adv-x="396" 
d="M198 -167c-101.333 0 -152 76 -152 228c0 151.333 50.667 227 152 227c102 0 153 -75.667 153 -227c0 -152 -51 -228 -153 -228zM198 -115c64 0 96 58.667 96 176s-32 176 -96 176s-96 -58.667 -96 -176s32 -176 96 -176z" />
    <glyph glyph-name="oneinferior" unicode="&#x2081;" horiz-adv-x="319" 
d="M38 -157l-0.000976562 47.999h104v283l3 31h-2c-3.33301 -5.33301 -8.66602 -11.666 -15.999 -18.999l-55 -53l-36 37l110 108h52v-387h102v-48h-262z" />
    <glyph glyph-name="twoinferior" unicode="&#x2082;" horiz-adv-x="362" 
d="M36 -121c0 28.667 7.5 54.498 22.5 77.498s33 42.167 54 57.5s42.167 29.833 63.5 43.5s39.5 29.167 54.5 46.5s22.5 36 22.5 56c0 21.333 -7.66699 39.5 -23 54.5s-34.666 22.5 -57.999 22.5c-16 0 -31.5 -4.16699 -46.5 -12.5s-26.167 -16.5 -33.5 -24.5l-10 -12
l-36 35c3.33301 4.66699 8.33301 10.667 15 18s21.167 17 43.5 29s45.833 18 70.5 18c41.333 0 74.166 -11.833 98.499 -35.5s36.5 -53.5 36.5 -89.5c0 -27.333 -7.33301 -51.666 -22 -72.999s-32.5 -39.166 -53.5 -53.499l-63 -41c-21 -13 -39.167 -28.333 -54.5 -46
s-23.333 -37.167 -24 -58.5h176v55h49v-103h-279c-2 14.667 -3 26.667 -3 36z" />
    <glyph glyph-name="threeinferior" unicode="&#x2083;" horiz-adv-x="367" 
d="M51 175l0.00195312 102.003h268v-36l-121 -141c33.333 -3.33301 62.666 -15.5 87.999 -36.5s38 -51.167 38 -90.5c0 -38.667 -14.333 -71.834 -43 -99.501s-64 -41.5 -106 -41.5c-28.667 0 -54.834 5.5 -78.501 16.5s-40.167 22.167 -49.5 33.5l-14 16l35 37
c2.66699 -4 6.5 -8.83301 11.5 -14.5s16.833 -13.334 35.5 -23.001s38.667 -14.5 60 -14.5c24 0 45.5 8.5 64.5 25.5s28.5 38.167 28.5 63.5s-9.83301 45.666 -29.5 60.999s-42.5 23 -68.5 23h-32l-14 31l105 124l21 20v2c-8 -2 -17.333 -3 -28 -3h-121v-55h-50z" />
    <glyph glyph-name="fourinferior" unicode="&#x2084;" horiz-adv-x="381" 
d="M234 -157v115h-211v37l212 283h54v-273h65v-47h-65v-115h-55zM87 5h147v161l4 43h-3c-6 -13.333 -13 -25.333 -21 -36l-127 -166v-2z" />
    <glyph glyph-name="fiveinferior" unicode="&#x2085;" horiz-adv-x="362" 
d="M168 -167c-26.667 0 -51.332 5.33105 -73.999 15.998s-38.667 21.334 -48 32.001l-15 16l36 35c2.66699 -3.33301 6.5 -7.66602 11.5 -12.999s16.167 -12.5 33.5 -21.5s35.333 -13.5 54 -13.5c28 0 52 9.16699 72 27.5s30 41.166 30 68.499
c0 26.667 -10 49.334 -30 68.001s-44.333 28 -73 28c-13.333 0 -26.5 -2 -39.5 -6s-22.5 -8 -28.5 -12l-9 -6l-34 12l25 214h221v-102h-50v55h-125l-8 -84l-6 -38h2c16.667 8.66699 36.667 13 60 13c43.333 0 79.333 -13.833 108 -41.5s43 -61.5 43 -101.5
s-14.833 -74.333 -44.5 -103s-66.834 -43 -111.501 -43z" />
    <glyph glyph-name="sixinferior" unicode="&#x2086;" horiz-adv-x="379" 
d="M201 -167c-47.333 0 -85.5 18.665 -114.5 55.998s-43.5 85.666 -43.5 144.999c0 29.333 3.66699 58.333 11 87s18.333 55.834 33 81.501s34.667 46.334 60 62.001s54.333 23.5 87 23.5c14.667 0 29.334 -1.66699 44.001 -5s25.667 -6.66602 33 -9.99902l11 -5l-22 -47
c-20.667 10.667 -42.334 16 -65.001 16c-35.333 0 -64.5 -14.667 -87.5 -44s-37.833 -65.666 -44.5 -108.999h2c10.667 11.333 25 20.666 43 27.999s35.667 11 53 11c42 0 76.167 -13 102.5 -39s39.5 -60 39.5 -102c0 -46 -13.5 -82.333 -40.5 -109s-60.833 -40 -101.5 -40z
M201 -115.002c26.667 0 47.667 9.33301 63 28s23 41.667 23 69c0 28.667 -8.33301 51.667 -25 69s-38.667 26 -66 26c-24.667 0 -46.667 -7 -66 -21s-29 -29 -29 -45c0 -30 9.5 -58.5 28.5 -85.5s42.833 -40.5 71.5 -40.5z" />
    <glyph glyph-name="seveninferior" unicode="&#x2087;" horiz-adv-x="345" 
d="M65 -158l184 367l14 21v2c-8 -1.33301 -16 -2 -24 -2h-157v-55h-49v102h293v-37l-202 -398h-59z" />
    <glyph glyph-name="eightinferior" unicode="&#x2088;" horiz-adv-x="386" 
d="M194 -166c-40.667 0 -76.166 11.999 -106.499 35.999s-45.5 56.667 -45.5 98c0 19.333 5.16699 38 15.5 56s20.166 31.167 29.499 39.5s18.666 15.5 27.999 21.5c-36 24.667 -54 55.334 -54 92.001c0 35.333 13.333 62.833 40 82.5s58.334 29.5 95.001 29.5
s68.667 -10.167 96 -30.5s41 -48.5 41 -84.5c0 -39.333 -19 -78 -57 -116c44.667 -24.667 67 -57.667 67 -99c0 -35.333 -14.5 -65 -43.5 -89s-64.167 -36 -105.5 -36zM234.001 78.999c29.333 29.333 44 60.333 44 93c0 21.333 -8.16699 37.833 -24.5 49.5
s-35.833 17.5 -58.5 17.5c-21.333 0 -39.833 -5.5 -55.5 -16.5s-23.5 -26.833 -23.5 -47.5c0 -8.66699 1.83301 -16.667 5.5 -24s7.5 -13.333 11.5 -18s11 -10 21 -16s17.667 -10.333 23 -13s15 -7 29 -13zM194.001 -116.001c23.333 0 44.5 7.33301 63.5 22
s28.5 32.667 28.5 54c0 10.667 -2.33301 20.167 -7 28.5s-12.167 16 -22.5 23s-19.833 12.833 -28.5 17.5s-21.167 10.5 -37.5 17.5s-28.5 12.5 -36.5 16.5c-38 -29.333 -57 -60.333 -57 -93c0 -26 9.83301 -46.833 29.5 -62.5s42.167 -23.5 67.5 -23.5z" />
    <glyph glyph-name="nineinferior" unicode="&#x2089;" horiz-adv-x="379" 
d="M146 -167c-15.333 0 -30.5 1.83008 -45.5 5.49707s-25.833 7.16699 -32.5 10.5l-11 5l21 47c20.667 -10.667 43 -16 67 -16c34 0 62.667 14.833 86 44.5s38 65.834 44 108.501h-2c-25.333 -26.667 -58.333 -40 -99 -40c-40 0 -73 13.333 -99 40s-39 61.667 -39 105
s13.333 78.333 40 105s60.334 40 101.001 40c48 0 86.5 -18.667 115.5 -56s43.5 -85.666 43.5 -144.999c0 -40 -6.33301 -78.667 -19 -116s-33.834 -69.666 -63.501 -96.999s-65.5 -41 -107.5 -41zM184 43.9971c26 0 48 7.16797 66 21.501s27 32.5 27 54.5
c0 25.333 -9.83301 51.166 -29.5 77.499s-44.167 39.5 -73.5 39.5c-24.667 0 -44.5 -9.33301 -59.5 -28s-22.5 -42 -22.5 -70c0 -28.667 8.33301 -51.667 25 -69s39 -26 67 -26z" />
    <glyph glyph-name="Euro" unicode="&#x20ac;" horiz-adv-x="596" 
d="M47 257v50h54c-3.33301 38 -3 71.667 1 101h-55v50h64c20 76 60.333 137.833 121 185.5s131.667 71.5 213 71.5c16 0 31.833 -1 47.5 -3s27.5 -4 35.5 -6l11 -3l-16 -63c-24.667 7.33301 -51 11 -79 11c-63.333 0 -118 -17.667 -164 -53s-77.667 -82 -95 -140h305
l-10 -50h-306c-4 -31.333 -4.33301 -65 -1 -101h289l-10 -50h-268c16 -61.333 47.333 -110.833 94 -148.5s102.334 -56.5 167.001 -56.5c15.333 0 30.5 1.16699 45.5 3.5s26.167 4.5 33.5 6.5l11 4l15 -63c-30 -10 -65 -15 -105 -15c-84.667 0 -157.334 25 -218.001 75
s-100 114.667 -118 194h-62z" />
    <glyph glyph-name="trademark" unicode="&#x2122;" horiz-adv-x="944" 
d="M436 265l35 437.999h51l116 -251l14 -41h2c3.33301 14.667 8 28.334 14 41.001l115 251h51l35 -438h-56l-24 297l1 29h-2l-112 -244h-47l-112 244h-2l1 -29l-24 -297h-56zM186 264.999v386h-156v52h369v-52h-156v-386h-57z" />
    <glyph glyph-name="minus" unicode="&#x2212;" horiz-adv-x="606" 
d="M50 255v58h506v-58h-506z" />
    <glyph glyph-name="infinity" unicode="&#x221e;" horiz-adv-x="465" 
d="M233 176c-47.333 0 -88 17 -122 51s-51 74.667 -51 122c0 48 16.833 88.667 50.5 122s74.5 50 122.5 50s88.667 -16.667 122 -50s50 -74 50 -122s-16.667 -88.833 -50 -122.5s-74 -50.5 -122 -50.5z" />
    <glyph glyph-name="approxequal" unicode="&#x2248;" horiz-adv-x="606" 
d="M92 321l-33 44c44.667 46 93.334 69 146.001 69c33.333 0 69.166 -11.667 107.499 -35s68.5 -35 90.5 -35c40 0 77.667 18.333 113 55l33 -43c-44.667 -46 -93.334 -69 -146.001 -69c-33.333 0 -69.166 11.667 -107.499 35s-68.5 35 -90.5 35
c-39.333 0 -77 -18.667 -113 -56zM92 148l-33 43c44.667 46 93.334 69 146.001 69c33.333 0 69.166 -11.667 107.499 -35s68.5 -35 90.5 -35c39.333 0 77 18.667 113 56l33 -44c-44.667 -46 -93.334 -69 -146.001 -69c-33.333 0 -69.166 11.667 -107.499 35
s-68.5 35 -90.5 35c-40 0 -77.667 -18.333 -113 -55z" />
    <glyph glyph-name="notequal" unicode="&#x2260;" horiz-adv-x="606" 
d="M125 83l62 85h-118v58h159l86 116h-245v58h285l86 116l42 -29l-65 -87h118v-58h-158l-86 -116h244v-58h-284l-84 -114z" />
    <glyph glyph-name="lessequal" unicode="&#x2264;" horiz-adv-x="606" 
d="M66 259v50l452 202v-67l-367 -159v-2l367 -159v-67zM67 -104h451v-58h-451v58z" />
    <glyph glyph-name="greaterequal" unicode="&#x2265;" horiz-adv-x="606" 
d="M87 57v67l367 159v2l-367 159v67l452 -202v-50zM86 -104h451v-58h-451v58z" />
    <glyph glyph-name=".null" horiz-adv-x="0" 
 />
    <glyph glyph-name="nonmarkingreturn" horiz-adv-x="333" 
 />
    <glyph glyph-name="commaaccent" horiz-adv-x="335" 
d="M136 -62h64c5.33301 -12.667 8 -28 8 -46c0 -46 -20.333 -82.333 -61 -109l-36 28c24 25.333 36 50.333 36 75c0 14 -3.66699 31.333 -11 52z" />
    <glyph glyph-name="apple" horiz-adv-x="1130" 
d="M168 -5v152l-126 72v278l126 71v151l265 142l134 -71l132 71l265 -142v-151l124 -71v-278l-124 -72v-152l-265 -141l-132 71l-134 -71zM208 30l238 -126l121 66l118 -66l238 126v139l114 64v249l-114 66v136l-238 126l-118 -64l-121 64l-238 -126v-136l-114 -66v-249
l114 -64v-139zM242 64v121l-99 60v225l99 58v123l215 114l110 -59l107 59l214 -114v-123l100 -58v-225l-100 -60v-121l-214 -114l-107 58l-110 -58zM443 91h59.999v217h218v53h-218v179h176c10.667 0 17.834 -2 21.501 -6s5.5 -11 5.5 -21v-38h56v64
c0 19.333 -4.16699 33.333 -12.5 42s-22.833 13 -43.5 13h-325v-54h62v-449z" />
    <glyph glyph-name="zero.tnum" 
d="M282 -12c-161.333 0 -241.999 121.333 -241.999 364c0 242 80.667 363 242 363c58.667 0 106.667 -16.667 144 -50s63.166 -76 77.499 -128s21.5 -113.667 21.5 -185c0 -242.667 -81 -364 -243 -364zM282.001 52c32.667 0 60.332 7.50098 82.999 22.501
s40.334 36.667 53.001 65s21.667 59.666 27 93.999s8 73.833 8 118.5c0 199.333 -57 299 -171 299c-113.333 0 -170 -99.667 -170 -299c0 -200 56.667 -300 170 -300z" />
    <glyph glyph-name="one.tnum" 
d="M106 0l0.000976562 60h157v518l1 39h-2c-4.66699 -10 -16.334 -24 -35.001 -42l-75 -74l-44 44l159 158h65v-643h154v-60h-380z" />
    <glyph glyph-name="two.tnum" 
d="M51 0c-2.66699 14 -4.00098 28.9971 -4.00098 44.9971c0 38.667 9 74.334 27 107.001s40.333 59.834 67 81.501s55.834 43.834 87.501 66.501l87.5 62.5c26.667 19 49 41.833 67 68.5s27 55 27 85c0 39.333 -13.5 71.666 -40.5 96.999s-62.167 38 -105.5 38
c-19.333 0 -38 -3.33301 -56 -10s-33 -14.834 -45 -24.501s-22.5 -19.167 -31.5 -28.5s-15.5 -17.333 -19.5 -24l-7 -10l-50 34l8 13.5c3.33301 5.66699 11.333 15.834 24 30.501s26.5 27.667 41.5 39s35 21.5 60 30.5s51.5 13.5 79.5 13.5
c64.667 0 116.5 -18.667 155.5 -56s58.5 -84.333 58.5 -141c0 -43.333 -12.333 -82.666 -37 -117.999s-54.667 -65.333 -90 -90l-105.5 -72.5c-35 -23.667 -65 -50.5 -90 -80.5s-37.5 -62.333 -37.5 -97h329v98h64v-158h-464z" />
    <glyph glyph-name="three.tnum" 
d="M77 547v155.998h416v-49l-208 -241c24 -1.33301 47.667 -5.66602 71 -12.999s46.5 -18.5 69.5 -33.5s41.5 -36.167 55.5 -63.5s21 -59 21 -95c0 -60.667 -22.167 -112.5 -66.5 -155.5s-99.5 -64.5 -165.5 -64.5c-26 0 -51.333 3.33301 -76 10s-45.5 14.667 -62.5 24
s-32.167 18.666 -45.5 27.999s-23.333 17.333 -30 24l-9 10l42 51c5.33301 -6 13 -13.667 23 -23s30.667 -21.666 62 -36.999s63 -23 95 -23c43.333 0 81 14.667 113 44s48 66 48 110c0 46.667 -16.833 83.334 -50.5 110.001s-74.5 40 -122.5 40
c-6.66699 0 -13.5 -0.166992 -20.5 -0.5s-12.5 -0.833008 -16.5 -1.5h-7l-18 42l190 225l24 22v2c-13.333 -1.33301 -24.333 -2 -33 -2h-235v-96h-64z" />
    <glyph glyph-name="four.tnum" 
d="M17 195v45l345 463h75v-449h100v-59h-100v-195h-69v195h-351zM346 578l-246.999 -322v-2h269v317l4 46h-3c-6.66699 -14 -14.334 -27 -23.001 -39z" />
    <glyph glyph-name="five.tnum" 
d="M52 79l42.0029 49.001c1.33301 -2 3.5 -4.66699 6.5 -8s9.66699 -9.5 20 -18.5s21.333 -16.833 33 -23.5s27 -12.667 46 -18s38.5 -8 58.5 -8c49.333 0 91.166 16.167 125.499 48.5s51.5 70.833 51.5 115.5c0 50 -16.333 90.5 -49 121.5s-75 46.5 -127 46.5
c-22.667 0 -45 -3.33301 -67 -10s-38.333 -13.334 -49 -20.001l-16 -10l-44 16l38 343h343v-156h-63v96h-220l-23 -198l-5 -28h2c30.667 18 68.667 27 114 27c68 0 124.667 -21.333 170 -64s68 -95.667 68 -159c0 -64.667 -23.833 -119.667 -71.5 -165
s-106.167 -68 -175.5 -68c-26 0 -50.833 3.16699 -74.5 9.5s-43.334 13.833 -59.001 22.5s-29.334 17.5 -41.001 26.5s-20.167 16.833 -25.5 23.5z" />
    <glyph glyph-name="six.tnum" 
d="M304 -12c-76.667 0 -138.166 30.832 -184.499 92.499s-69.5 140.167 -69.5 235.5c0 36.667 3.66699 73.334 11 110.001s19.166 72.5 35.499 107.5s36.333 65.833 60 92.5s53 48.167 88 64.5s73.5 24.5 115.5 24.5c22.667 0 44.667 -2.5 66 -7.5s37.333 -9.83301 48 -14.5
l15 -7l-26 -60c-29.333 16.667 -63.666 25 -102.999 25c-46.667 0 -87.5 -14.333 -122.5 -43s-61.333 -63.667 -79 -105s-28.5 -86.333 -32.5 -135h2c17.333 25.333 42.333 45.333 75 60s67.667 22 105 22c63.333 0 115.666 -21.167 156.999 -63.5s62 -96.833 62 -163.5
c0 -71.333 -21.333 -128.333 -64 -171s-95.667 -64 -159 -64zM125.001 263.999c0 -49.333 16.998 -97.001 50.998 -143.001s76.333 -69 127 -69c46.667 0 83.667 15.833 111 47.5s41 72.834 41 123.501c0 50 -14.667 90.167 -44 120.5s-68.666 45.5 -117.999 45.5
c-45.333 0 -84.666 -13 -117.999 -39s-50 -54.667 -50 -86z" />
    <glyph glyph-name="seven.tnum" 
d="M130 0l301.999 612l19 31v2c-11.333 -1.33301 -23.666 -2 -36.999 -2h-294v-96h-63v156h471v-48l-326 -655h-72z" />
    <glyph glyph-name="eight.tnum" 
d="M45 198c0 28 4.83301 54.166 14.5 78.499s22.5 44.833 38.5 61.5s28.333 28.667 37 36s17.667 14 27 20c-59.333 38.667 -89 86.334 -89 143.001c0 49.333 18.5 91.333 55.5 126s89.5 52 157.5 52c64.667 0 116.667 -16.667 156 -50s59 -77 59 -131
c0 -30.667 -7.33301 -62 -22 -94s-27 -54.167 -37 -66.5s-19.333 -22.833 -28 -31.5c68.667 -39.333 103 -90 103 -152c0 -55.333 -22.167 -102.833 -66.5 -142.5s-99.833 -59.5 -166.5 -59.5c-66 0 -122.333 19.5 -169 58.5s-70 89.5 -70 151.5zM143 536.999
c0 -14.667 3.33203 -28.668 9.99902 -42.001s14 -24.166 22 -32.499s20.667 -17.5 38 -27.5s31.333 -17.5 42 -22.5s27.834 -12.5 51.501 -22.5l50.5 -21c50 50 75 102.667 75 158c0 38.667 -13.5 69.167 -40.5 91.5s-62.167 33.5 -105.5 33.5c-44 0 -78.833 -11 -104.5 -33
s-38.5 -49.333 -38.5 -82zM115.999 202.998c0 -44.667 16.666 -81.168 49.999 -109.501s72.333 -42.5 117 -42.5c42.667 0 80.334 13.167 113.001 39.5s49 58.833 49 97.5c0 15.333 -3.16699 29.5 -9.5 42.5s-13.833 24 -22.5 33s-21.5 18.333 -38.5 28
s-32.167 17.334 -45.5 23.001l-55 23.5l-57 25c-67.333 -44.667 -101 -98 -101 -160z" />
    <glyph glyph-name="nine.tnum" 
d="M38 480c0 71.333 21.3311 128.334 63.998 171.001s95.667 64 159 64c76 0 137.333 -30.833 184 -92.5s70 -140.167 70 -235.5c0 -46.667 -6.16699 -92.667 -18.5 -138s-30.333 -87.833 -54 -127.5s-56.167 -71.834 -97.5 -96.501s-88.333 -37 -141 -37
c-22.667 0 -44.667 2.33301 -66 7s-37 9.66699 -47 15l-15 7l26 60c29.333 -16.667 63.333 -25 102 -25c68.667 0 123.334 28.167 164.001 84.5s64.334 122.833 71.001 199.5h-2c-17.333 -24 -42.5 -43.333 -75.5 -58s-67.833 -22 -104.5 -22c-64 0 -116.5 21 -157.5 63
s-61.5 95.667 -61.5 161zM109.998 480.001c0 -48.667 14.667 -88.001 44 -118.001s68.333 -45 117 -45c45.333 0 84.833 12.833 118.5 38.5s50.5 53.834 50.5 84.501c0 49.333 -17.333 96.833 -52 142.5s-76.667 68.5 -126 68.5c-46.667 0 -83.667 -16 -111 -48
s-41 -73 -41 -123z" />
    <glyph glyph-name="hyphen.case" horiz-adv-x="488" 
d="M102 318v62h284v-62h-284z" />
    <glyph glyph-name="parenleft.case" horiz-adv-x="302" 
d="M188 -65c-75.333 129.333 -113 273.333 -113 432c0 139.333 37.667 270.333 113 393h64c-75.333 -126 -113 -257 -113 -393c0 -154 37.667 -298 113 -432h-64z" />
    <glyph glyph-name="parenright.case" horiz-adv-x="301" 
d="M50 -65c75.333 135.333 113 279.333 113 432c0 134.667 -37.667 265.667 -113 393h63c75.333 -122.667 113 -253.667 113 -393c0 -158.667 -37.667 -302.667 -113 -432h-63z" />
    <glyph glyph-name="bracketleft.case" horiz-adv-x="296" 
d="M103 -65v825h135v-56h-72v-713h72v-56h-135z" />
    <glyph glyph-name="bracketright.case" horiz-adv-x="295" 
d="M56 -9h73v713h-73v56h136v-825h-136v56z" />
    <glyph glyph-name="braceleft.case" horiz-adv-x="319" 
d="M121 113l-0.000976562 95.0059c0 30.667 -7.16699 55.5 -21.5 74.5s-28.5 30.167 -42.5 33.5l-21 6v62c2 0 5 0.5 9 1.5s10.833 4 20.5 9s18.334 11.167 26.001 18.5s14.5 18.666 20.5 33.999s9 32.666 9 51.999v82c0 31.333 4 58.666 12 81.999s17.5 41 28.5 53
s24 21.5 39 28.5s27.667 11.333 38 13s20.833 2.5 31.5 2.5h15v-56h-9c-8.66699 0 -17.167 -1.16699 -25.5 -3.5s-18.166 -7.33301 -29.499 -15s-20.333 -20.5 -27 -38.5s-10 -40.667 -10 -68v-98c0 -18 -2.66699 -34.833 -8 -50.5s-12 -28 -20 -37s-16 -16.667 -24 -23
s-14.667 -10.5 -20 -12.5l-8 -4v-2c2 -0.666992 4.83301 -1.83398 8.5 -3.50098s10.167 -5.66699 19.5 -12s17.5 -13.833 24.5 -22.5s13.333 -20.834 19 -36.501s8.5 -33.167 8.5 -52.5v-110c0 -27.333 3.33301 -50 10 -68s15.667 -30.833 27 -38.5
s21.166 -12.667 29.499 -15s16.833 -3.5 25.5 -3.5h9v-56c-4 -0.666992 -9 -1 -15 -1c-10.667 0 -21.167 0.833008 -31.5 2.5s-23 6.16699 -38 13.5s-28 17 -39 29s-20.5 29.667 -28.5 53s-12 50.666 -12 81.999z" />
    <glyph glyph-name="braceright.case" horiz-adv-x="320" 
d="M34 -10l10.001 -0.00683594c8.66699 0 17.167 1.16699 25.5 3.5s18 7.33301 29 15s20 20.5 27 38.5s10.5 40.667 10.5 68v110c0 19.333 2.66699 36.833 8 52.5s12 27.834 20 36.501s16 16.167 24 22.5s14.667 10.5 20 12.5l8 3v2
c-2 0.666992 -4.83301 1.83398 -8.5 3.50098s-10.167 6 -19.5 13s-17.5 14.833 -24.5 23.5s-13.333 20.834 -19 36.501s-8.5 32.5 -8.5 50.5v98c0 27.333 -3.5 50 -10.5 68s-16 30.833 -27 38.5s-20.667 12.667 -29 15s-16.833 3.5 -25.5 3.5h-10v56h16
c10.667 0 21.167 -0.833008 31.5 -2.5s23 -6 38 -13s28 -16.5 39 -28.5s20.5 -29.667 28.5 -53s12 -50.666 12 -81.999v-82c0 -19.333 3 -36.666 9 -51.999s13.167 -26.666 21.5 -33.999s16.5 -13.5 24.5 -18.5s15 -7.83301 21 -8.5l9 -2v-62c-2 0 -5 -0.5 -9 -1.5
s-10.833 -4 -20.5 -9s-18.334 -11.167 -26.001 -18.5s-14.5 -18.5 -20.5 -33.5s-9 -32.167 -9 -51.5v-95c0 -31.333 -4 -58.666 -12 -81.999s-17.5 -41 -28.5 -53s-24 -21.667 -39 -29s-27.667 -11.833 -38 -13.5s-20.833 -2.5 -31.5 -2.5l-16 1v56z" />
    <glyph glyph-name="at.case" horiz-adv-x="752" 
d="M46 351c0 102 34.666 188.665 103.999 259.998s153 107 251 107c84.667 0 146.667 -18 186 -54s59 -81 59 -135v-315h71v-56h-269c-56.667 0 -104 18.833 -142 56.5s-57 82.834 -57 135.501s19 97.834 57 135.501s85.333 56.5 142 56.5h130
c-1.33301 33.333 -16.333 61.166 -45 83.499s-71 33.5 -127 33.5c-81.333 0 -150.166 -30.167 -206.499 -90.5s-84.5 -132.833 -84.5 -217.5c0 -86 28.167 -158.5 84.5 -217.5s126.833 -88.5 211.5 -88.5v-60c-103.333 0 -190 35.333 -260 106s-105 157.334 -105 260.001z
M318.999 349.998c0 -38 13 -70.167 39 -96.5s58 -39.5 96 -39.5h124v275h-122c-39.333 0 -72 -13.5 -98 -40.5s-39 -59.833 -39 -98.5z" />
    <glyph glyph-name="guillemotleft.case" horiz-adv-x="528" 
d="M393 137l-164 205l164 206h74l-164 -206l164 -205h-74zM213 137l-164 205l164 206h74l-164 -206l164 -205h-74z" />
    <glyph glyph-name="guillemotright.case" horiz-adv-x="528" 
d="M241 137l164 205l-164 206h74l164 -206l-164 -205h-74zM61 137l164 205l-164 206h74l164 -206l-164 -205h-74z" />
    <glyph glyph-name="guilsinglleft.case" horiz-adv-x="348" 
d="M213 137l-164 205l164 206h74l-164 -206l164 -205h-74z" />
    <glyph glyph-name="guilsinglright.case" horiz-adv-x="348" 
d="M61 137l164 205l-164 206h74l164 -206l-164 -205h-74z" />
    <glyph glyph-name="endash.case" horiz-adv-x="706" 
d="M103 315v58h500v-58h-500z" />
    <glyph glyph-name="emdash.case" horiz-adv-x="906" 
d="M103 315v58h700v-58h-700z" />
    <glyph glyph-name="periodcentered.case" horiz-adv-x="269" 
d="M94 305v83h81v-83h-81z" />
    <glyph glyph-name="questiondown.case" horiz-adv-x="436" 
d="M209 624v79h79v-79h-79zM36 165c0 30.667 6.16797 58.168 18.501 82.501s27.333 44.833 45 61.5l52.5 48c17.333 15.333 32.166 33.166 44.499 53.499s18.5 42.5 18.5 66.5v42h67v-45c0 -29.333 -6 -56 -18 -80s-26.5 -44.167 -43.5 -60.5l-51.5 -48
c-17.333 -15.667 -32 -33.5 -44 -53.5s-18 -41.333 -18 -64c0 -32.667 12.333 -60 37 -82s56.334 -33 95.001 -33c20 0 40 3.5 60 10.5s35 13.833 45 20.5l15 11l38 -50c-4.66699 -4 -11.334 -9.16699 -20.001 -15.5s-27 -14.833 -55 -25.5s-56.667 -16 -86 -16
c-58 0 -105.833 16.5 -143.5 49.5s-56.5 75.5 -56.5 127.5z" />
    <glyph glyph-name="exclamdown.case" horiz-adv-x="286" 
d="M103 624v79h78v-79h-78zM108 0l3 519h64l3 -519h-70z" />
    <glyph glyph-name="bullet.case" horiz-adv-x="400" 
d="M200 209c-39.333 0 -73 14 -101 42s-42 61.667 -42 101s14 73 42 101s61.667 42 101 42s73 -14 101 -42s42 -61.667 42 -101s-14 -73 -42 -101s-61.667 -42 -101 -42z" />
    <glyph glyph-name="zero.p_osf" horiz-adv-x="596" 
d="M63 270c0 77.333 20.5 144.164 61.5 200.497s98.833 84.5 173.5 84.5s132.5 -28.167 173.5 -84.5s61.5 -123.166 61.5 -200.499s-20.333 -143.666 -61 -198.999s-98.667 -83 -174 -83s-133.333 27.833 -174 83.5s-61 121.834 -61 198.501zM133 271.998
c0 -60.667 14.333 -113 43 -157s69.334 -66 122.001 -66s93.5 22 122.5 66s43.5 96 43.5 156c0 60.667 -14.5 113 -43.5 157s-69.833 66 -122.5 66s-93.334 -22 -122.001 -66s-43 -96 -43 -156z" />
    <glyph glyph-name="one.p_osf" horiz-adv-x="447" 
d="M63 0v58h155v362l1 53h-2c-10 -8.66699 -22.667 -17.667 -38 -27l-105 -63l-32 48l180 112h63v-485h139v-58h-361z" />
    <glyph glyph-name="two.p_osf" horiz-adv-x="542" 
d="M68 0v48c113.333 76 195.333 138.833 246 188.5s76 97.5 76 143.5c0 37.333 -12.833 65.666 -38.5 84.999s-57.5 29 -95.5 29c-16.667 0 -33.5 -2.66699 -50.5 -8s-31.667 -11.666 -44 -18.999s-23.5 -14.833 -33.5 -22.5s-17.333 -14.167 -22 -19.5l-8 -8l-39 45
c2 2.66699 5 6 9 10s12.667 11.333 26 22s27.5 20.167 42.5 28.5s34 15.833 57 22.5s46.5 10 70.5 10c61.333 0 109.333 -16.5 144 -49.5s52 -72.167 52 -117.5c0 -56 -22.833 -109.167 -68.5 -159.5s-118.5 -107.5 -218.5 -171.5v-2c13.333 2 32.333 3 57 3h256v-58h-418z
" />
    <glyph glyph-name="three.p_osf" horiz-adv-x="509" 
d="M25 -38l40.998 46.999c1.33301 -2 3.66602 -4.66699 6.99902 -8s10.166 -9.5 20.499 -18.5s21.5 -16.833 33.5 -23.5s27.333 -12.667 46 -18s37.667 -8 57 -8c42.667 0 79.834 13.333 111.501 40s47.5 61.334 47.5 104.001c0 44 -16.667 78 -50 102s-74.333 36 -123 36
l-44 -3l-17 43l185 209l24 23v2c-13.333 -1.33301 -24.333 -2 -33 -2h-214v-90h-61v146h393v-45l-205 -228c18.667 -0.666992 37 -3 55 -7s36.833 -10.667 56.5 -20s37 -20.833 52 -34.5s27.333 -31.667 37 -54s14.5 -47.5 14.5 -75.5
c0 -60.667 -21.667 -110.334 -65 -149.001s-97.666 -58 -162.999 -58c-25.333 0 -49.666 3.16699 -72.999 9.5s-42.666 13.833 -57.999 22.5s-29 17.334 -41 26.001s-20.667 16 -26 22z" />
    <glyph glyph-name="four.p_osf" horiz-adv-x="571" 
d="M25 38v44l330 461h75v-448h107v-57h-107v-154h-68v154h-337zM104 95h258v317l3 46h-2c-7.33301 -14 -15 -27 -23 -39z" />
    <glyph glyph-name="five.p_osf" horiz-adv-x="511" 
d="M26 -36l42 44c4 -4.66699 9.83301 -10.667 17.5 -18s24.834 -17.166 51.501 -29.499s55 -18.5 85 -18.5c47.333 0 88.166 13.667 122.499 41s51.5 65 51.5 113c0 46.667 -17 83.167 -51 109.5s-74 39.5 -120 39.5c-21.333 0 -42.666 -2.83301 -63.999 -8.5
s-37.333 -11.5 -48 -17.5l-16 -9l-42 15l38 318h333v-146h-62v90h-213l-20 -168l-6 -39h2c30 16 67 24 111 24c63.333 0 117.166 -18.5 161.499 -55.5s66.5 -87.5 66.5 -151.5c0 -64.667 -23 -116.834 -69 -156.501s-103 -59.5 -171 -59.5
c-25.333 0 -49.5 2.83301 -72.5 8.5s-42 12.5 -57 20.5s-28 16.167 -39 24.5s-18.833 15.5 -23.5 21.5z" />
    <glyph glyph-name="six.p_osf" horiz-adv-x="579" 
d="M58 290c0 44 5.99512 87.6689 17.9951 131.002s29.833 84 53.5 122s55.834 68.833 96.501 92.5s86.667 35.5 138 35.5c23.333 0 45.833 -2.16699 67.5 -6.5s37.5 -8.83301 47.5 -13.5l15 -7l-26 -57c-29.333 15.333 -63.666 23 -102.999 23
c-46.667 0 -87.5 -13.667 -122.5 -41s-61.333 -60.833 -79 -100.5s-28.5 -82.834 -32.5 -129.501h2c17.333 25.333 42.333 45.166 75 59.499s67.334 21.5 104.001 21.5c64.667 0 117.334 -19.5 158.001 -58.5s61 -89.833 61 -152.5c0 -66.667 -21 -120.167 -63 -160.5
s-94.667 -60.5 -158 -60.5c-75.333 0 -136.166 28.167 -182.499 84.5s-69.5 128.833 -69.5 217.5zM130.995 248.002c0 -47.333 17.167 -92.332 51.5 -134.999s76.833 -64 127.5 -64c46.667 0 83.5 14.667 110.5 44s40.5 67.666 40.5 114.999c0 46 -14.5 83 -43.5 111
s-67.5 42 -115.5 42c-46 0 -86 -12 -120 -36s-51 -49.667 -51 -77z" />
    <glyph glyph-name="seven.p_osf" horiz-adv-x="507" 
d="M99 -116l289 572l19 31v2c-10.667 -1.33301 -23 -2 -37 -2h-269v-90h-61v146h443v-45l-311 -614h-73z" />
    <glyph glyph-name="eight.p_osf" horiz-adv-x="578" 
d="M56 189c0 66 39.668 126.001 119.001 180.001c-60 34.667 -90 79.667 -90 135c0 46 18.167 85.5 54.5 118.5s87.166 49.5 152.499 49.5c63.333 0 114.333 -15.833 153 -47.5s58 -73.167 58 -124.5c0 -28.667 -7.5 -57.834 -22.5 -87.501s-28 -50.5 -39 -62.5
s-20.167 -21.333 -27.5 -28c70 -36.667 105 -84.334 105 -143.001c0 -52.667 -21.833 -97.667 -65.5 -135s-98.5 -56 -164.5 -56c-64.667 0 -119.667 18.333 -165 55s-68 85.334 -68 146.001zM153.001 503.001c0 -14 3.16602 -26.832 9.49902 -38.499s13.333 -21.5 21 -29.5
s19.834 -16.667 36.501 -26s30.167 -16.166 40.5 -20.499l49.5 -20c22.667 -9 38.667 -15.5 48 -19.5c7.33301 6 15.833 14.167 25.5 24.5s20.667 27.666 33 51.999s18.5 48.166 18.5 71.499c0 34.667 -13.333 62.167 -40 82.5s-61 30.5 -103 30.5
c-42.667 0 -76.5 -10.167 -101.5 -30.5s-37.5 -45.833 -37.5 -76.5zM126 192.002c0 -42.667 16.168 -77.167 48.501 -103.5s70.5 -39.5 114.5 -39.5c42.667 0 80 12.333 112 37s48 55.667 48 93c0 16.667 -3.83301 31.667 -11.5 45s-20.334 25.5 -38.001 36.5
s-33.5 19.833 -47.5 26.5s-34.5 15.5 -61.5 26.5s-47.167 19.5 -60.5 25.5c-69.333 -41.333 -104 -90.333 -104 -147z" />
    <glyph glyph-name="nine.p_osf" horiz-adv-x="572" 
d="M103 -44c29.333 -15.333 63.667 -22.9961 103 -22.9961c35.333 0 67.5 7.83301 96.5 23.5s53 36.667 72 63s34 55.166 45 86.499s18.167 64 21.5 98h-2c-17.333 -25.333 -42.5 -45.166 -75.5 -59.499s-67.833 -21.5 -104.5 -21.5c-64 0 -116.333 19.5 -157 58.5
s-61 89.833 -61 152.5c0 66.667 20.833 120.167 62.5 160.5s94.167 60.5 157.5 60.5c76 0 137.167 -28.167 183.5 -84.5s69.5 -128.833 69.5 -217.5c0 -34.667 -3.66699 -69.334 -11 -104.001s-19 -68.834 -35 -102.501s-35.667 -63.334 -59 -89.001
s-52.5 -46.334 -87.5 -62.001s-73.167 -23.5 -114.5 -23.5c-23.333 0 -45.833 2.33301 -67.5 7s-37.5 9 -47.5 13l-15 7zM270.001 182.004c45.333 0 85 11.999 119 35.999s51 49.667 51 77c0 47.333 -17 92.333 -51 135s-76.333 64 -127 64
c-47.333 0 -84.5 -14.667 -111.5 -44s-40.5 -67.666 -40.5 -114.999c0 -46 14.5 -83 43.5 -111s67.833 -42 116.5 -42z" />
    <glyph glyph-name="zero.t_osf" 
d="M47 270c0 77.333 20.5 144.164 61.5 200.497s98.833 84.5 173.5 84.5s132.5 -28.167 173.5 -84.5s61.5 -123.166 61.5 -200.499s-20.333 -143.666 -61 -198.999s-98.667 -83 -174 -83s-133.333 27.833 -174 83.5s-61 121.834 -61 198.501zM117 271.998
c0 -60.667 14.333 -113 43 -157s69.334 -66 122.001 -66s93.5 22 122.5 66s43.5 96 43.5 156c0 60.667 -14.5 113 -43.5 157s-69.833 66 -122.5 66s-93.334 -22 -122.001 -66s-43 -96 -43 -156z" />
    <glyph glyph-name="one.t_osf" 
d="M122 0v58h155v362l1 53h-2c-10 -8.66699 -22.667 -17.667 -38 -27l-105 -63l-32 48l180 112h63v-485h139v-58h-361z" />
    <glyph glyph-name="two.t_osf" 
d="M79 0v48c113.333 76 195.333 138.833 246 188.5s76 97.5 76 143.5c0 37.333 -12.833 65.666 -38.5 84.999s-57.5 29 -95.5 29c-16.667 0 -33.5 -2.66699 -50.5 -8s-31.667 -11.666 -44 -18.999s-23.5 -14.833 -33.5 -22.5s-17.667 -14.167 -23 -19.5l-7 -8l-39 45
c2 2.66699 5 6 9 10s12.667 11.333 26 22s27.5 20.167 42.5 28.5s34 15.833 57 22.5s46.5 10 70.5 10c61.333 0 109.333 -16.5 144 -49.5s52 -72.167 52 -117.5c0 -56 -22.833 -109.167 -68.5 -159.5s-118.5 -107.5 -218.5 -171.5v-2c13.333 2 32.333 3 57 3h256v-58h-418z
" />
    <glyph glyph-name="three.t_osf" 
d="M53 -38l40.998 46.999c1.33301 -2 3.66602 -4.66699 6.99902 -8s10.166 -9.5 20.499 -18.5s21.5 -16.833 33.5 -23.5s27.333 -12.667 46 -18s37.667 -8 57 -8c42.667 0 79.834 13.333 111.501 40s47.5 61.334 47.5 104.001c0 44 -16.667 78 -50 102s-74.333 36 -123 36
l-44 -3l-17 43l185 209l24 23v2c-13.333 -1.33301 -24.333 -2 -33 -2h-214v-90h-61v146h393v-45l-205 -228c18.667 -0.666992 37 -3 55 -7s36.833 -10.667 56.5 -20s37 -20.833 52 -34.5s27.333 -31.667 37 -54s14.5 -47.5 14.5 -75.5
c0 -60.667 -21.667 -110.334 -65 -149.001s-97.666 -58 -162.999 -58c-25.333 0 -49.666 3.16699 -72.999 9.5s-42.666 13.833 -57.999 22.5s-29 17.334 -41 26.001s-20.667 16 -26 22z" />
    <glyph glyph-name="four.t_osf" 
d="M22 38v44l330 461h75v-448h107v-57h-107v-154h-68v154h-337zM101 95h258v317l3 46h-2c-7.33301 -14 -15 -27 -23 -39z" />
    </font>
</defs>
</svg>
