<?xml version="1.0" encoding="utf-8"?>
<!-- Generator: Adobe Illustrator 17.1.0, SVG Export Plug-In . SVG Version: 6.00 Build 0)  -->
<!DOCTYPE svg PUBLIC "-//W3C//DTD SVG 1.1//EN" "http://www.w3.org/Graphics/SVG/1.1/DTD/svg11.dtd">
<svg version="1.1" id="Layer_1" xmlns="http://www.w3.org/2000/svg" xmlns:xlink="http://www.w3.org/1999/xlink" x="0px" y="0px"
	 viewBox="11 0 705 129" enable-background="new 11 0 705 129" xml:space="preserve">
<g id="Layer_2">
</g>
<g id="Layer_1_1_">
	<g>
		<path fill="#FFFFFF" d="M351.5,61.8c0,8.9,6.8,10,10.2,10c1.1,0,1.8-0.1,1.8-0.1v-4.5c0,0-0.5,0.1-1.2,0.1c-2,0-5.7-0.7-5.7-6
			V48.9h6.4v-4.1h-6.4v-7.3h-5v7.3H348v4.1h3.5L351.5,61.8L351.5,61.8z"/>
		<path fill="#FFFFFF" d="M367.6,39.8v31.8h5.1V59c0-1.3,0.1-2.5,0.5-3.5c1.1-3.9,4.4-6.6,8.5-6.6c4.3,0,5.1,3,5.1,6.7v12.6
			c0,2.4,1,3.4,3.4,3.4h5v-4.4H393c-0.7,0-1.2-0.4-1.2-1.2V54.4c0-6.8-2.9-10.2-9.1-10.2c-5.3,0-8.8,3.4-9.9,6h-0.1
			c0,0,0.1-1,0.1-2.2V37.5c0-2.3-1-3.3-3.4-3.3h-5.1v4.4h2.2C367.2,38.6,367.6,39,367.6,39.8"/>
		<path fill="#FFFFFF" d="M411.3,72.2c6.3,0,10.3-3.9,10.3-3.9l-2.2-3.6c0,0-3.2,3.1-7.8,3.1c-4.8,0-8.9-3.2-9.2-8.9h19.5
			c0,0,0.2-1.4,0.2-2.1c0-6.9-4-12.5-11.5-12.5c-7.6,0-13.4,5.5-13.4,14C397.1,66.1,402.8,72.2,411.3,72.2 M410.5,48.2
			c3.3,0,6.1,2.4,6.3,6.8h-14.2C403.4,50.6,406.5,48.2,410.5,48.2"/>
		<path fill="#FFFFFF" d="M469.3,51.4c0.4-0.9,0.9-2.1,1.2-3.2c0,1,0,2.1,0.1,3.1l1.3,16.7c0.2,2.4,1,4,4,4h6.4v-6.8h-2.1
			c-0.4,0-0.7-0.1-0.7-0.7L477,33.6h-7.9l-7.8,18.1c-0.5,1.3-1.1,2.9-1.5,3.9c-0.4-1-0.9-2.6-1.5-3.9l-7.8-18.1h-7.9l-2.5,30.9
			c0,0.6-0.3,0.7-0.7,0.7h-2.1V72h6.4c2.6,0,3.8-1.2,4.1-4l1.2-16.7c0.1-1,0.1-2.1,0.1-3.1c0.4,1.1,0.8,2.3,1.2,3.2l6.4,14.1h6.2
			L469.3,51.4z"/>
		<path fill="#FFFFFF" d="M498.6,43.5c-8.7,0-15.2,6.3-15.2,14.6c0,8.3,6.5,14.6,15.2,14.6c8.7,0,15.3-6.3,15.3-14.6
			C513.9,49.7,507.3,43.5,498.6,43.5 M498.6,66c-4.3,0-7.5-3.4-7.5-7.9c0-4.5,3.2-7.9,7.5-7.9c4.3,0,7.6,3.4,7.6,7.9
			C506.2,62.6,502.9,66,498.6,66"/>
		<path fill="#FFFFFF" d="M532.9,50.5c2.7,0,3.8,1.4,3.8,5v12.4c0,2.8,1.3,4.1,4.1,4.1h6.9v-6.6H545c-0.5,0-0.7-0.2-0.7-0.7V54.2
			c0-7.1-3.3-10.7-9.9-10.7c-4.9,0-7.7,2.6-9,4.4v-0.3c0-2.2-1.5-3.5-4-3.5h-6.6v6.6h2.6c0.5,0,0.7,0.2,0.7,0.7V72h7.6V59.2
			c0-1.3,0.2-2.4,0.5-3.5C527,52.5,529.6,50.5,532.9,50.5"/>
		<path fill="#FFFFFF" d="M563.1,72.6c6.8,0,11-4,11.2-4.2l0.3-0.3l-3.3-5.5l-0.4,0.4c0,0-3.1,2.9-7.2,2.9c-4,0-6.9-2.5-7.6-6.3
			h18.5l0-0.4c0-0.1,0.2-1.7,0.2-2.5c0-7.9-5-13.2-12.4-13.2c-8.3,0-14.2,6-14.2,14.6C548.2,66.5,554.5,72.6,563.1,72.6 M556.3,54.1
			c0.8-2.9,3-4.5,6-4.5c2.4,0,4.3,1.9,4.6,4.5H556.3z"/>
		<path fill="#FFFFFF" d="M582,76.5c-2,0-3.5-1.7-3.5-1.7l-0.4-0.5L575,80l0.2,0.2c0.1,0.1,2.8,2.9,7.2,2.9c4.6,0,8.3-2.7,10.2-7.3
			l9.7-24.4c0.2-0.5,0.4-0.7,1.1-0.7h1.3v-6.6h-5c-2.1,0-3.4,0.9-4,2.8l-4.6,13.5c-0.2,0.5-0.4,1.2-0.5,1.8
			c-0.2-0.6-0.4-1.3-0.6-1.9L584.5,47c-0.8-2-1.9-2.8-4-2.8h-4.9v6.6h1.3c0.6,0,0.8,0.1,1,0.7l8.9,20.1l-0.8,1.9
			C585.2,75.4,583.7,76.5,582,76.5"/>
		<path fill="#FFFFFF" d="M379.8,111.9l-11.2-30.8h-7.9l-11.3,30.8c-0.2,0.7-0.5,0.8-1.2,0.8h-1.3v6.8h4.6c2.8,0,3.9-0.8,4.8-3.4
			l2.2-6.2h12l2.2,6.2c0.9,2.6,2.1,3.4,4.9,3.4h4.6v-6.8H381C380.2,112.8,380,112.6,379.8,111.9 M364.6,90.5c0.3,1.2,0.7,2.8,1.1,4
			l3,8.8h-8.2l3-8.8C363.9,93.3,364.3,91.7,364.6,90.5"/>
		<path fill="#FFFFFF" d="M410.6,112.3V85.2c0-2.7-1.3-4.1-4.1-4.1h-6.9v6.6h2.6c0.5,0,0.7,0.2,0.7,0.7v4.8c0,0.1,0,0.3,0,0.4
			c-1.1-1-3.3-2.5-7.4-2.5c-7.5,0-12.7,6-12.7,14.6c0,8.7,5,14.6,12.5,14.6c4.5,0,6.9-2.2,8.1-3.5c0.1,1.2,0.8,2.9,3.8,2.9h6.6V113
			h-2.5C410.8,113,410.6,112.8,410.6,112.3 M396.8,113.6c-3.8,0-6.2-3.1-6.2-8c0-4.7,2.5-7.9,6.3-7.9c4.3,0,6.2,3.9,6.2,7.8
			C403.1,111.5,399.8,113.6,396.8,113.6"/>
		<path fill="#FFFFFF" d="M433.2,94.5l-5.1,14.2c-0.2,0.6-0.4,1.4-0.6,2.1c-0.2-0.7-0.4-1.4-0.6-2.1l-5.1-14.2c-0.8-2-2-2.8-4.4-2.8
			h-4.3v6.6h1c0.6,0,0.9,0.2,1.1,0.7l7.8,20.6h8.6l7.8-20.6c0.2-0.5,0.5-0.7,1-0.7h1.1v-6.6h-4.1C435.2,91.7,433.9,92.5,433.2,94.5"
			/>
		<path fill="#FFFFFF" d="M454.3,112.3V95.7c0-2.8-1.3-4.1-4-4.1h-6.9v6.6h2.6c0.5,0,0.7,0.2,0.7,0.7v16.5c0,2.8,1.3,4.1,4,4.1h6.9
			V113H455C454.5,113,454.3,112.8,454.3,112.3"/>
		<rect x="447" y="81.1" fill="#FFFFFF" width="6.7" height="7.1"/>
		<path fill="#FFFFFF" d="M481.7,109.9c0,0-3.3,3.5-7.6,3.5c-4,0-7.9-2.4-7.9-7.8c0-4.6,3.2-7.9,7.5-7.9c1.4,0,3.4,0.5,3.4,1.7v1.9
			h6.8v-3.6c0-4.8-6.1-6.5-10.2-6.5c-10,0-15.2,7.3-15.2,14.6c0,8.4,6.3,14.6,15.1,14.6c7.5,0,11.5-4.8,11.7-5l0.2-0.3l-3.3-5.5
			L481.7,109.9z"/>
		<path fill="#FFFFFF" d="M500.2,91c-8.3,0-14.1,6-14.1,14.6c0,8.4,6.3,14.6,14.9,14.6c6.8,0,11-4,11.2-4.2l0.3-0.3l-3.3-5.5
			l-0.4,0.4c0,0-3.1,2.9-7.2,2.9c-4,0-6.9-2.5-7.6-6.3h18.5l0-0.4c0-0.1,0.2-1.7,0.2-2.5C512.6,96.4,507.6,91,500.2,91 M500.2,97.1
			c2.4,0,4.3,1.9,4.6,4.5h-10.6C495,98.8,497.1,97.1,500.2,97.1"/>
		<path fill="#FFFFFF" d="M544,96.4c-3.4-1.5-6.4-2.8-6.4-5.1c0-2.1,2.1-3.6,5-3.6c2.2,0,4.5,1,4.5,2.4v2.2h7.2v-3.9
			c0-5.7-7.1-7.9-11.6-7.9c-7.5,0-13,4.6-13,11c0,7,6.1,9.8,11.1,12.1c3.5,1.6,6.6,3,6.6,5.5c0,2.7-2.5,4-4.9,4
			c-5,0-8.7-4.2-8.7-4.3l-0.4-0.4l-4.5,5.6l0.2,0.3c0.2,0.2,4.8,6,13.3,6c7.6,0,12.9-4.7,12.9-11.5C555.2,101.2,549,98.5,544,96.4"
			/>
		<path fill="#FFFFFF" d="M571.4,91c-8.3,0-14.1,6-14.1,14.6c0,8.4,6.3,14.6,14.9,14.6c6.8,0,11-4,11.2-4.2l0.3-0.3l-3.3-5.5
			l-0.4,0.4c0,0-3.1,2.9-7.2,2.9c-4,0-6.9-2.5-7.6-6.3h18.5l0-0.4c0-0.1,0.2-1.7,0.2-2.5C583.8,96.4,578.9,91,571.4,91 M571.4,97.1
			c2.4,0,4.3,1.9,4.6,4.5h-10.6C566.3,98.8,568.4,97.1,571.4,97.1"/>
		<path fill="#FFFFFF" d="M604,91.3c-3.3,0-6.4,2-8.1,5.1v-1c0-2.5-1.4-3.7-4.1-3.7h-6.6v6.6h2.6c0.5,0,0.7,0.2,0.7,0.7v20.5h7.6
			v-11.1c0-1.5,0.2-2.9,0.6-4.3c1.2-3.9,4.3-5.3,6.9-5.3c0.9,0,1.6,0.1,1.6,0.1l0.5,0.1v-7.5l-0.4-0.1
			C605.2,91.4,604.6,91.3,604,91.3"/>
		<path fill="#FFFFFF" d="M627.4,94.5l-5.1,14.2c-0.2,0.6-0.4,1.4-0.6,2.1c-0.2-0.7-0.4-1.4-0.6-2.1l-5.1-14.2c-0.8-2-2-2.8-4.4-2.8
			h-4.3v6.6h1c0.6,0,0.9,0.2,1,0.7l7.8,20.6h8.6l7.8-20.6c0.2-0.5,0.5-0.7,1-0.7h1.1v-6.6h-4.1C629.5,91.7,628.2,92.5,627.4,94.5"/>
		<rect x="641.3" y="81.1" fill="#FFFFFF" width="6.7" height="7.1"/>
		<path fill="#FFFFFF" d="M648.6,112.3V95.7c0-2.8-1.3-4.1-4-4.1h-6.9v6.6h2.6c0.5,0,0.7,0.2,0.7,0.7v16.5c0,2.8,1.3,4.1,4,4.1h6.9
			V113h-2.6C648.8,113,648.6,112.8,648.6,112.3"/>
		<path fill="#FFFFFF" d="M676,109.9c0,0-3.3,3.5-7.6,3.5c-4,0-7.9-2.4-7.9-7.8c0-4.6,3.2-7.9,7.5-7.9c1.4,0,3.4,0.5,3.4,1.7v1.9
			h6.8v-3.6c0-4.8-6.1-6.5-10.2-6.5c-10,0-15.2,7.3-15.2,14.6c0,8.4,6.3,14.6,15,14.6c7.5,0,11.5-4.8,11.7-5l0.2-0.3l-3.3-5.5
			L676,109.9z"/>
		<path fill="#FFFFFF" d="M706.7,106.8c0-0.1,0.2-1.7,0.2-2.5c0-7.9-5-13.2-12.4-13.2c-8.3,0-14.1,6-14.1,14.6
			c0,8.4,6.3,14.6,14.9,14.6c6.8,0,11-4,11.2-4.2l0.3-0.3l-3.3-5.5l-0.4,0.4c0,0-3.1,2.9-7.2,2.9c-4,0-6.9-2.5-7.6-6.3h18.5
			L706.7,106.8z M694.4,97.1c2.4,0,4.3,1.9,4.6,4.5h-10.6C689.3,98.8,691.4,97.1,694.4,97.1"/>
		<path fill="#FFFFFF" d="M213.1,10.5c-60,0-108.9,48.8-108.9,108.9h8c0-55.6,45.3-100.9,100.9-100.9c55.6,0,100.9,45.3,100.9,100.9
			h8C322,59.4,273.2,10.5,213.1,10.5"/>
		<path fill="#FFFFFF" d="M213.1,25.3c-51.9,0-94.1,42.2-94.1,94.1h8c0-47.5,38.6-86.1,86.1-86.1c47.5,0,86.1,38.6,86.1,86.1h8
			C307.2,67.5,265,25.3,213.1,25.3"/>
		<path fill="#FFFFFF" d="M213.1,40.1c-43.7,0-79.3,35.6-79.3,79.3h8c0-39.3,32-71.3,71.3-71.3c39.3,0,71.3,32,71.3,71.3h8
			C292.4,75.7,256.9,40.1,213.1,40.1"/>
		<path fill="#FFFFFF" d="M213.1,54.9c-35.6,0-64.5,28.9-64.5,64.5h8c0-31.2,25.4-56.5,56.5-56.5s56.5,25.4,56.5,56.5h8
			C277.6,83.8,248.7,54.9,213.1,54.9"/>
		<path fill="#FFFFFF" d="M213.1,69.7c-27.4,0-49.7,22.3-49.7,49.7h8c0-23,18.7-41.7,41.7-41.7c23,0,41.7,18.7,41.7,41.7h8
			C262.9,92,240.6,69.7,213.1,69.7"/>
	</g>
	<g>
		<g>
			<path id="SVGID_1_" fill="#FFFFFF" d="M12.8,119.4h8c0-39.3,32-71.3,71.3-71.3c11.7,0,22.8,2.9,32.6,7.9c1.6-2.2,3.2-4.3,5-6.4
				c-11.2-6-24-9.5-37.6-9.5C48.4,40.1,12.8,75.7,12.8,119.4"/>
		</g>
	</g>
	<g>
		<g>
			<path id="SVGID_3_" fill="#FFFFFF" d="M27.6,119.4h8c0-31.2,25.4-56.5,56.5-56.5c8.9,0,17.3,2.1,24.8,5.7c1.3-2.4,2.6-4.7,4-6.9
				c-8.7-4.3-18.4-6.8-28.8-6.8C56.5,54.9,27.6,83.8,27.6,119.4"/>
		</g>
	</g>
	<g>
		<g>
			<path id="SVGID_5_" fill="#FFFFFF" d="M42.4,119.4h8c0-23,18.7-41.7,41.7-41.7c6.7,0,13.1,1.6,18.7,4.4c0.9-2.5,1.9-5,3-7.4
				c-6.6-3.2-14-5-21.8-5C64.7,69.7,42.4,92,42.4,119.4"/>
		</g>
	</g>
	<g>
		<g>
			<path id="SVGID_7_" fill="#FFFFFF" d="M57.2,119.4h8c0-14.9,12.1-26.9,26.9-26.9c5.4,0,10.3,1.6,14.5,4.3c0.6-2.7,1.3-5.4,2-8.1
				c-4.9-2.7-10.6-4.2-16.6-4.2C72.9,84.5,57.2,100.1,57.2,119.4"/>
		</g>
	</g>
	<g>
		<g>
			<path id="SVGID_9_" fill="#FFFFFF" d="M72,119.4h8c0-6.7,5.5-12.2,12.2-12.2c6.7,0,12.2,5.5,12.2,12.2v0c0-5.1,0.4-10.2,1.1-15.2
				c-3.5-3.1-8.2-5-13.2-5C81,99.3,72,108.3,72,119.4"/>
		</g>
	</g>
	<g>
		<path fill="#FFFFFF" d="M717.5,84.1c0,2.8-2.3,5.1-5.1,5.1c-2.8,0-5.1-2.3-5.1-5.1c0-2.8,2.3-5.1,5.1-5.1
			C715.2,79,717.5,81.3,717.5,84.1 M707.8,84.1c0,2.6,2,4.7,4.6,4.7c2.6,0,4.6-2.1,4.6-4.7c0-2.6-2-4.6-4.6-4.6
			C709.8,79.4,707.8,81.5,707.8,84.1 M710.5,81.1h2.3c1.4,0,2,0.6,2,1.7c0,1-0.7,1.5-1.6,1.6l1.8,2.8h-0.6l-1.8-2.8H711v2.8h-0.5
			L710.5,81.1L710.5,81.1z M711,83.9h1.3c0.9,0,1.9-0.1,1.9-1.1c0-0.9-0.8-1.2-1.5-1.2H711V83.9z"/>
	</g>
</g>
</svg>
