<?xml version="1.0" encoding="utf-8"?>
<!-- Generator: Adobe Illustrator 17.1.0, SVG Export Plug-In . SVG Version: 6.00 Build 0)  -->
<!DOCTYPE svg PUBLIC "-//W3C//DTD SVG 1.1//EN" "http://www.w3.org/Graphics/SVG/1.1/DTD/svg11.dtd">
<svg version="1.1" id="Layer_1" xmlns="http://www.w3.org/2000/svg" xmlns:xlink="http://www.w3.org/1999/xlink" x="0px" y="0px"
	 viewBox="38 32 324 136" enable-background="new 38 32 324 136" xml:space="preserve">
<path fill="#FFFFFF" d="M245.1,45.5c-60,0-108.9,48.8-108.9,108.9h8c0-55.6,45.3-100.9,100.9-100.9c55.6,0,100.9,45.3,100.9,100.9h8
	C354,94.4,305.2,45.5,245.1,45.5"/>
<path fill="#FFFFFF" d="M245.1,60.3c-51.9,0-94.1,42.2-94.1,94.1h8c0-47.5,38.6-86.1,86.1-86.1s86.1,38.6,86.1,86.1h8
	C339.2,102.5,297,60.3,245.1,60.3"/>
<path fill="#FFFFFF" d="M245.1,75.1c-43.7,0-79.3,35.6-79.3,79.3h8c0-39.3,32-71.3,71.3-71.3c39.3,0,71.3,32,71.3,71.3h8
	C324.4,110.7,288.9,75.1,245.1,75.1"/>
<path fill="#FFFFFF" d="M245.1,89.9c-35.6,0-64.5,28.9-64.5,64.5h8c0-31.2,25.4-56.5,56.5-56.5s56.5,25.4,56.5,56.5h8
	C309.6,118.8,280.7,89.9,245.1,89.9"/>
<path fill="#FFFFFF" d="M245.1,104.7c-27.4,0-49.7,22.3-49.7,49.7h8c0-23,18.7-41.7,41.7-41.7c23,0,41.7,18.7,41.7,41.7h8
	C294.9,127,272.6,104.7,245.1,104.7"/>
<g>
	<g>
		<path id="SVGID_1_" fill="#FFFFFF" d="M44.8,154.4h8c0-39.3,32-71.3,71.3-71.3c11.7,0,22.8,2.9,32.6,7.9c1.6-2.2,3.2-4.3,5-6.4
			c-11.2-6-24-9.5-37.6-9.5C80.4,75.1,44.8,110.7,44.8,154.4"/>
	</g>
</g>
<g>
	<g>
		<path id="SVGID_3_" fill="#FFFFFF" d="M59.6,154.4h8c0-31.2,25.4-56.5,56.5-56.5c8.9,0,17.3,2.1,24.8,5.7c1.3-2.4,2.6-4.7,4-6.9
			c-8.7-4.3-18.4-6.8-28.8-6.8C88.5,89.9,59.6,118.8,59.6,154.4"/>
	</g>
</g>
<g>
	<g>
		<path id="SVGID_5_" fill="#FFFFFF" d="M74.4,154.4h8c0-23,18.7-41.7,41.7-41.7c6.7,0,13.1,1.6,18.7,4.4c0.9-2.5,1.9-5,3-7.4
			c-6.6-3.2-14-5-21.8-5C96.7,104.7,74.4,127,74.4,154.4"/>
	</g>
</g>
<g>
	<g>
		<path id="SVGID_7_" fill="#FFFFFF" d="M89.2,154.4h8c0-14.9,12.1-26.9,26.9-26.9c5.4,0,10.3,1.6,14.5,4.3c0.6-2.7,1.3-5.4,2-8.1
			c-4.9-2.7-10.6-4.2-16.6-4.2C104.9,119.5,89.2,135.1,89.2,154.4"/>
	</g>
</g>
<g>
	<g>
		<path id="SVGID_9_" fill="#FFFFFF" d="M104,154.4h8c0-6.7,5.5-12.2,12.2-12.2c6.7,0,12.2,5.5,12.2,12.2v0c0-5.1,0.4-10.2,1.1-15.2
			c-3.5-3.1-8.2-5-13.2-5C113,134.3,104,143.3,104,154.4"/>
	</g>
</g>
</svg>
