<?xml version="1.0" encoding="utf-8"?>
<!-- Generator: Adobe Illustrator 17.0.2, SVG Export Plug-In . SVG Version: 6.00 Build 0)  -->
<!DOCTYPE svg PUBLIC "-//W3C//DTD SVG 1.1//EN" "http://www.w3.org/Graphics/SVG/1.1/DTD/svg11.dtd">
<svg version="1.1" xmlns="http://www.w3.org/2000/svg" xmlns:xlink="http://www.w3.org/1999/xlink" x="0px" y="0px" width="727px"
	 height="129px" viewBox="0 0 727 129" enable-background="new 0 0 727 129" xml:space="preserve">
<g id="Layer_2">
</g>
<g id="Layer_1">
	<g>
		<path fill="#FFFFFF" d="M351.479,61.76c0,8.925,6.82,9.984,10.2,9.984c1.111,0,1.797-0.105,1.797-0.105v-4.547
			c0,0-0.475,0.108-1.216,0.108c-1.958,0-5.655-0.689-5.655-6.023V48.915h6.397v-4.122h-6.397V37.45h-5.02v7.343h-3.594v4.122h3.487
			V61.76z"/>
		<path fill="#FFFFFF" d="M367.633,39.775v31.757h5.13V59.009c0-1.268,0.106-2.479,0.471-3.541c1.111-3.856,4.389-6.605,8.454-6.605
			c4.286,0,5.078,2.96,5.078,6.712v12.574c0,2.378,1.003,3.384,3.379,3.384h5.02v-4.387h-2.162c-0.744,0-1.166-0.371-1.166-1.161
			V54.411c0-6.814-2.852-10.249-9.138-10.249c-5.339,0-8.771,3.38-9.935,5.969h-0.11c0,0,0.11-0.951,0.11-2.219v-10.41
			c0-2.271-1.003-3.275-3.382-3.275h-5.074v4.385h2.166C367.213,38.611,367.633,38.981,367.633,39.775"/>
		<path fill="#FFFFFF" d="M411.294,72.168c6.341,0,10.302-3.913,10.302-3.913l-2.219-3.644c0,0-3.222,3.117-7.817,3.117
			c-4.759,0-8.878-3.226-9.195-8.931h19.5c0,0,0.157-1.427,0.157-2.114c0-6.921-4.018-12.523-11.52-12.523
			c-7.608,0-13.424,5.496-13.424,14.003C397.077,66.087,402.838,72.168,411.294,72.168 M410.45,48.23
			c3.326,0,6.129,2.377,6.284,6.816h-14.159C403.368,50.606,406.538,48.23,410.45,48.23"/>
		<path fill="#FFFFFF" d="M469.257,51.432c0.416-0.924,0.854-2.126,1.224-3.206c0.002,0.978,0.029,2.073,0.112,3.051l1.269,16.702
			c0.201,2.408,0.958,4.017,4.001,4.017h6.438v-6.793h-2.104c-0.388,0-0.658-0.124-0.699-0.731l-2.466-30.918h-7.917l-7.84,18.146
			c-0.54,1.312-1.109,2.886-1.475,3.924c-0.362-1.038-0.928-2.615-1.478-3.932l-7.834-18.139h-7.917l-2.462,30.918
			c-0.047,0.607-0.315,0.731-0.703,0.731H437.3v6.793h6.436c2.645,0,3.819-1.167,4.06-4.022l1.21-16.694
			c0.085-0.978,0.114-2.081,0.116-3.07c0.364,1.088,0.81,2.3,1.222,3.224l6.359,14.117h6.197L469.257,51.432z"/>
		<path fill="#FFFFFF" d="M498.593,43.488c-8.668,0-15.201,6.261-15.201,14.57c0,8.307,6.533,14.573,15.201,14.573
			c8.696,0,15.259-6.267,15.259-14.573C513.852,49.749,507.289,43.488,498.593,43.488 M498.593,65.996
			c-4.282,0-7.52-3.413-7.52-7.937c0-4.526,3.237-7.939,7.52-7.939c4.314,0,7.569,3.413,7.569,7.939
			C506.162,62.583,502.906,65.996,498.593,65.996"/>
		<path fill="#FFFFFF" d="M532.89,50.539c2.711,0,3.762,1.411,3.762,5.035V67.94c0,2.804,1.253,4.056,4.063,4.056h6.854v-6.58
			h-2.577c-0.485,0-0.698-0.213-0.698-0.697V54.202c0-7.111-3.318-10.714-9.87-10.714c-4.9,0-7.684,2.602-9.046,4.447v-0.339
			c0-2.211-1.46-3.476-4.006-3.476h-6.646v6.633h2.579c0.509,0,0.702,0.188,0.702,0.699v20.542h7.582V59.17
			c0-1.286,0.166-2.445,0.511-3.464C527.037,52.52,529.644,50.539,532.89,50.539"/>
		<path fill="#FFFFFF" d="M563.149,72.632c6.822,0,10.984-4.034,11.154-4.204l0.262-0.254l-3.281-5.456l-0.418,0.392
			c-0.033,0.029-3.141,2.887-7.241,2.887c-3.999,0-6.907-2.459-7.558-6.313h18.494l0.037-0.416c0.006-0.074,0.162-1.726,0.162-2.53
			c0-7.924-4.987-13.248-12.403-13.248c-8.337,0-14.15,5.99-14.15,14.57C548.207,66.501,554.491,72.632,563.149,72.632
			 M556.346,54.106c0.835-2.879,2.999-4.513,6.012-4.513c2.434,0,4.292,1.87,4.578,4.513H556.346z"/>
		<path fill="#FFFFFF" d="M581.993,76.512c-1.98,0-3.498-1.675-3.512-1.695l-0.435-0.49l-3.066,5.63l0.231,0.242
			c0.108,0.12,2.776,2.894,7.155,2.894c4.631,0,8.33-2.671,10.15-7.321l9.67-24.356c0.215-0.546,0.412-0.66,1.1-0.66h1.259v-6.633
			h-5.007c-2.114,0-3.356,0.877-4.03,2.85l-4.6,13.471c-0.188,0.55-0.368,1.222-0.519,1.839c-0.16-0.621-0.353-1.301-0.569-1.854
			l-5.279-13.466c-0.757-2.043-1.872-2.839-3.973-2.839h-4.903v6.633h1.259c0.586,0,0.761,0.079,1.002,0.674l8.904,20.053
			l-0.823,1.884C585.173,75.393,583.748,76.512,581.993,76.512"/>
		<path fill="#FFFFFF" d="M379.762,111.894l-11.209-30.791h-7.882l-11.272,30.805c-0.245,0.741-0.478,0.846-1.196,0.846h-1.305
			v6.793h4.635c2.811,0,3.894-0.755,4.82-3.372l2.219-6.245h12.026l2.215,6.245c0.917,2.583,2.056,3.372,4.877,3.372h4.582v-6.793
			h-1.311C380.243,112.753,380.015,112.648,379.762,111.894 M364.586,90.548c0.294,1.198,0.706,2.793,1.092,3.955l3.014,8.789
			h-8.218l3.02-8.793C363.877,93.341,364.291,91.746,364.586,90.548"/>
		<path fill="#FFFFFF" d="M410.551,112.266V85.158c0-2.727-1.33-4.056-4.061-4.056h-6.854v6.634h2.577
			c0.507,0,0.697,0.19,0.697,0.699v4.755c0,0.13,0.004,0.255,0.006,0.379c-1.073-1.037-3.318-2.532-7.361-2.532
			c-7.492,0-12.723,5.992-12.723,14.572c0,8.714,5.006,14.57,12.456,14.57c4.452,0,6.929-2.155,8.061-3.531
			c0.085,1.206,0.753,2.898,3.774,2.898h6.646v-6.58h-2.52C410.766,112.966,410.551,112.751,410.551,112.266 M396.769,113.599
			c-3.758,0-6.194-3.138-6.194-7.989c0-4.716,2.536-7.885,6.303-7.885c4.279,0,6.195,3.934,6.195,7.83
			C403.072,111.485,399.818,113.599,396.769,113.599"/>
		<path fill="#FFFFFF" d="M433.165,94.515l-5.078,14.173c-0.215,0.643-0.412,1.392-0.571,2.06c-0.164-0.67-0.373-1.423-0.613-2.073
			l-5.072-14.165c-0.761-2.043-1.99-2.84-4.398-2.84h-4.321v6.634h1.044c0.584,0,0.867,0.181,1.051,0.65l7.825,20.593h8.621
			l7.825-20.589c0.178-0.474,0.466-0.654,1.045-0.654h1.098v-6.634h-4.056C435.184,91.669,433.914,92.493,433.165,94.515"/>
		<path fill="#FFFFFF" d="M454.3,112.268V95.729c0-2.769-1.274-4.06-4.008-4.06h-6.857v6.636h2.578c0.508,0,0.701,0.188,0.701,0.697
			v16.486c0,2.767,1.272,4.058,4.002,4.058h6.856v-6.58h-2.576C454.511,112.966,454.3,112.751,454.3,112.268"/>
		<rect x="447.032" y="81.103" fill="#FFFFFF" width="6.739" height="7.104"/>
		<path fill="#FFFFFF" d="M481.717,109.892c-0.035,0.035-3.299,3.496-7.638,3.496c-3.955,0-7.942-2.42-7.942-7.833
			c0-4.6,3.163-7.938,7.519-7.938c1.371,0,3.39,0.526,3.39,1.651v1.943h6.848v-3.632c0-4.801-6.121-6.542-10.237-6.542
			c-9.983,0-15.209,7.332-15.209,14.57c0,8.44,6.331,14.57,15.051,14.57c7.476,0,11.544-4.824,11.712-5.03l0.215-0.251l-3.289-5.458
			L481.717,109.892z"/>
		<path fill="#FFFFFF" d="M500.163,91.037c-8.331,0-14.147,5.992-14.147,14.57c0,8.442,6.288,14.572,14.934,14.572
			c6.826,0,10.993-4.033,11.167-4.201l0.258-0.256l-3.286-5.455l-0.416,0.393c-0.032,0.027-3.136,2.885-7.24,2.885
			c-3.996,0-6.909-2.457-7.552-6.314h18.492l0.036-0.418c0.006-0.069,0.161-1.723,0.161-2.528
			C512.57,96.363,507.583,91.037,500.163,91.037 M500.163,97.142c2.429,0,4.296,1.872,4.58,4.517h-10.59
			C494.986,98.777,497.15,97.142,500.163,97.142"/>
		<path fill="#FFFFFF" d="M543.974,96.371c-3.446-1.481-6.418-2.761-6.418-5.134c0-2.091,2.071-3.555,5.031-3.555
			c2.179,0,4.505,0.981,4.505,2.443v2.154h7.163v-3.949c0-5.727-7.124-7.862-11.613-7.862c-7.523,0-12.986,4.639-12.986,11.031
			c0,7.006,6.133,9.827,11.06,12.09c3.535,1.627,6.59,3.028,6.59,5.454c0,2.745-2.478,3.975-4.927,3.975
			c-4.954,0-8.704-4.238-8.738-4.28l-0.366-0.415l-4.485,5.578l0.229,0.29c0.193,0.244,4.834,5.986,13.259,5.986
			c7.614,0,12.935-4.728,12.935-11.504C555.21,101.213,548.977,98.529,543.974,96.371"/>
		<path fill="#FFFFFF" d="M571.446,91.037c-8.332,0-14.148,5.992-14.148,14.57c0,8.442,6.284,14.572,14.943,14.572
			c6.82,0,10.979-4.033,11.155-4.201l0.259-0.256l-3.285-5.455l-0.416,0.393c-0.029,0.027-3.135,2.885-7.238,2.885
			c-3.998,0-6.914-2.457-7.555-6.314h18.49l0.041-0.418c0.004-0.069,0.153-1.723,0.153-2.528
			C583.847,96.363,578.871,91.037,571.446,91.037 M571.446,97.142c2.435,0,4.294,1.872,4.573,4.517h-10.582
			C566.268,98.777,568.435,97.142,571.446,97.142"/>
		<path fill="#FFFFFF" d="M603.961,91.299c-3.32,0-6.371,1.99-8.096,5.126v-1.016c0-2.479-1.365-3.738-4.055-3.738h-6.594v6.634
			h2.573c0.507,0,0.702,0.188,0.702,0.697v20.544h7.584v-11.137c0-1.493,0.185-2.926,0.56-4.252
			c1.188-3.926,4.346-5.325,6.901-5.325c0.9,0,1.562,0.099,1.568,0.099l0.53,0.083v-7.535l-0.386-0.067
			C605.22,91.407,604.574,91.299,603.961,91.299"/>
		<path fill="#FFFFFF" d="M627.431,94.515l-5.078,14.173c-0.215,0.643-0.41,1.392-0.567,2.06c-0.166-0.67-0.375-1.423-0.615-2.073
			l-5.074-14.165c-0.759-2.043-1.99-2.84-4.4-2.84h-4.317v6.634h1.044c0.58,0,0.863,0.181,1.045,0.65l7.831,20.593h8.615
			l7.831-20.589c0.184-0.474,0.466-0.654,1.043-0.654h1.102v-6.634h-4.058C629.456,91.669,628.182,92.493,627.431,94.515"/>
		<rect x="641.296" y="81.103" fill="#FFFFFF" width="6.741" height="7.104"/>
		<path fill="#FFFFFF" d="M648.565,112.268V95.729c0-2.769-1.269-4.06-4.002-4.06h-6.858v6.636h2.576
			c0.512,0,0.699,0.188,0.699,0.697v16.486c0,2.767,1.272,4.058,4.006,4.058h6.851v-6.58h-2.572
			C648.778,112.966,648.565,112.751,648.565,112.268"/>
		<path fill="#FFFFFF" d="M675.98,109.892c-0.033,0.035-3.291,3.496-7.636,3.496c-3.955,0-7.94-2.42-7.94-7.833
			c0-4.6,3.161-7.938,7.515-7.938c1.365,0,3.392,0.526,3.392,1.651v1.943h6.846v-3.632c0-4.801-6.123-6.542-10.237-6.542
			c-9.979,0-15.203,7.332-15.203,14.57c0,8.44,6.329,14.57,15.045,14.57c7.481,0,11.546-4.824,11.716-5.03l0.205-0.251l-3.281-5.458
			L675.98,109.892z"/>
		<path fill="#FFFFFF" d="M706.673,106.813c0.01-0.069,0.163-1.723,0.163-2.528c0-7.922-4.983-13.248-12.403-13.248
			c-8.333,0-14.148,5.992-14.148,14.57c0,8.442,6.28,14.572,14.939,14.572c6.824,0,10.982-4.033,11.155-4.201l0.26-0.256
			l-3.282-5.455l-0.416,0.393c-0.03,0.027-3.142,2.885-7.24,2.885c-3.994,0-6.911-2.457-7.558-6.314h18.49L706.673,106.813z
			 M694.433,97.142c2.429,0,4.296,1.872,4.572,4.517h-10.582C689.256,98.777,691.418,97.142,694.433,97.142"/>
		<path fill="#FFFFFF" d="M213.138,10.524c-60.029,0-108.871,48.839-108.871,108.869h7.979c0-55.63,45.263-100.891,100.891-100.891
			c55.633,0,100.893,45.261,100.893,100.891h7.98C322.012,59.363,273.172,10.524,213.138,10.524"/>
		<path fill="#FFFFFF" d="M213.138,25.312c-51.876,0-94.082,42.208-94.082,94.086h7.979c0-47.478,38.627-86.105,86.103-86.105
			c47.477,0,86.105,38.628,86.105,86.105h7.98C307.223,67.52,265.014,25.312,213.138,25.312"/>
		<path fill="#FFFFFF" d="M213.138,40.103c-43.726,0-79.293,35.571-79.293,79.295h7.977c0-39.323,31.995-71.317,71.316-71.317
			c39.325,0,71.316,31.994,71.316,71.317h7.984C292.438,75.674,256.867,40.103,213.138,40.103"/>
		<path fill="#FFFFFF" d="M213.138,54.888c-35.564,0-64.506,28.937-64.506,64.506h7.981c0-31.167,25.355-56.524,56.525-56.524
			c31.17,0,56.529,25.357,56.529,56.524h7.979C277.646,83.824,248.71,54.888,213.138,54.888"/>
		<path fill="#FFFFFF" d="M213.138,69.674c-27.415,0-49.715,22.307-49.715,49.724h7.975c0-23.015,18.729-41.739,41.74-41.739
			c23.014,0,41.742,18.725,41.742,41.739h7.975C262.855,91.981,240.556,69.674,213.138,69.674"/>
	</g>
	<g>
		<defs>
			<path id="SVGID_1_" d="M12.815,119.397h7.979c0-39.325,31.991-71.317,71.314-71.317c11.736,0,22.815,2.854,32.589,7.897
				c1.581-2.193,3.239-4.329,4.973-6.398c-11.188-6.04-23.98-9.479-37.562-9.479C48.387,40.101,12.815,75.674,12.815,119.397"/>
		</defs>
		<use xlink:href="#SVGID_1_"  overflow="visible" fill="#FFFFFF"/>
		<clipPath id="SVGID_2_">
			<use xlink:href="#SVGID_1_"  overflow="visible"/>
		</clipPath>
	</g>
	<g>
		<defs>
			<path id="SVGID_3_" d="M27.606,119.394h7.977c0-31.165,25.355-56.522,56.525-56.522c8.879,0,17.275,2.063,24.76,5.728
				c1.253-2.363,2.587-4.675,4.004-6.931c-8.663-4.335-18.434-6.779-28.765-6.779C56.541,54.89,27.606,83.824,27.606,119.394"/>
		</defs>
		<use xlink:href="#SVGID_3_"  overflow="visible" fill="#FFFFFF"/>
		<clipPath id="SVGID_4_">
			<use xlink:href="#SVGID_3_"  overflow="visible"/>
		</clipPath>
	</g>
	<g>
		<defs>
			<path id="SVGID_5_" d="M42.393,119.397h7.977c0-23.015,18.723-41.739,41.74-41.739c6.734,0,13.1,1.604,18.736,4.448
				c0.918-2.511,1.924-4.979,3.019-7.398c-6.573-3.214-13.956-5.03-21.755-5.03C64.695,69.678,42.393,91.982,42.393,119.397"/>
		</defs>
		<use xlink:href="#SVGID_5_"  overflow="visible" fill="#FFFFFF"/>
		<clipPath id="SVGID_6_">
			<use xlink:href="#SVGID_5_"  overflow="visible"/>
		</clipPath>
	</g>
	<g>
		<defs>
			<path id="SVGID_7_" d="M57.185,119.397h7.978c0-14.858,12.092-26.948,26.944-26.948c5.353,0,10.342,1.567,14.539,4.271
				c0.581-2.725,1.263-5.411,2.043-8.056c-4.935-2.674-10.584-4.201-16.582-4.201C72.851,84.463,57.185,100.139,57.185,119.397"/>
		</defs>
		<use xlink:href="#SVGID_7_"  overflow="visible" fill="#FFFFFF"/>
		<clipPath id="SVGID_8_">
			<use xlink:href="#SVGID_7_"  overflow="visible"/>
		</clipPath>
	</g>
	<g>
		<defs>
			<path id="SVGID_9_" d="M71.97,119.397h7.98c0-6.704,5.454-12.158,12.158-12.158c6.705,0,12.16,5.454,12.16,12.158v-0.004
				c0-5.146,0.365-10.21,1.061-15.168c-3.539-3.086-8.159-4.97-13.221-4.97C81.004,99.256,71.97,108.291,71.97,119.397"/>
		</defs>
		<use xlink:href="#SVGID_9_"  overflow="visible" fill="#FFFFFF"/>
		<clipPath id="SVGID_10_">
			<use xlink:href="#SVGID_9_"  overflow="visible"/>
		</clipPath>
	</g>
	<g>
		<path fill="#FFFFFF" d="M717.505,84.103c0,2.829-2.282,5.115-5.117,5.115c-2.836,0-5.118-2.286-5.118-5.115
			c0-2.832,2.282-5.118,5.118-5.118C715.223,78.984,717.505,81.271,717.505,84.103 M707.792,84.103c0,2.583,1.996,4.664,4.609,4.664
			c2.614,0,4.583-2.097,4.583-4.68c0-2.611-1.955-4.649-4.583-4.649C709.759,79.438,707.792,81.462,707.792,84.103 M710.527,81.077
			h2.271c1.366,0,1.971,0.575,1.971,1.673c0,0.983-0.701,1.459-1.559,1.599l1.805,2.776h-0.575l-1.818-2.792h-1.573v2.792h-0.521
			V81.077z M711.049,83.88h1.283c0.916,0,1.917-0.095,1.917-1.146c0-0.934-0.806-1.204-1.533-1.204h-1.667V83.88z"/>
	</g>
</g>
</svg>
