<?xml version="1.0" encoding="utf-8"?>
<!-- Generator: Adobe Illustrator 17.0.2, SVG Export Plug-In . SVG Version: 6.00 Build 0)  -->
<!DOCTYPE svg PUBLIC "-//W3C//DTD SVG 1.1//EN" "http://www.w3.org/Graphics/SVG/1.1/DTD/svg11.dtd">
<svg version="1.1" id="Layer_1" xmlns="http://www.w3.org/2000/svg" xmlns:xlink="http://www.w3.org/1999/xlink" x="0px" y="0px"
	 width="400px" height="200px" viewBox="0 0 400 200" enable-background="new 0 0 400 200" xml:space="preserve">
<path fill="#FFFFFF" d="M245.138,45.524c-60.029,0-108.871,48.839-108.871,108.869h7.98c0-55.63,45.263-100.891,100.891-100.891
	c55.633,0,100.893,45.261,100.893,100.891h7.98C354.012,94.363,305.172,45.524,245.138,45.524"/>
<path fill="#FFFFFF" d="M245.138,60.312c-51.876,0-94.082,42.208-94.082,94.086h7.979c0-47.478,38.626-86.106,86.103-86.106
	c47.477,0,86.105,38.628,86.105,86.106h7.98C339.223,102.52,297.014,60.312,245.138,60.312"/>
<path fill="#FFFFFF" d="M245.138,75.103c-43.726,0-79.293,35.571-79.293,79.295h7.977c0-39.323,31.995-71.317,71.316-71.317
	c39.325,0,71.316,31.994,71.316,71.317h7.984C324.438,110.674,288.867,75.103,245.138,75.103"/>
<path fill="#FFFFFF" d="M245.138,89.888c-35.564,0-64.506,28.937-64.506,64.506h7.981c0-31.167,25.355-56.524,56.525-56.524
	c31.17,0,56.529,25.357,56.529,56.524h7.979C309.646,118.824,280.71,89.888,245.138,89.888"/>
<path fill="#FFFFFF" d="M245.138,104.674c-27.415,0-49.715,22.307-49.715,49.724h7.975c0-23.015,18.729-41.739,41.74-41.739
	c23.014,0,41.742,18.725,41.742,41.739h7.975C294.855,126.981,272.556,104.674,245.138,104.674"/>
<g>
	<defs>
		<path id="SVGID_1_" d="M44.815,154.398h7.979c0-39.325,31.991-71.317,71.314-71.317c11.736,0,22.815,2.854,32.589,7.897
			c1.581-2.193,3.239-4.329,4.973-6.398c-11.188-6.04-23.98-9.479-37.562-9.479C80.387,75.101,44.815,110.674,44.815,154.398"/>
	</defs>
	<use xlink:href="#SVGID_1_"  overflow="visible" fill="#FFFFFF"/>
	<clipPath id="SVGID_2_">
		<use xlink:href="#SVGID_1_"  overflow="visible"/>
	</clipPath>
</g>
<g>
	<defs>
		<path id="SVGID_3_" d="M59.606,154.394h7.977c0-31.165,25.355-56.522,56.525-56.522c8.879,0,17.275,2.063,24.76,5.729
			c1.253-2.363,2.587-4.675,4.004-6.931c-8.663-4.335-18.434-6.779-28.765-6.779C88.541,89.89,59.606,118.824,59.606,154.394"/>
	</defs>
	<use xlink:href="#SVGID_3_"  overflow="visible" fill="#FFFFFF"/>
	<clipPath id="SVGID_4_">
		<use xlink:href="#SVGID_3_"  overflow="visible"/>
	</clipPath>
</g>
<g>
	<defs>
		<path id="SVGID_5_" d="M74.393,154.398h7.977c0-23.015,18.723-41.739,41.74-41.739c6.734,0,13.1,1.604,18.736,4.448
			c0.917-2.511,1.924-4.979,3.019-7.398c-6.573-3.214-13.956-5.03-21.755-5.03C96.695,104.678,74.393,126.982,74.393,154.398"/>
	</defs>
	<use xlink:href="#SVGID_5_"  overflow="visible" fill="#FFFFFF"/>
	<clipPath id="SVGID_6_">
		<use xlink:href="#SVGID_5_"  overflow="visible"/>
	</clipPath>
</g>
<g>
	<defs>
		<path id="SVGID_7_" d="M89.185,154.398h7.978c0-14.858,12.092-26.948,26.944-26.948c5.353,0,10.342,1.567,14.539,4.27
			c0.581-2.725,1.263-5.411,2.043-8.056c-4.936-2.674-10.584-4.201-16.583-4.201C104.851,119.463,89.185,135.139,89.185,154.398"/>
	</defs>
	<use xlink:href="#SVGID_7_"  overflow="visible" fill="#FFFFFF"/>
	<clipPath id="SVGID_8_">
		<use xlink:href="#SVGID_7_"  overflow="visible"/>
	</clipPath>
</g>
<g>
	<defs>
		<path id="SVGID_9_" d="M103.97,154.398h7.98c0-6.704,5.454-12.158,12.158-12.158c6.705,0,12.16,5.454,12.16,12.158v-0.004
			c0-5.146,0.365-10.21,1.061-15.168c-3.539-3.086-8.159-4.97-13.221-4.97C113.004,134.256,103.97,143.291,103.97,154.398"/>
	</defs>
	<use xlink:href="#SVGID_9_"  overflow="visible" fill="#FFFFFF"/>
	<clipPath id="SVGID_10_">
		<use xlink:href="#SVGID_9_"  overflow="visible"/>
	</clipPath>
</g>
</svg>
