<?xml version="1.0" encoding="utf-8"?>
<!-- Generator: Adobe Illustrator 17.1.0, SVG Export Plug-In . SVG Version: 6.00 Build 0)  -->
<!DOCTYPE svg PUBLIC "-//W3C//DTD SVG 1.1//EN" "http://www.w3.org/Graphics/SVG/1.1/DTD/svg11.dtd">
<svg version="1.1" id="Layer_1" xmlns="http://www.w3.org/2000/svg" xmlns:xlink="http://www.w3.org/1999/xlink" x="0px" y="0px"
	 viewBox="-12.8 0 310 141.7" enable-background="new -12.8 0 310 141.7" xml:space="preserve">
<path fill="#357C24" d="M268.1-0.3c8.6,0,26.9,0,29,0c0,11.3,2.5,74.1-20.9,142c-8.8,0-29,0-30.5,0C270.9,73.7,268.1,18.9,268.1-0.3
	z M188.3,141.7c1.5,0,22.4,0,31.2,0c27.6-69.3,24.3-130.7,24.3-142c-2.1,0-20.4,0-29,0C214.8,18.9,218.3,72.5,188.3,141.7z
	 M128.7,141.7c1.5,0,23.7,0,32.5,0c33.3-68.1,29.3-130.7,29.3-142c-2.1,0-20.4,0-29,0C161.5,18.9,165.3,75.2,128.7,141.7z
	 M64.8,141.7c1.5,0,26.5,0,35.3,0c42.6-60.3,37.2-130.7,37.2-142c-2.1,0-20.4,0-29,0C108.2,18.8,113.3,79.4,64.8,141.7z
	 M-12.8,141.7c1.5,0,36.2,0,45,0C89.8,84.1,83.9,11,83.9-0.3c-2.1,0-20.4,0-29,0C54.9,18.8,59.2,94.5-12.8,141.7z"/>
</svg>
