<?xml version="1.0" encoding="utf-8"?>
<!-- Generator: Adobe Illustrator 15.0.0, SVG Export Plug-In . SVG Version: 6.00 Build 0)  -->
<!DOCTYPE svg PUBLIC "-//W3C//DTD SVG 1.1//EN" "http://www.w3.org/Graphics/SVG/1.1/DTD/svg11.dtd">
<svg version="1.1" id="Layer_1" xmlns="http://www.w3.org/2000/svg" xmlns:xlink="http://www.w3.org/1999/xlink" x="0px" y="0px"
	 width="283.46px" height="141.73px" viewBox="0 0 283.46 141.73" enable-background="new 0 0 283.46 141.73" xml:space="preserve">
<path d="M255.386,6.711c7.753-0.036,24.139,0,26.056,0c0,10.155,2.245,66.629-18.749,127.605c-7.89,0-26.072,0.017-27.42,0.017
	C257.834,73.162,255.386,23.911,255.386,6.711z M183.64,134.333c1.349,0,20.119,0,28.009,0
	C236.439,72.093,233.48,16.867,233.48,6.711c-1.916,0-18.303-0.036-26.056,0C207.425,23.911,210.587,72.093,183.64,134.333z
	 M130.063,134.333c1.348,0,21.306,0,29.195,0c29.934-61.171,26.351-117.466,26.351-127.622c-1.916,0-18.303-0.036-26.056,0
	C159.554,23.911,162.983,74.589,130.063,134.333z M72.634,134.316c1.348,0,23.827,0,31.716,0
	c38.308-54.201,33.388-117.465,33.388-127.621c-1.917,0-18.303-0.036-26.056,0C111.683,23.896,116.271,78.333,72.634,134.316z
	 M2.934,134.316c1.348,0,32.527,0,40.417,0C95.144,82.522,89.823,16.852,89.823,6.696c-1.917,0-18.303-0.036-26.056,0
	C63.767,23.896,67.656,91.883,2.934,134.316z"/>
</svg>
