<svg width="123" height="62" viewBox="0 0 123 62" fill="none" xmlns="http://www.w3.org/2000/svg">
<path d="M12.371 51.9712L9.18075 48.7879L13.1111 44.8661H8.42068C3.47028 44.8661 0 41.5331 0 36.7731V30.9453H4.81039L4.82039 36.1245C4.82039 38.6192 6.46053 40.3556 8.82072 40.3556H13.1011L9.17075 36.4438L12.361 33.2505L18.3815 39.2579C20.2316 41.104 20.2316 44.1177 18.3815 45.9638L12.371 51.9712Z" fill="#C82A87"/>
<path d="M0 0H5.82047L12.841 16.7948L19.8916 0H25.6821V24.0396H20.8617V9.37035L14.7612 24.0396H10.9409L4.82039 9.37035V24.0396H0V0Z" fill="#0F19A0"/>
<path fill-rule="evenodd" clip-rule="evenodd" d="M37.2818 6.45654C31.9414 6.45654 28.1211 10.2386 28.1211 15.3878C28.1211 20.537 31.9414 24.3191 37.2818 24.3191C42.6223 24.3191 46.4426 20.537 46.4426 15.3878C46.4426 10.2386 42.6223 6.45654 37.2818 6.45654ZM37.2712 10.5476C39.8512 10.5476 41.6112 12.5034 41.6112 15.3871C41.6112 18.2309 39.8612 20.1966 37.2712 20.1966C34.6912 20.1966 32.9312 18.2409 32.9312 15.3871C32.9312 12.5034 34.6912 10.5476 37.2712 10.5476Z" fill="#0F19A0"/>
<path d="M48.3945 6.7257H53.2149V9.13066C54.175 7.4442 56.1052 6.44629 58.4854 6.44629C62.4057 6.44629 64.9559 9.26039 64.9559 13.252V24.0394H60.1355V14.3198C60.1355 12.2242 58.7954 10.7173 56.7952 10.7173C54.695 10.7173 53.2149 12.3339 53.2149 14.5693V24.0494H48.3945V6.7257H48.3945Z" fill="#0F19A0"/>
<path fill-rule="evenodd" clip-rule="evenodd" d="M75.9754 24.3191C80.2458 24.3191 83.546 21.9141 84.2361 18.172H79.5457C79.1657 19.6489 77.8956 20.4073 75.9654 20.4073C73.5552 20.4073 72.0051 18.8905 71.6651 16.4556H84.1261C84.1661 16.0764 84.1961 15.5575 84.1961 14.9088C84.1961 10.9571 81.7559 6.45654 75.6254 6.45654C69.7349 6.45654 67.0547 10.9571 67.0547 15.3579C67.0547 19.7187 70.0849 24.3191 75.9754 24.3191ZM79.4146 13.4313H71.7346C72.1546 11.0266 73.4546 9.95891 75.6246 9.95891C77.9346 9.95891 79.2746 11.5055 79.4146 13.4313Z" fill="#0F19A0"/>
<path d="M95.556 23.9699L93.1158 31.0451H88.5355L91.0857 23.9001L84.7852 6.72607H89.6756L93.3158 17.8927L96.9361 6.72607H101.857L95.556 23.9699Z" fill="#0F19A0"/>
<path d="M42.5238 30.9453V54.9949H37.3234V44.926H27.4026V54.9949H22.2422V30.9453H27.4026V40.4953H37.3234V30.9453H42.5238Z" fill="#0F19A0"/>
<path fill-rule="evenodd" clip-rule="evenodd" d="M53.8426 55.2639C58.1129 55.2639 61.4132 52.859 62.1033 49.1168H57.4129C57.0329 50.5937 55.7628 51.3521 53.8326 51.3521C51.4224 51.3521 49.8723 49.8353 49.5322 47.4004H61.9933C62.0333 47.0212 62.0633 46.5023 62.0633 45.8536C62.0633 41.9019 59.6231 37.4014 53.4926 37.4014C47.6021 37.4014 44.9219 41.9019 44.9219 46.3027C44.9219 50.6636 47.9521 55.2639 53.8426 55.2639ZM57.2818 44.3762H49.6018C50.0218 41.9714 51.3318 40.9137 53.4918 40.9037C55.8018 40.9037 57.1418 42.4504 57.2818 44.3762Z" fill="#0F19A0"/>
<rect x="64.7852" y="30.1567" width="4.79039" height="24.8379" fill="#0F19A0"/>
<path fill-rule="evenodd" clip-rule="evenodd" d="M77.4154 37.6808H72.635H72.625V61.9998H77.4054V53.4477C78.3355 54.6153 80.0256 55.2639 81.9858 55.2639C86.9862 55.2639 90.3564 51.7213 90.3564 46.3326C90.3564 40.9439 87.2562 37.4014 82.4058 37.4014C80.1656 37.4014 78.4455 38.2296 77.4154 39.5668V37.6808ZM81.415 41.5024C83.925 41.5024 85.645 43.4183 85.645 46.3419C85.645 49.2256 83.925 51.1414 81.415 51.1514C78.835 51.1514 77.145 49.2256 77.145 46.3419C77.145 43.4282 78.835 41.5024 81.415 41.5024Z" fill="#0F19A0"/>
<path fill-rule="evenodd" clip-rule="evenodd" d="M101.007 55.2639C105.277 55.2639 108.577 52.859 109.267 49.1168H104.577C104.197 50.5937 102.927 51.3521 100.997 51.3521C98.5865 51.3521 97.0363 49.8353 96.6963 47.4004H109.157C109.197 47.0212 109.227 46.5023 109.227 45.8536C109.227 41.9019 106.787 37.4014 100.657 37.4014C94.7662 37.4014 92.0859 41.9019 92.0859 46.3027C92.0859 50.6636 95.1162 55.2639 101.007 55.2639ZM104.446 44.3762H96.766C97.186 41.9714 98.486 40.9137 100.656 40.9037C102.966 40.9037 104.306 42.4504 104.446 44.3762Z" fill="#0F19A0"/>
<path d="M120.14 41.6628C117.759 41.6628 116.699 43.6187 116.699 46.5725V54.9849H111.879V37.6812H116.699V40.5651C117.629 38.3996 118.939 37.6812 121.04 37.6812H123V41.6628H120.14Z" fill="#0F19A0"/>
</svg>
