<svg id="Layer_1" data-name="Layer 1" xmlns="http://www.w3.org/2000/svg" viewBox="0 0 259.88 127.31">
  <defs>
    <style>
      .cls-1 {
        fill: #c82a87;
      }

      .cls-2 {
        fill: #0f19a0;
      }
    </style>
  </defs>
  <path class="cls-1" d="M94.71,143.94,81.59,130.81l-7,7,8.56,8.57H73.85c-5.13,0-8.72-3.81-8.72-9.25l0-12.52H54.6v13.93c0,10.41,7.55,17.69,18.36,17.69H83.18l-8.56,8.56,7,7,13.12-13.12A10.38,10.38,0,0,0,94.71,143.94Z" transform="translate(-54.6 -52.81)"/>
  <g>
    <path class="cls-2" d="M100.61,54.6v54.6H88.83V86.35H66.36V109.2H54.66V54.6h11.7V76.29H88.83V54.6Z" transform="translate(-54.6 -52.81)"/>
    <path class="cls-2" d="M144.91,95.86c-1.56,8.51-9,14-18.72,14-13.34,0-20.2-10.45-20.2-20.36s6.08-20.2,19.42-20.2c13.88,0,19.42,10.21,19.42,19.18,0,1.49-.08,2.66-.15,3.51H116.44c.78,5.54,4.29,9,9.75,9,4.37,0,7.25-1.71,8.11-5.07ZM116.59,85.1H134a8.13,8.13,0,0,0-8.58-7.88C120.5,77.22,117.53,79.64,116.59,85.1Z" transform="translate(-54.6 -52.81)"/>
    <path class="cls-2" d="M149.9,52.81h10.84V109.2H149.9Z" transform="translate(-54.6 -52.81)"/>
    <path class="cls-2" d="M168.38,69.89h10.85v4.29c2.34-3,6.24-4.91,11.31-4.91,11,0,18,8,18,20.28s-7.65,20.28-19,20.28c-4.44,0-8.27-1.48-10.37-4.14v19.43H168.38Zm29.49,19.66c0-6.63-3.9-11-9.59-11-5.86,0-9.68,4.37-9.68,11s3.82,10.92,9.68,10.92C194,100.47,197.87,96.1,197.87,89.55Z" transform="translate(-54.6 -52.81)"/>
    <path class="cls-2" d="M224.15,52.81V64.27H212.61V52.81ZM212.92,69.89h10.92V109.2H212.92Z" transform="translate(-54.6 -52.81)"/>
    <path class="cls-2" d="M227.12,69.89H238l6.63,24.26,6.94-24.26h9.91l7,24.26,6.63-24.26H286L273.3,109.2h-9.52L256.6,84.71l-7.25,24.49h-9.44Z" transform="translate(-54.6 -52.81)"/>
    <path class="cls-2" d="M308,78.94c-5.38,0-7.8,4.44-7.8,11.15V109.2H289.28V69.89H300.2v6.55c2.11-4.91,5.07-6.55,9.83-6.55h4.45v9Z" transform="translate(-54.6 -52.81)"/>
  </g>
  <g>
    <path class="cls-2" d="M136.77,167.55H117l-4.29,11.94H100.58l20.75-54.6h11.15l20.75,54.6H141.06Zm-3.51-9.82L127,140l-6.4,17.71Z" transform="translate(-54.6 -52.81)"/>
    <path class="cls-2" d="M174.76,149.22c-5.38,0-7.8,4.45-7.8,11.16v19.11H156V140.18H167v6.55c2.11-4.92,5.07-6.55,9.83-6.55h4.44v9Z" transform="translate(-54.6 -52.81)"/>
    <path class="cls-2" d="M197.53,123.09v11.47H186V123.09ZM186.3,140.18h10.92v39.31H186.3Z" transform="translate(-54.6 -52.81)"/>
    <path class="cls-2" d="M237.08,154.22v25.27H226.32V174c-1.33,3.67-5.7,6.08-11.08,6.08-7.65,0-12.87-5.07-12.87-11.77,0-7.73,5.77-12.41,14.35-12.41h6.63a2.73,2.73,0,0,0,3-2.88c0-3.28-2.58-5.54-7-5.54-4.76,0-7.18,3-7.34,6.24h-9.67c.47-7.88,6.86-14.2,17.63-14.2C229.83,139.55,237.08,145.32,237.08,154.22Zm-10.76,9.12v-.54h-8c-3.28,0-5.62,2-5.62,5.07,0,2.57,2.19,4.36,5.23,4.36C223.27,172.23,226.32,168.34,226.32,163.34Z" transform="translate(-54.6 -52.81)"/>
    <path class="cls-2" d="M242.93,140.18h10.92v5.46c2.18-3.83,6.55-6.09,11.93-6.09,8.89,0,14.67,6.4,14.67,15.45v24.49H269.53V157.41c0-4.75-3-8.19-7.57-8.19-4.76,0-8.11,3.67-8.11,8.74v21.53H242.93Z" transform="translate(-54.6 -52.81)"/>
  </g>
</svg>
